#N canvas 1912 -8 1920 997 16;
#X floatatom -106 36 5 0 0 0 - - #0-playbackBPM;
#X obj -40 266 bng 30 250 50 0 \$0-bangToSelectSample empty Select
0 -7 0 20 -4032 -1 -1;
#N canvas 0 0 450 300 (subpatch) 0;
#X array \$0-sample 165375 float 2;
#X coords 0 1 165375 -1 800 140 2 0 0;
#X restore -851 250 graph;
#X floatatom 215 375 20 0 0 0 - - -;
#X obj -848 250 hsl 795 144 0 1 0 0 empty empty empty -2 -8 0 10 -262144
-4032 -1 44539 1;
#X obj -850 421 hsl 795 16 0 1 0 0 empty empty empty -2 -8 0 10 -262144
-4034 -1 29775 1;
#X obj -850 443 hsl 795 16 0 1 0 0 empty empty empty -2 -8 0 10 -262144
-258113 -1 49625 1;
#X floatatom -44 93 5 0 0 3 original_BPM - #0-sendOriginalBPM;
#X text -1054 40 length of sample;
#X text -618 1181 Length in ms;
#X obj -350 1239 - 3;
#X text -51 419 loop start;
#X text -51 440 loop end;
#N canvas 451 348 1031 496 drawGraphs 0;
#X obj 173 411 outlet loopStart;
#X obj 360 412 outlet loopEnd;
#X obj 173 204 t b f;
#X obj 173 311 /;
#X obj 440 228 t b f;
#X obj 360 304 expr ($f1 + $f3) / $f2;
#X obj 605 247 t b f;
#X obj 605 304 /;
#X obj 605 411 outlet sampleStartPoint;
#X obj 360 55 r \$0-loopLengthSMP;
#X obj 439 105 r \$0-loopStartSMP;
#X obj 173 92 r \$0-maxl;
#X obj 690 106 r \$0-introStartSMP;
#X connect 2 0 3 0;
#X connect 2 0 5 0;
#X connect 2 1 3 1;
#X connect 2 1 5 1;
#X connect 3 0 0 0;
#X connect 4 0 5 0;
#X connect 4 1 5 2;
#X connect 5 0 1 0;
#X connect 6 0 7 0;
#X connect 6 1 7 1;
#X connect 7 0 8 0;
#X connect 9 0 5 0;
#X connect 10 0 3 0;
#X connect 10 0 4 0;
#X connect 11 0 2 0;
#X connect 11 0 6 0;
#X connect 12 0 7 0;
#X restore -1019 378 pd drawGraphs;
#N canvas 2736 288 512 524 bangToSelectSample 0;
#X obj -258 73 bng 15 250 50 0 empty empty empty 17 7 0 10 -262144
-1 -1;
#X obj -258 113 openpanel;
#X obj -258 313 soundfiler;
#X floatatom -258 363 20 0 0 0 - - -;
#X text -239 72 Bang to select sample;
#X obj -258 395 outlet maxl;
#X obj -258 40 inlet bangToSelect;
#X msg -258 258 read -resize \$1 \$2-sample;
#X obj -141 133 loadbang;
#X obj -258 221 pack s f;
#X obj -55 163 bng 15 250 50 0 empty empty empty 17 7 0 10 -262144
-1 -1;
#X obj -181 188 f \$0;
#X connect 0 0 1 0;
#X connect 1 0 9 0;
#X connect 2 0 3 0;
#X connect 3 0 5 0;
#X connect 6 0 0 0;
#X connect 7 0 2 0;
#X connect 8 0 11 0;
#X connect 9 0 7 0;
#X connect 10 0 11 0;
#X connect 11 0 9 1;
#X restore 215 333 pd bangToSelectSample;
#X obj -850 401 hsl 795 16 0 1 0 0 empty empty empty -2 -8 0 10 -262144
-4160 -4160 4962 1;
#X text -51 399 samp start;
#X obj -1102 197 r \$0-currentPosition;
#X floatatom -537 983 15 0 0 0 - - -;
#X floatatom -87 972 15 0 0 0 - - -;
#X floatatom -114 1165 15 0 0 0 - - -;
#X floatatom 124 972 15 0 0 0 - - -;
#X obj 577 884 bng 15 250 50 0 empty empty empty 17 7 0 10 -262144
-1 -1;
#X text 522 863 start from loop;
#X obj 380 880 bng 15 250 50 0 empty empty empty 17 7 0 10 -262144
-1 -1;
#X text 325 862 start from sample;
#X floatatom -979 974 15 0 0 0 - - -;
#X floatatom -350 1159 15 0 0 0 - - -;
#X floatatom -770 976 15 0 0 0 - - -;
#X floatatom -323 980 15 0 0 0 - - -;
#N canvas 163 21 1110 907 player 0;
#X obj 699 526 inlet fromSMP;
#X obj 575 212 inlet LengthSMP;
#X obj 350 91 inlet LengthMS;
#X obj 85 40 inlet StartStop;
#X obj 85 115 route start stop;
#X obj 163 170 bng 15 250 50 0 empty empty empty 17 7 0 10 -262144
-1 -1;
#X obj 452 838 outlet~;
#X floatatom 203 797 5 0 0 0 - - -;
#X obj 575 481 - 3;
#X obj 451 682 +~ 1;
#X obj 453 770 +~;
#X obj 575 450 line;
#X msg 575 420 \$1 3;
#X msg 163 203 0;
#X obj 452 591 expr~ $v1 * ($f2) + ($f3);
#X obj 203 834 s \$0-currentPosition;
#N canvas 665 204 815 620 calcPos 0;
#X obj -203 387 outlet;
#X obj -203 175 metro 0.1;
#X obj -203 310 snapshot~;
#X obj -203 130 loadbang;
#X floatatom -203 347 5 0 0 0 - - -;
#X obj -159 270 /~;
#X obj -159 216 inlet~;
#X obj -89 217 inlet maxl;
#X connect 1 0 2 0;
#X connect 2 0 4 0;
#X connect 3 0 1 0;
#X connect 4 0 0 0;
#X connect 5 0 2 0;
#X connect 6 0 5 0;
#X connect 7 0 5 1;
#X restore 203 754 pd calcPos;
#X floatatom 575 374 15 0 0 0 - - -;
#X obj 452 528 vline~;
#X obj 267 294 metro;
#X msg 452 466 1 \$1;
#X obj 452 362 t b b;
#X msg 510 465 0 0;
#X obj 267 244 t b f;
#X floatatom 452 424 5 0 0 0 - - -;
#X obj 267 351 bng 15 250 50 0 empty empty empty 17 7 0 10 -262144
-1 -1;
#X msg 163 401 stop;
#X obj 267 383 s \$0-cycleStartBang;
#X obj 452 718 tabread4~ \$0-sample;
#X obj 300 719 r \$0-maxl;
#X connect 0 0 14 2;
#X connect 1 0 17 0;
#X connect 2 0 23 0;
#X connect 2 0 24 0;
#X connect 3 0 4 0;
#X connect 4 1 5 0;
#X connect 5 0 13 0;
#X connect 5 0 26 0;
#X connect 7 0 15 0;
#X connect 8 0 14 1;
#X connect 9 0 28 0;
#X connect 10 0 6 0;
#X connect 11 0 8 0;
#X connect 12 0 11 0;
#X connect 13 0 19 0;
#X connect 14 0 9 0;
#X connect 14 0 16 0;
#X connect 16 0 7 0;
#X connect 17 0 12 0;
#X connect 18 0 14 0;
#X connect 19 0 21 0;
#X connect 19 0 25 0;
#X connect 20 0 18 0;
#X connect 21 0 24 0;
#X connect 21 1 22 0;
#X connect 22 0 18 0;
#X connect 23 0 19 0;
#X connect 23 1 19 1;
#X connect 24 0 20 0;
#X connect 25 0 27 0;
#X connect 26 0 18 0;
#X connect 28 0 10 0;
#X connect 29 0 16 1;
#X restore -408 1295 pd player;
#X msg 248 138 start;
#X msg 195 137 stop;
#X floatatom -620 1158 15 0 0 0 - - -;
#N canvas 544 254 1051 645 selectIntroOrLoop 0;
#X obj 307 413 bng 15 250 50 0 empty empty empty 17 7 0 10 -262144
-1 -1;
#X obj 274 416 bng 15 250 50 0 empty empty empty 17 7 0 10 -262144
-1 -1;
#X obj 542 211 bng 15 250 50 0 empty empty empty 17 7 0 10 -262144
-1 -1;
#X msg 341 235 goto 0;
#X obj 307 280 counter;
#X floatatom 307 327 5 0 0 0 - - -;
#X obj 274 142 t b b b;
#X obj 307 361 select 2;
#X obj 274 108 route start stop;
#X obj 352 142 t b b;
#X obj 274 512 outlet startSample;
#X obj 307 481 outlet startLoop;
#X obj 273 68 r \$0-transport;
#X obj 542 162 r \$0-cycleStartBang;
#X connect 0 0 11 0;
#X connect 1 0 10 0;
#X connect 2 0 4 0;
#X connect 3 0 4 0;
#X connect 4 0 5 0;
#X connect 5 0 7 0;
#X connect 6 0 1 0;
#X connect 6 1 4 0;
#X connect 6 2 3 0;
#X connect 7 0 0 0;
#X connect 8 0 6 0;
#X connect 8 1 9 0;
#X connect 9 0 4 0;
#X connect 9 1 3 0;
#X connect 12 0 8 0;
#X connect 13 0 2 0;
#X restore 380 838 pd selectIntroOrLoop;
#X text -334 1184 Length in smp;
#X text -642 1198 sets how fast to play;
#X text -114 1207 sets from where to play;
#X text -363 1205 sets where to stop;
#X text -110 1188 startpoint in smp;
#X obj 172 92 inlet transport;
#X obj -409 1342 outlet~;
#X obj -106 -2 inlet bpm;
#X obj -836 610 s \$0-loopLengthSMP;
#X obj -979 933 r \$0-loopLengthMS;
#X obj -640 610 s \$0-loopLengthMS;
#X obj -537 929 r \$0-loopLengthSMP;
#X obj -770 930 r \$0-introLengthMS;
#X obj -323 929 r \$0-introLengthSMP;
#X obj -87 928 r \$0-loopStartSMP;
#X obj 133 608 s \$0-introLengthSMP;
#X obj -69 608 s \$0-introLengthMS;
#X obj -458 610 s \$0-loopStartSMP;
#X obj 215 407 s \$0-maxl;
#X obj 172 179 s \$0-transport;
#X obj -1128 40 r \$0-maxl;
#X obj -816 1193 r \$0-transport;
#X obj -852 92 0_length_ivo;
#X obj 380 961 s \$0-startFromWhere;
#X obj -1130 747 r \$0-startFromWhere;
#X obj -1049 833 route 1 2;
#X obj -797 898 bng 15 250 50 0 empty empty empty 17 7 0 10 -262144
-1 -1;
#X obj -1006 898 bng 15 250 50 0 empty empty empty 17 7 0 10 -262144
-1 -1;
#X obj -620 799 r \$0-startFromWhere;
#X obj -607 844 route 1 2;
#X obj -350 899 bng 15 250 50 0 empty empty empty 17 7 0 10 -262144
-1 -1;
#X obj -564 897 bng 15 250 50 0 empty empty empty 17 7 0 10 -262144
-1 -1;
#X obj -170 800 r \$0-startFromWhere;
#X obj -157 845 route 1 2;
#X obj 97 894 bng 15 250 50 0 empty empty empty 17 7 0 10 -262144 -1
-1;
#X obj -114 892 bng 15 250 50 0 empty empty empty 17 7 0 10 -262144
-1 -1;
#X msg 380 919 1;
#X msg 578 914 2;
#X obj -948 1100 switch;
#X floatatom -1083 1057 5 0 0 0 - - -;
#X obj -1130 787 t i i;
#X obj 133 569 f;
#X obj -69 570 f;
#X obj -273 569 f;
#X obj -458 569 f;
#X obj -640 569 f;
#X obj -836 569 f;
#X text -24 260;
#X obj -40 324 bng 30 250 50 0 \$0-updateLoop empty Update 0 -7 0 20
-260097 -1 -1;
#X text 392 383;
#X obj 215 289 bng 30 250 50 0 empty \$0-bangToSelectSample Select
0 -7 0 20 -4032 -1 -1;
#X obj 110 432 bng 30 250 50 0 empty \$0-updateLoop Update 0 -7 0 20
-260097 -1 -1;
#X floatatom -456 10 5 0 0 0 - #0-sendOriginalBPM -;
#X text -455 32 orig. bpm;
#X floatatom -44 147 5 0 0 3 Playback_BPM #0-playbackBPM -;
#N canvas 738 120 626 739 selectOut 0;
#X obj 223 57 inlet;
#X obj 223 95 bng 15 250 50 0 empty empty empty 17 7 0 10 -262144 -1
-1;
#X obj 324 57 r \$0-startFromWhere;
#X floatatom 324 109 5 0 2 0 - - -;
#X obj 267 307 spigot;
#X obj 70 472 outlet loop;
#X obj 267 467 outlet intro;
#X obj 267 428 bng 15 250 50 0 empty empty empty 17 7 0 10 -262144
-1 -1;
#X obj 70 433 bng 15 250 50 0 empty empty empty 17 7 0 10 -262144 -1
-1;
#X obj 324 146 select 1 2;
#X msg 324 246 1;
#X msg 372 246 0;
#X obj 372 308 tgl 15 0 empty empty empty 17 7 0 10 -262144 -1 -1 1
1;
#X obj 70 312 spigot;
#X msg 127 251 1;
#X msg 175 251 0;
#X obj 175 313 tgl 15 0 empty empty empty 17 7 0 10 -262144 -1 -1 1
1;
#X obj 465 108 r \$0-transport;
#X obj 465 181 bng 15 250 50 0 empty empty empty 17 7 0 10 -262144
-1 -1;
#X obj 465 150 route stop;
#X connect 0 0 1 0;
#X connect 1 0 4 0;
#X connect 1 0 13 0;
#X connect 2 0 3 0;
#X connect 3 0 9 0;
#X connect 4 0 7 0;
#X connect 7 0 6 0;
#X connect 8 0 5 0;
#X connect 9 0 10 0;
#X connect 9 0 15 0;
#X connect 9 1 11 0;
#X connect 9 1 14 0;
#X connect 10 0 4 1;
#X connect 10 0 12 0;
#X connect 11 0 4 1;
#X connect 11 0 12 0;
#X connect 13 0 8 0;
#X connect 14 0 13 1;
#X connect 14 0 16 0;
#X connect 15 0 13 1;
#X connect 15 0 16 0;
#X connect 17 0 19 0;
#X connect 18 0 10 0;
#X connect 18 0 14 0;
#X connect 19 0 18 0;
#X restore 110 472 pd selectOut;
#X obj -273 609 s \$0-introStartSMP;
#X obj 124 926 r \$0-introStartSMP;
#X obj -350 1025 f;
#X obj -564 1027 f;
#X obj -797 1025 f;
#X obj -1006 1016 f;
#X obj 97 1027 f;
#X obj -114 1029 f;
#X connect 3 0 53 0;
#X connect 10 0 30 2;
#X connect 13 0 5 0;
#X connect 13 1 6 0;
#X connect 13 2 15 0;
#X connect 14 0 3 0;
#X connect 17 0 4 0;
#X connect 18 0 94 1;
#X connect 19 0 98 1;
#X connect 20 0 30 3;
#X connect 21 0 97 1;
#X connect 22 0 72 0;
#X connect 24 0 71 0;
#X connect 26 0 96 1;
#X connect 27 0 10 0;
#X connect 28 0 95 1;
#X connect 29 0 93 1;
#X connect 30 0 41 0;
#X connect 31 0 54 0;
#X connect 32 0 54 0;
#X connect 33 0 30 1;
#X connect 34 0 24 0;
#X connect 34 1 22 0;
#X connect 40 0 54 0;
#X connect 42 0 0 0;
#X connect 44 0 26 0;
#X connect 46 0 18 0;
#X connect 47 0 28 0;
#X connect 48 0 29 0;
#X connect 49 0 19 0;
#X connect 55 0 57 0;
#X connect 56 0 30 0;
#X connect 57 0 81 1;
#X connect 57 1 80 1;
#X connect 57 2 79 1;
#X connect 57 3 78 1;
#X connect 57 4 77 1;
#X connect 57 5 76 1;
#X connect 59 0 75 0;
#X connect 60 0 61 0;
#X connect 60 1 62 0;
#X connect 61 0 95 0;
#X connect 62 0 96 0;
#X connect 63 0 64 0;
#X connect 64 0 65 0;
#X connect 64 1 66 0;
#X connect 65 0 93 0;
#X connect 66 0 94 0;
#X connect 67 0 68 0;
#X connect 68 0 69 0;
#X connect 68 1 70 0;
#X connect 69 0 97 0;
#X connect 70 0 98 0;
#X connect 71 0 58 0;
#X connect 72 0 58 0;
#X connect 73 0 33 0;
#X connect 74 0 73 0;
#X connect 75 0 60 0;
#X connect 75 1 74 0;
#X connect 76 0 50 0;
#X connect 77 0 51 0;
#X connect 78 0 91 0;
#X connect 79 0 52 0;
#X connect 80 0 45 0;
#X connect 81 0 43 0;
#X connect 85 0 14 0;
#X connect 86 0 90 0;
#X connect 87 0 57 1;
#X connect 89 0 57 2;
#X connect 90 0 81 0;
#X connect 90 0 80 0;
#X connect 90 0 79 0;
#X connect 90 1 77 0;
#X connect 90 1 76 0;
#X connect 90 1 78 0;
#X connect 92 0 21 0;
#X connect 93 0 27 0;
#X connect 94 0 27 0;
#X connect 95 0 73 1;
#X connect 96 0 73 2;
#X connect 97 0 20 0;
#X connect 98 0 20 0;
#X coords 0 -1 1 1 945 400 1 -865 65;
