#N canvas 2015 23 1611 936 16;
#X floatatom -270 23 5 0 0 0 - - #0-playbackBPM;
#X obj -218 130 bng 30 250 50 0 \$0-bangToSelectSample empty Select
35 15 0 20 -4032 -1 -1;
#N canvas 0 0 450 300 (subpatch) 0;
#X array \$0-sample 588000 float 2;
#X coords 0 1 588000 -1 761 140 2 0 0;
#X restore -865 191 graph;
#X floatatom -55 350 20 0 0 0 - - -;
#X obj -862 191 hsl 756 144 0 1 0 0 empty empty empty -2 -8 0 10 -262144
-4032 -1 25085 1;
#X obj -862 386 hsl 756 16 0 1 0 0 empty empty loop_start -2 -8 0 10
-262144 -4034 -1 11797 1;
#X obj -862 420 hsl 756 16 0 1 0 0 empty empty loop_end -2 -8 0 10
-262144 -258113 -1 30672 1;
#X floatatom -596 134 5 0 0 1 original_BPM - #0-sendOriginalBPM;
#X text -878 28 length of sample;
#X obj -305 1001 - 3;
#N canvas 451 348 1031 496 drawGraphs 0;
#X obj 173 411 outlet loopStart;
#X obj 360 412 outlet loopEnd;
#X obj 173 204 t b f;
#X obj 173 311 /;
#X obj 440 228 t b f;
#X obj 360 304 expr ($f1 + $f3) / $f2;
#X obj 605 247 t b f;
#X obj 605 304 /;
#X obj 605 411 outlet sampleStartPoint;
#X obj 360 55 r \$0-loopLengthSMP;
#X obj 439 105 r \$0-loopStartSMP;
#X obj 173 92 r \$0-maxl;
#X obj 690 106 r \$0-introStartSMP;
#X connect 2 0 3 0;
#X connect 2 0 5 0;
#X connect 2 1 3 1;
#X connect 2 1 5 1;
#X connect 3 0 0 0;
#X connect 4 0 5 0;
#X connect 4 1 5 2;
#X connect 5 0 1 0;
#X connect 6 0 7 0;
#X connect 6 1 7 1;
#X connect 7 0 8 0;
#X connect 9 0 5 0;
#X connect 10 0 3 0;
#X connect 10 0 4 0;
#X connect 11 0 2 0;
#X connect 11 0 6 0;
#X connect 12 0 7 0;
#X restore -1019 373 pd drawGraphs;
#N canvas 2736 288 512 524 bangToSelectSample 0;
#X obj -258 73 bng 15 250 50 0 empty empty empty 17 7 0 10 -262144
-1 -1;
#X obj -258 113 openpanel;
#X obj -258 313 soundfiler;
#X floatatom -258 363 20 0 0 0 - - -;
#X text -239 72 Bang to select sample;
#X obj -258 395 outlet maxl;
#X obj -258 40 inlet bangToSelect;
#X msg -258 258 read -resize \$1 \$2-sample;
#X obj -141 133 loadbang;
#X obj -258 221 pack s f;
#X obj -55 163 bng 15 250 50 0 empty empty empty 17 7 0 10 -262144
-1 -1;
#X obj -181 188 f \$0;
#X connect 0 0 1 0;
#X connect 1 0 9 0;
#X connect 2 0 3 0;
#X connect 3 0 5 0;
#X connect 6 0 0 0;
#X connect 7 0 2 0;
#X connect 8 0 11 0;
#X connect 9 0 7 0;
#X connect 10 0 11 0;
#X connect 11 0 9 1;
#X restore -55 308 pd bangToSelectSample;
#X obj -862 352 hsl 756 16 0 1 0 0 empty empty sample_start -2 -8 0
10 -262144 -4160 -4160 7078 1;
#X obj -1086 268 r \$0-currentPosition;
#X floatatom -371 682 15 0 0 0 - - -;
#X floatatom 45 674 15 0 0 0 - - -;
#X floatatom -67 920 15 0 0 3 startpoint_in_smp - -;
#X floatatom -161 675 15 0 0 0 - - -;
#X obj 106 123 bng 15 250 50 0 empty empty start_from_sample 5 20 0
10 -262144 -1 -1;
#X floatatom -810 809 15 0 0 0 - - -;
#X floatatom -305 921 15 0 0 3 Length_in_smp - -;
#X floatatom -901 702 15 0 0 0 - - -;
#X floatatom -580 679 15 0 0 0 - - -;
#N canvas 470 33 1110 907 player 0;
#X obj 814 670 inlet fromSMP;
#X obj 690 526 inlet LengthSMP;
#X obj 567 982 outlet~;
#X floatatom 318 941 5 0 0 0 - - -;
#X obj 690 685 - 3;
#X obj 566 826 +~ 1;
#X obj 568 914 +~;
#X obj 690 654 line;
#X msg 690 624 \$1 3;
#X obj 567 735 expr~ $v1 * ($f2) + ($f3);
#X obj 318 978 s \$0-currentPosition;
#N canvas 665 204 302 507 calcPos 0;
#X obj -203 387 outlet;
#X obj -203 310 snapshot~;
#X floatatom -203 347 5 0 0 0 - - -;
#X obj -159 270 /~;
#X obj -159 216 inlet~;
#X obj -89 217 inlet maxl;
#X obj -95 187 bng 15 250 50 0 empty empty empty 17 7 0 10 -262144
-1 -1;
#X obj -203 143 r 96thClockTick;
#X connect 1 0 2 0;
#X connect 2 0 0 0;
#X connect 3 0 1 0;
#X connect 4 0 3 0;
#X connect 5 0 3 1;
#X connect 7 0 1 0;
#X connect 7 0 6 0;
#X restore 318 898 pd calcPos;
#X floatatom 690 578 15 0 0 0 - - -;
#X obj 567 862 tabread4~ \$0-sample;
#X obj 415 863 r \$0-maxl;
#X obj 568 102 inlet LengthMS;
#X obj 363 -59 inlet StartStop;
#X obj 568 206 phasor~;
#X obj 568 154 expr 1000/$f1;
#X obj 691 412 edge~;
#X obj 691 447 bng 15 250 50 0 empty empty empty 17 7 0 10 -262144
-1 -1;
#X obj 690 372 expr~ $v1<0.5;
#X obj 691 476 s \$0-cycleStartBang;
#X obj 363 28 bng 15 250 50 0 empty empty empty 17 7 0 10 -262144 -1
-1;
#X obj 441 28 bng 15 250 50 0 empty empty empty 17 7 0 10 -262144 -1
-1;
#X obj 363 -9 route start stop;
#X obj 363 57 t b b;
#X obj 568 288 spigot~;
#X msg 410 111 0;
#X obj 441 247 tgl 15 0 empty empty empty 17 7 0 10 -262144 -1 -1 1
1;
#X msg 363 210 0;
#X msg 441 56 1;
#X connect 0 0 9 2;
#X connect 1 0 12 0;
#X connect 3 0 10 0;
#X connect 4 0 9 1;
#X connect 5 0 13 0;
#X connect 6 0 2 0;
#X connect 7 0 4 0;
#X connect 8 0 7 0;
#X connect 9 0 5 0;
#X connect 9 0 11 0;
#X connect 11 0 3 0;
#X connect 12 0 8 0;
#X connect 13 0 6 0;
#X connect 14 0 11 1;
#X connect 15 0 18 0;
#X connect 16 0 25 0;
#X connect 17 0 27 0;
#X connect 18 0 17 0;
#X connect 19 0 20 0;
#X connect 20 0 22 0;
#X connect 21 0 19 0;
#X connect 23 0 26 0;
#X connect 24 0 31 0;
#X connect 25 0 23 0;
#X connect 25 1 24 0;
#X connect 26 0 30 0;
#X connect 26 1 28 0;
#X connect 27 0 9 0;
#X connect 27 0 21 0;
#X connect 28 0 17 1;
#X connect 29 0 27 1;
#X connect 30 0 29 0;
#X connect 31 0 29 0;
#X restore -363 1057 pd player;
#X msg -50 160 start;
#X msg 28 160 stop;
#X floatatom -575 920 15 0 0 3 Length_in_ms - -;
#N canvas 713 133 781 642 selectIntroOrLoop 0;
#X obj 406 510 bng 15 250 50 0 empty empty empty 17 7 0 10 -262144
-1 -1;
#X obj 136 161 bng 15 250 50 0 empty empty empty 17 7 0 10 -262144
-1 -1;
#X obj 554 187 bng 15 250 50 0 empty empty empty 17 7 0 10 -262144
-1 -1;
#X msg 453 173 goto 0;
#X obj 406 235 counter;
#X floatatom 406 272 5 0 0 0 - - -;
#X obj 136 107 t b b b;
#X obj 136 73 route start stop;
#X obj 406 111 t b b;
#X obj 100 552 outlet startSample;
#X obj 406 556 outlet startLoop;
#X obj 136 33 r \$0-transport;
#X obj 554 138 r \$0-cycleStartBang;
#X obj 406 299 select 1;
#X obj 157 275 r \$0-noIntro;
#X obj 100 480 spigot;
#X floatatom 157 314 5 0 0 0 - - -;
#X obj 100 511 bng 15 250 50 0 empty empty empty 17 7 0 10 -262144
-1 -1;
#X floatatom 193 383 5 0 0 0 - - -;
#X obj 193 351 expr abs(($f1-1)*-1);
#X obj 136 432 spigot;
#X text 5 406 if no intro \, start loop immediately;
#X connect 0 0 10 0;
#X connect 1 0 15 0;
#X connect 1 0 20 0;
#X connect 2 0 4 0;
#X connect 3 0 4 0;
#X connect 4 0 5 0;
#X connect 5 0 13 0;
#X connect 6 0 1 0;
#X connect 6 1 4 0;
#X connect 6 2 3 0;
#X connect 7 0 6 0;
#X connect 7 1 8 0;
#X connect 8 0 4 0;
#X connect 8 1 3 0;
#X connect 11 0 7 0;
#X connect 12 0 2 0;
#X connect 13 0 0 0;
#X connect 14 0 16 0;
#X connect 15 0 17 0;
#X connect 16 0 15 1;
#X connect 16 0 19 0;
#X connect 17 0 9 0;
#X connect 18 0 20 1;
#X connect 19 0 18 0;
#X connect 20 0 0 0;
#X restore 106 91 pd selectIntroOrLoop;
#X text -600 962 sets how fast to play;
#X text -70 961 sets from where to play;
#X text -306 962 sets where to stop;
#X obj -64 90 inlet transport;
#X obj -364 1104 outlet~;
#X obj -270 -15 inlet bpm;
#X obj -923 499 s \$0-loopLengthSMP;
#X obj -802 768 r \$0-loopLengthMS;
#X obj -727 499 s \$0-loopLengthMS;
#X obj -371 628 r \$0-loopLengthSMP;
#X obj -894 656 r \$0-introLengthMS;
#X obj -580 628 r \$0-introLengthSMP;
#X obj 45 630 r \$0-loopStartSMP;
#X obj 46 497 s \$0-introLengthSMP;
#X obj -156 497 s \$0-introLengthMS;
#X obj -545 499 s \$0-loopStartSMP;
#X obj -55 382 s \$0-maxl;
#X obj -64 195 s \$0-transport;
#X obj -865 7 r \$0-maxl;
#X obj -832 941 r \$0-transport;
#X obj -865 65 0_length_ivo;
#X obj 106 196 s \$0-startFromWhere;
#X msg 106 157 1;
#X msg 303 155 2;
#X obj -55 264 bng 30 250 50 0 empty \$0-bangToSelectSample Select
0 -7 0 20 -4032 -1 -1;
#X floatatom -488 7 5 0 0 0 - #0-sendOriginalBPM -;
#X text -487 29 orig. bpm;
#X floatatom -401 134 5 0 0 1 Playback_BPM #0-playbackBPM -;
#X obj -360 498 s \$0-introStartSMP;
#X obj -161 629 r \$0-introStartSMP;
#X obj 303 125 bng 15 250 50 0 empty empty start_from_loop 5 20 0 10
-262144 -1 -1;
#N canvas 691 269 700 547 selectStart 0;
#X obj -453 15 r \$0-startFromWhere;
#X obj -453 75 route 1 2;
#X obj -453 113 bng 15 250 50 0 empty empty empty 17 7 0 10 -262144
-1 -1;
#X obj -410 112 bng 15 250 50 0 empty empty empty 17 7 0 10 -262144
-1 -1;
#X obj -511 217 outlet fromIntro;
#X obj -324 213 outlet fromLoop;
#X connect 0 0 1 0;
#X connect 1 0 2 0;
#X connect 1 1 3 0;
#X connect 2 0 4 0;
#X connect 3 0 5 0;
#X restore -901 579 pd selectStart;
#N canvas 691 269 700 547 selectStart 0;
#X obj -453 15 r \$0-startFromWhere;
#X obj -453 75 route 1 2;
#X obj -453 113 bng 15 250 50 0 empty empty empty 17 7 0 10 -262144
-1 -1;
#X obj -410 112 bng 15 250 50 0 empty empty empty 17 7 0 10 -262144
-1 -1;
#X obj -511 217 outlet fromIntro;
#X obj -324 213 outlet fromLoop;
#X connect 0 0 1 0;
#X connect 1 0 2 0;
#X connect 1 1 3 0;
#X connect 2 0 4 0;
#X connect 3 0 5 0;
#X restore -543 581 pd selectStart;
#N canvas 691 269 700 547 selectStart 0;
#X obj -453 15 r \$0-startFromWhere;
#X obj -453 75 route 1 2;
#X obj -453 113 bng 15 250 50 0 empty empty empty 17 7 0 10 -262144
-1 -1;
#X obj -410 112 bng 15 250 50 0 empty empty empty 17 7 0 10 -262144
-1 -1;
#X obj -511 217 outlet fromIntro;
#X obj -324 213 outlet fromLoop;
#X connect 0 0 1 0;
#X connect 1 0 2 0;
#X connect 1 1 3 0;
#X connect 2 0 4 0;
#X connect 3 0 5 0;
#X restore -133 591 pd selectStart;
#X obj -901 617 t b b;
#X obj -810 736 t b b;
#N canvas 927 328 576 470 superSwitch 0;
#X obj 53 59 inlet;
#X obj 134 59 inlet;
#X obj 222 58 inlet;
#X obj 324 59 inlet;
#X floatatom 224 300 5 0 0 0 - - -;
#X obj 35 165 loadbang;
#X msg 134 219 1;
#X msg 324 217 2;
#X obj 224 347 switch;
#X obj 224 411 outlet;
#X connect 0 0 8 1;
#X connect 1 0 6 0;
#X connect 2 0 8 2;
#X connect 3 0 7 0;
#X connect 4 0 8 0;
#X connect 5 0 6 0;
#X connect 6 0 4 0;
#X connect 7 0 4 0;
#X connect 8 0 9 0;
#X restore -901 858 pd superSwitch;
#N canvas 1168 449 450 300 setNoIntro 0;
#X obj 81 54 inlet;
#X obj 153 56 inlet;
#X floatatom 153 195 5 0 0 0 - - -;
#X obj 153 122 t b f;
#X obj 153 234 s \$0-noIntro;
#X obj 153 157 !=;
#X connect 0 0 5 0;
#X connect 1 0 3 0;
#X connect 2 0 4 0;
#X connect 3 0 5 0;
#X connect 3 1 5 1;
#X connect 5 0 2 0;
#X restore -82 734 pd setNoIntro;
#X obj 28 124 bng 20 250 50 0 empty empty Stop 25 10 0 15 -258113 -1
-1;
#X obj -50 125 bng 20 250 50 0 empty empty Start 22 10 0 15 -4034 -1
-1;
#X connect 3 0 44 0;
#X connect 9 0 23 2;
#X connect 10 0 5 0;
#X connect 10 1 6 0;
#X connect 10 2 12 0;
#X connect 11 0 3 0;
#X connect 13 0 4 0;
#X connect 14 0 20 0;
#X connect 15 0 16 0;
#X connect 15 0 65 1;
#X connect 16 0 23 3;
#X connect 17 0 16 0;
#X connect 17 0 65 0;
#X connect 18 0 50 0;
#X connect 19 0 64 2;
#X connect 20 0 9 0;
#X connect 21 0 64 0;
#X connect 22 0 20 0;
#X connect 23 0 32 0;
#X connect 24 0 45 0;
#X connect 25 0 45 0;
#X connect 26 0 23 1;
#X connect 27 0 18 0;
#X connect 27 1 58 0;
#X connect 31 0 45 0;
#X connect 33 0 0 0;
#X connect 35 0 19 0;
#X connect 37 0 14 0;
#X connect 38 0 21 0;
#X connect 39 0 22 0;
#X connect 40 0 15 0;
#X connect 46 0 48 0;
#X connect 47 0 23 0;
#X connect 48 0 34 0;
#X connect 48 1 36 0;
#X connect 48 2 43 0;
#X connect 48 3 56 0;
#X connect 48 4 42 0;
#X connect 48 5 41 0;
#X connect 50 0 49 0;
#X connect 51 0 49 0;
#X connect 52 0 11 0;
#X connect 53 0 48 1;
#X connect 55 0 48 2;
#X connect 57 0 17 0;
#X connect 58 0 51 0;
#X connect 59 0 62 0;
#X connect 59 1 63 0;
#X connect 60 0 22 0;
#X connect 60 1 14 0;
#X connect 61 0 17 0;
#X connect 61 1 15 0;
#X connect 62 0 21 0;
#X connect 62 1 64 1;
#X connect 63 0 19 0;
#X connect 63 1 64 3;
#X connect 64 0 26 0;
#X connect 66 0 25 0;
#X connect 67 0 24 0;
#X coords 0 -1 1 1 761 371 2 -865 65;
