#N canvas 2064 133 1459 747 10;
#X obj -90 -243 inlet;
#X floatatom 62 -117 15 0 0 3 length_of_a_bar_in_ms - -;
#X obj -234 -315 inlet;
#X obj -207 -195 / 44.1;
#X floatatom -90 -206 5 0 0 1 samples_original_bpm - -;
#X floatatom -207 -166 15 0 0 0 - - -;
#X text -253 -150 length of sample in ms;
#X floatatom -90 -118 15 0 0 3 length_of_a_16th_in_ms - -;
#X obj -207 8 /;
#X floatatom -207 37 5 0 0 1 number_of_16th_in_sample - -;
#X obj -113 220 *;
#X obj -113 175 t b f;
#X floatatom -113 282 15 0 0 3 looplengthInSMP - -;
#X obj -113 246 * 44.1;
#X obj -234 -254 t b f;
#X floatatom 95 76 5 0 0 1 beats - -;
#X obj -219 -33 t b f;
#X floatatom 13 76 5 0 0 1 bars - -;
#X floatatom 183 76 5 0 0 1 16th - -;
#X obj 340 226 t b f;
#X obj 256 258 expr $f1 * $f2*44.1;
#N canvas 2172 80 1263 902 loopSet 0;
#X obj -588 -487 inlet #of16th;
#X obj -588 -146 counter;
#X obj -447 -304 bng 15 250 50 0 empty empty empty 17 7 0 10 -262144
-1 -1;
#X floatatom 410 127 5 0 0 3 bars - -;
#X obj -364 -302 bng 15 250 50 0 empty empty empty 17 7 0 10 -262144
-1 -1;
#X msg -364 -278 dec;
#X msg -447 -279 inc;
#X obj -588 -450 / 16;
#X msg -588 -282 jam \$1;
#X obj -588 -418 i;
#X floatatom -588 -391 5 0 0 0 - - -;
#X obj -638 -204 i;
#X msg -638 -176 jam \$1;
#X text 32 -329 -;
#X obj -99 -156 counter;
#X obj -78 -330 bng 15 250 50 0 empty empty empty 17 7 0 10 -262144
-1 -1;
#X floatatom 495 127 5 0 3 3 beats - -;
#X obj 15 -329 bng 15 250 50 0 empty empty empty 17 7 0 10 -262144
-1 -1;
#X msg 15 -249 dec;
#X msg -78 -249 inc;
#X msg -238 -228 jam \$1;
#X floatatom -238 -305 5 0 0 0 - - -;
#X obj -238 -385 / 4;
#X obj -238 -338 expr $i1 - $i2 * 4;
#X text -199 -305 beats;
#X obj -169 -258 t b;
#X msg -169 -228 max 3;
#X text -250 -14 overflow;
#X obj -271 -14 bng 15 250 50 0 empty empty empty 17 7 0 10 -262144
-1 -1;
#X obj -271 -99 spigot;
#X msg -238 -137 0;
#X msg -207 -136 1;
#X obj -271 -58 sel 0;
#X text -60 -121 beats;
#X text 21 -8 underflow;
#X obj -1 -11 bng 15 250 50 0 empty empty empty 17 7 0 10 -262144 -1
-1;
#X obj -1 -102 spigot;
#X msg 32 -141 0;
#X msg 63 -140 1;
#X obj -1 -48 sel 3;
#X floatatom 207 -372 5 0 0 0 - - -;
#X msg 549 -347 dec;
#X msg 454 -342 inc;
#X msg 207 -321 jam \$1;
#X floatatom 582 127 5 0 0 3 16th - -;
#X text 248 -371 16th;
#X obj 207 -402 expr $i1 - ($i1/4)*4;
#X text 240 -137 overflow;
#X text 470 -134 underflow;
#X obj 448 -137 bng 15 250 50 0 empty empty empty 17 7 0 10 -262144
-1 -1;
#X obj 219 -137 bng 15 250 50 0 empty empty empty 17 7 0 10 -262144
-1 -1;
#X obj 454 -427 bng 15 250 50 0 empty empty empty 17 7 0 10 -262144
-1 -1;
#X obj 549 -427 bng 15 250 50 0 empty empty empty 17 7 0 10 -262144
-1 -1;
#X obj 219 -209 spigot;
#X msg 207 -237 0;
#X msg 252 -238 1;
#X obj 448 -212 spigot;
#X msg 481 -252 0;
#X msg 576 -253 1;
#X obj 219 -172 sel 0;
#X obj 448 -172 sel 3;
#X obj 331 -209 counter 0 3;
#X obj 450 118 bng 15 250 50 0 empty empty + 20 7 0 10 -262144 -1 -1
;
#X obj 450 138 bng 15 250 50 0 empty empty - 20 7 0 10 -262144 -1 -1
;
#X obj 535 118 bng 15 250 50 0 empty empty + 20 7 0 10 -262144 -1 -1
;
#X obj 535 138 bng 15 250 50 0 empty empty - 20 7 0 10 -262144 -1 -1
;
#X obj 620 118 bng 15 250 50 0 empty empty + 20 7 0 10 -262144 -1 -1
;
#X obj 620 138 bng 15 250 50 0 empty empty - 20 7 0 10 -262144 -1 -1
;
#X text -549 -391 bars;
#X floatatom 405 429 5 0 0 0 - - -;
#X obj 540 384 expr $i1*16 + $i2*4 + $i3;
#X floatatom 540 443 5 0 0 0 - - -;
#X text 575 445 # of 16th in loop;
#X floatatom 405 515 15 0 0 0 - - -;
#X obj 405 470 expr (15000 / $f1)* $f2;
#X text 414 533 loopdauer in ms bei angegebenen bpm;
#X obj 513 411 t b f;
#X text 340 389 bpm input;
#X obj 586 332 t b i;
#X obj 660 332 t b i;
#X obj 405 389 inlet playbackBpm;
#X obj 405 570 outlet loopLengthMS;
#X obj -577 -362 outlet origBars;
#X obj -231 -280 outlet origBeats;
#X obj 222 -346 outlet orig16th;
#X obj 549 -398 t b b;
#X obj 549 -398 t b b;
#X obj 454 -398 t b b;
#X obj 15 -300 t b b;
#X obj 15 -300 t b b;
#X obj -78 -299 t b b;
#X msg -640 -281 max \$1;
#X obj -447 -330 r \$0-barUpLS;
#X obj -364 -330 r \$0-barDownLS;
#X obj -271 13 s \$0-barUpLS;
#X obj -77 -355 r \$0-beatUpLS;
#X obj 15 -357 r \$0-beatDownLS;
#X obj -1 21 s \$0-barDownLS;
#X obj 220 -109 s \$0-beatUpLS;
#X obj 454 -451 r \$0-16thUpLS;
#X obj 549 -451 r \$0-16thDownLS;
#X obj 449 -107 s \$0-beatDownLS;
#X obj 405 189 s \$0-barUpLS;
#X obj 493 180 s \$0-beatUpLS;
#X obj 598 179 s \$0-16thUpLS;
#X obj 601 207 s \$0-16thDownLS;
#X obj 496 205 s \$0-beatDownLS;
#X obj 399 213 s \$0-barDownLS;
#X obj 576 466 outlet 16thInLoopls;
#X connect 0 0 7 0;
#X connect 0 0 22 0;
#X connect 0 0 46 0;
#X connect 1 0 3 0;
#X connect 2 0 6 0;
#X connect 3 0 11 0;
#X connect 3 0 70 0;
#X connect 4 0 5 0;
#X connect 5 0 1 0;
#X connect 6 0 1 0;
#X connect 7 0 9 0;
#X connect 8 0 1 0;
#X connect 9 0 10 0;
#X connect 10 0 8 0;
#X connect 10 0 23 1;
#X connect 10 0 82 0;
#X connect 10 0 91 0;
#X connect 11 0 12 0;
#X connect 12 0 1 0;
#X connect 14 0 16 0;
#X connect 14 0 29 0;
#X connect 15 0 90 0;
#X connect 16 0 36 0;
#X connect 16 0 78 0;
#X connect 17 0 88 0;
#X connect 18 0 14 0;
#X connect 19 0 14 0;
#X connect 20 0 14 0;
#X connect 20 0 30 0;
#X connect 20 0 37 0;
#X connect 21 0 20 0;
#X connect 21 0 25 0;
#X connect 21 0 83 0;
#X connect 22 0 23 0;
#X connect 23 0 21 0;
#X connect 25 0 26 0;
#X connect 26 0 14 0;
#X connect 28 0 94 0;
#X connect 29 0 32 0;
#X connect 30 0 29 1;
#X connect 31 0 29 1;
#X connect 32 0 28 0;
#X connect 35 0 97 0;
#X connect 36 0 39 0;
#X connect 37 0 36 1;
#X connect 38 0 36 1;
#X connect 39 0 35 0;
#X connect 40 0 43 0;
#X connect 40 0 84 0;
#X connect 41 0 61 0;
#X connect 42 0 61 0;
#X connect 43 0 54 0;
#X connect 43 0 57 0;
#X connect 43 0 61 0;
#X connect 44 0 53 0;
#X connect 44 0 56 0;
#X connect 44 0 79 0;
#X connect 46 0 40 0;
#X connect 49 0 101 0;
#X connect 50 0 98 0;
#X connect 51 0 87 0;
#X connect 52 0 85 0;
#X connect 53 0 59 0;
#X connect 54 0 53 1;
#X connect 55 0 53 1;
#X connect 56 0 60 0;
#X connect 57 0 56 1;
#X connect 58 0 56 1;
#X connect 59 0 50 0;
#X connect 60 0 49 0;
#X connect 61 0 44 0;
#X connect 62 0 102 0;
#X connect 63 0 107 0;
#X connect 64 0 103 0;
#X connect 65 0 106 0;
#X connect 66 0 104 0;
#X connect 67 0 105 0;
#X connect 69 0 74 0;
#X connect 70 0 76 0;
#X connect 71 0 74 1;
#X connect 71 0 108 0;
#X connect 73 0 81 0;
#X connect 74 0 73 0;
#X connect 76 0 74 0;
#X connect 76 1 71 0;
#X connect 78 0 70 0;
#X connect 78 1 70 1;
#X connect 79 0 70 0;
#X connect 79 1 70 2;
#X connect 80 0 69 0;
#X connect 85 0 41 0;
#X connect 85 1 58 0;
#X connect 85 1 54 0;
#X connect 87 0 42 0;
#X connect 87 1 55 0;
#X connect 87 1 57 0;
#X connect 88 0 18 0;
#X connect 88 1 38 0;
#X connect 88 1 30 0;
#X connect 90 0 19 0;
#X connect 90 1 31 0;
#X connect 90 1 37 0;
#X connect 91 0 1 0;
#X connect 92 0 2 0;
#X connect 93 0 4 0;
#X connect 95 0 15 0;
#X connect 96 0 17 0;
#X connect 99 0 51 0;
#X connect 100 0 52 0;
#X coords 0 -1 1 1 250 60 1 400 100;
#X restore 0 0 pd loopSet;
#X floatatom 243 114 5 0 0 0 16th_in_loop - -;
#X obj 52 331 outlet loopLengthMS;
#N canvas 2109 68 1519 836 loopStartSet 0;
#X obj -263 -217 inlet #of16th;
#X text -439 -101 maximum of bars/beats/16ths;
#X floatatom -263 -102 5 0 0 0 - - -;
#X floatatom -124 -102 5 0 0 0 - - -;
#X floatatom 16 -102 5 0 0 0 - - -;
#X floatatom -263 -186 5 0 0 0 - - -;
#X obj -263 -160 expr $i1 / 16 \; $i1/4 - ($i1/16)*4 \; $i1 - ($i1/4
- ($i1/16)*4)*4 - ($i1 / 16) * 16 \;;
#X text -169 -217 sample länge in 16teln;
#X obj 102 -215 inlet #of16th;
#X floatatom 102 -100 5 0 0 0 - - -;
#X floatatom 241 -100 5 0 0 0 - - -;
#X floatatom 381 -100 5 0 0 0 - - -;
#X floatatom 102 -184 5 0 0 0 - - -;
#X obj 102 -158 expr $i1 / 16 \; $i1/4 - ($i1/16)*4 \; $i1 - ($i1/4
- ($i1/16)*4)*4 - ($i1 / 16) * 16 \;;
#X text 196 -215 loop länge in 16teln;
#X msg 683 406 dec;
#X msg 467 399 inc;
#X text 482 646 overflow;
#X text 658 652 underflow;
#X obj 636 649 bng 15 250 50 0 empty empty empty 17 7 0 10 -262144
-1 -1;
#X obj 461 646 bng 15 250 50 0 empty empty empty 17 7 0 10 -262144
-1 -1;
#X obj 467 336 bng 15 250 50 0 empty empty empty 17 7 0 10 -262144
-1 -1;
#X obj 683 340 bng 15 250 50 0 empty empty empty 17 7 0 10 -262144
-1 -1;
#X obj 461 574 spigot;
#X obj 636 574 spigot;
#X obj 461 611 sel 0;
#X obj 636 614 sel 3;
#X obj 548 457 counter 0 3;
#X floatatom 551 513 5 0 0 0 - - -;
#X obj 467 369 t b b;
#X msg 494 436 1;
#X msg 448 437 0;
#X msg 710 433 1;
#X msg 669 434 0;
#X obj 683 373 t b b;
#X msg 348 405 dec;
#X msg 132 398 inc;
#X text 147 645 overflow;
#X text 323 651 underflow;
#X obj 301 648 bng 15 250 50 0 empty empty empty 17 7 0 10 -262144
-1 -1;
#X obj 126 645 bng 15 250 50 0 empty empty empty 17 7 0 10 -262144
-1 -1;
#X obj 132 335 bng 15 250 50 0 empty empty empty 17 7 0 10 -262144
-1 -1;
#X obj 348 339 bng 15 250 50 0 empty empty empty 17 7 0 10 -262144
-1 -1;
#X obj 126 573 spigot;
#X obj 301 573 spigot;
#X obj 126 610 sel 0;
#X obj 301 613 sel 3;
#X floatatom 216 512 5 0 0 0 - - -;
#X obj 132 368 t b b;
#X msg 159 435 1;
#X msg 113 436 0;
#X msg 375 432 1;
#X msg 334 433 0;
#X obj 348 372 t b b;
#X msg -32 407 dec;
#X msg -248 400 inc;
#X text -233 647 overflow;
#X text -57 653 underflow;
#X obj -79 650 bng 15 250 50 0 empty empty empty 17 7 0 10 -262144
-1 -1;
#X obj -254 647 bng 15 250 50 0 empty empty empty 17 7 0 10 -262144
-1 -1;
#X obj -248 337 bng 15 250 50 0 empty empty empty 17 7 0 10 -262144
-1 -1;
#X obj -32 341 bng 15 250 50 0 empty empty empty 17 7 0 10 -262144
-1 -1;
#X obj -254 575 spigot;
#X obj -79 575 spigot;
#X obj -254 612 sel 0;
#X obj -79 615 sel 3;
#X floatatom -167 514 5 0 0 0 - - -;
#X obj -248 370 t b b;
#X msg -221 437 1;
#X msg -267 438 0;
#X msg -5 434 1;
#X msg -46 435 0;
#X obj -32 374 t b b;
#X obj -167 458 counter 0 1000;
#X floatatom -25 -19 5 0 0 0 - - -;
#X text 11 -21 anzahl der verfügbaren 16tel;
#X obj -24 -72 t b i;
#X obj -24 -45 -;
#X floatatom -25 69 5 0 0 0 - - -;
#X floatatom 114 69 5 0 0 0 - - -;
#X floatatom 254 69 5 0 0 0 - - -;
#X obj -25 8 expr $i1 / 16 \; $i1/4 - ($i1/16)*4 \; $i1 - ($i1/4 -
($i1/16)*4)*4 - ($i1 / 16) * 16 \;;
#X msg -167 298 max \$1;
#X text -246 319 +;
#X text -32 321 -;
#X text 135 318 +;
#X text 349 319 -;
#X text 469 317 +;
#X text 684 322 -;
#X obj 213 456 counter 0 3;
#X obj 53 163 expr if ($i1 == $i2 \, $i3 \, 3);
#X obj 102 134 t b i;
#X obj 177 132 t b i;
#X floatatom 213 223 5 0 0 0 - - -;
#X msg 213 247 max \$1;
#X obj 373 131 t b i;
#X obj 458 128 t b i;
#X obj 546 126 t b i;
#X obj 355 163 expr if ($i1 == $i2 && $i3 == $i4 \, $i5 \, 3);
#X floatatom 549 240 5 0 0 0 - - -;
#X msg 549 264 max \$1;
#X obj 416 977 expr ($i1*16 + $i2*4 + $i3);
#X obj 462 937 t b i;
#X floatatom 416 1003 5 0 0 0 - - -;
#X obj 523 928 t b i;
#X text 340 1001 start after;
#X text 454 1005 16ths;
#X obj 416 1050 outlet loopStart16ths;
#X obj -290 301 r \$0-barUpLSS;
#X obj -59 297 r \$0-barDownLSS;
#X obj 94 293 r \$0-beatUpLSS;
#X obj 317 299 r \$0-beatDownLSS;
#X obj 434 296 r \$0-16thUpLSS;
#X obj 642 296 r \$0-16thDownLSS;
#X obj 410 822 s \$0-barUpLSS;
#X obj 411 846 s \$0-barDownLSS;
#X obj 522 818 s \$0-beatUpLSS;
#X obj 524 842 s \$0-beatDownLSS;
#X obj 634 820 s \$0-16thUpLSS;
#X obj 639 842 s \$0-16thDownLSS;
#X floatatom 380 770 5 0 0 3 bars - -;
#X floatatom 465 770 5 0 3 3 beats - -;
#X floatatom 552 770 5 0 0 3 16th - -;
#X obj 420 761 bng 15 250 50 0 empty empty + 20 7 0 10 -262144 -1 -1
;
#X obj 420 781 bng 15 250 50 0 empty empty - 20 7 0 10 -262144 -1 -1
;
#X obj 505 761 bng 15 250 50 0 empty empty + 20 7 0 10 -262144 -1 -1
;
#X obj 505 781 bng 15 250 50 0 empty empty - 20 7 0 10 -262144 -1 -1
;
#X obj 590 761 bng 15 250 50 0 empty empty + 20 7 0 10 -262144 -1 -1
;
#X obj 590 781 bng 15 250 50 0 empty empty - 20 7 0 10 -262144 -1 -1
;
#X connect 0 0 5 0;
#X connect 5 0 6 0;
#X connect 5 0 77 0;
#X connect 6 0 2 0;
#X connect 6 1 3 0;
#X connect 6 2 4 0;
#X connect 8 0 12 0;
#X connect 12 0 13 0;
#X connect 12 0 76 0;
#X connect 13 0 9 0;
#X connect 13 1 10 0;
#X connect 13 2 11 0;
#X connect 15 0 27 0;
#X connect 16 0 27 0;
#X connect 19 0 42 0;
#X connect 20 0 41 0;
#X connect 21 0 29 0;
#X connect 22 0 34 0;
#X connect 23 0 25 0;
#X connect 24 0 26 0;
#X connect 25 0 20 0;
#X connect 26 0 19 0;
#X connect 27 0 28 0;
#X connect 28 0 23 0;
#X connect 28 0 24 0;
#X connect 28 0 122 0;
#X connect 29 0 16 0;
#X connect 29 1 33 0;
#X connect 29 1 30 0;
#X connect 30 0 23 1;
#X connect 31 0 23 1;
#X connect 32 0 24 1;
#X connect 33 0 24 1;
#X connect 34 0 15 0;
#X connect 34 1 31 0;
#X connect 34 1 32 0;
#X connect 35 0 89 0;
#X connect 36 0 89 0;
#X connect 39 0 61 0;
#X connect 40 0 60 0;
#X connect 41 0 48 0;
#X connect 42 0 53 0;
#X connect 43 0 45 0;
#X connect 44 0 46 0;
#X connect 45 0 40 0;
#X connect 46 0 39 0;
#X connect 47 0 43 0;
#X connect 47 0 44 0;
#X connect 47 0 96 0;
#X connect 47 0 121 0;
#X connect 48 0 36 0;
#X connect 48 1 52 0;
#X connect 48 1 49 0;
#X connect 49 0 43 1;
#X connect 50 0 43 1;
#X connect 51 0 44 1;
#X connect 52 0 44 1;
#X connect 53 0 35 0;
#X connect 53 1 50 0;
#X connect 53 1 51 0;
#X connect 54 0 73 0;
#X connect 55 0 73 0;
#X connect 60 0 67 0;
#X connect 61 0 72 0;
#X connect 62 0 64 0;
#X connect 63 0 65 0;
#X connect 64 0 59 0;
#X connect 65 0 58 0;
#X connect 66 0 62 0;
#X connect 66 0 63 0;
#X connect 66 0 90 0;
#X connect 66 0 98 0;
#X connect 66 0 120 0;
#X connect 67 0 55 0;
#X connect 67 1 71 0;
#X connect 67 1 68 0;
#X connect 68 0 62 1;
#X connect 69 0 62 1;
#X connect 70 0 63 1;
#X connect 71 0 63 1;
#X connect 72 0 54 0;
#X connect 72 1 69 0;
#X connect 72 1 70 0;
#X connect 73 0 66 0;
#X connect 74 0 81 0;
#X connect 76 0 77 0;
#X connect 76 1 77 1;
#X connect 77 0 74 0;
#X connect 78 0 82 0;
#X connect 78 0 91 0;
#X connect 78 0 95 0;
#X connect 79 0 92 0;
#X connect 79 0 97 0;
#X connect 80 0 98 4;
#X connect 81 0 78 0;
#X connect 81 1 79 0;
#X connect 81 2 80 0;
#X connect 82 0 73 0;
#X connect 89 0 47 0;
#X connect 90 0 93 0;
#X connect 91 0 90 0;
#X connect 91 1 90 1;
#X connect 92 0 90 0;
#X connect 92 1 90 2;
#X connect 93 0 94 0;
#X connect 94 0 89 0;
#X connect 95 0 98 0;
#X connect 95 1 98 1;
#X connect 96 0 98 0;
#X connect 96 1 98 2;
#X connect 97 0 98 0;
#X connect 97 1 98 3;
#X connect 98 0 99 0;
#X connect 99 0 100 0;
#X connect 100 0 27 0;
#X connect 101 0 103 0;
#X connect 102 0 101 0;
#X connect 102 1 101 1;
#X connect 103 0 107 0;
#X connect 104 0 101 0;
#X connect 104 1 101 2;
#X connect 108 0 60 0;
#X connect 109 0 61 0;
#X connect 110 0 41 0;
#X connect 111 0 42 0;
#X connect 112 0 21 0;
#X connect 113 0 22 0;
#X connect 120 0 101 0;
#X connect 121 0 102 0;
#X connect 122 0 104 0;
#X connect 123 0 114 0;
#X connect 124 0 115 0;
#X connect 125 0 116 0;
#X connect 126 0 117 0;
#X connect 127 0 118 0;
#X connect 128 0 119 0;
#X coords 0 -1 1 1 250 60 1 368 745;
#X restore 256 0 pd loopStartSet;
#X obj -90 -80 s \$0-16thLengthMS;
#X obj 340 192 r \$0-16thLengthMS;
#N canvas 2184 84 1519 836 sampletartSet 0;
#X obj -25 -70 inlet #of16th;
#X text 62 -70 sample länge in 16teln;
#X obj 520 300 bng 15 250 50 0 empty empty + 17 7 0 10 -262144 -1 -1
;
#X obj 649 303 bng 15 250 50 0 empty empty - 17 7 0 10 -262144 -1 -1
;
#X msg 348 405 dec;
#X msg 132 398 inc;
#X obj 126 645 bng 15 250 50 0 empty empty overflow 17 7 0 10 -262144
-1 -1;
#X obj 132 335 bng 15 250 50 0 empty empty + 17 7 0 10 -262144 -1 -1
;
#X obj 348 339 bng 15 250 50 0 empty empty - 17 7 0 10 -262144 -1 -1
;
#X obj 126 573 spigot;
#X obj 301 573 spigot;
#X obj 126 610 sel 0;
#X obj 301 613 sel 3;
#X floatatom 216 512 5 0 0 0 - - -;
#X obj 132 368 t b b;
#X msg 159 435 1;
#X msg 113 436 0;
#X msg 375 432 1;
#X msg 334 433 0;
#X obj 348 372 t b b;
#X msg -32 407 dec;
#X msg -248 400 inc;
#X obj -254 647 bng 15 250 50 0 empty empty overflow 17 7 0 10 -262144
-1 -1;
#X obj -248 337 bng 15 250 50 0 empty empty + 17 7 0 10 -262144 -1
-1;
#X obj -32 341 bng 15 250 50 0 empty empty - 17 7 0 10 -262144 -1 -1
;
#X obj -254 575 spigot;
#X obj -79 575 spigot;
#X obj -254 612 sel 0;
#X obj -79 615 sel 3;
#X floatatom -167 514 5 0 0 0 - - -;
#X obj -248 370 t b b;
#X msg -221 437 1;
#X msg -267 438 0;
#X msg -5 434 1;
#X msg -46 435 0;
#X obj -32 374 t b b;
#X floatatom -25 -19 5 0 0 1 anzahl_der_verfügbaren_16tel - -;
#X floatatom -25 69 5 0 0 0 - - -;
#X floatatom 114 69 5 0 0 0 - - -;
#X floatatom 254 69 5 0 0 0 - - -;
#X obj -25 8 expr $i1 / 16 \; $i1/4 - ($i1/16)*4 \; $i1 - ($i1/4 -
($i1/16)*4)*4 - ($i1 / 16) * 16 \;;
#X obj 213 456 counter 0 3;
#X obj -25 155 expr if ($i1 == $i2 \, $i3 \, 3);
#X obj -25 122 t b i;
#X obj 113 123 t b i;
#X floatatom 213 223 5 0 0 0 - - -;
#X msg 213 247 max \$1;
#X obj 221 126 t b i;
#X obj 306 123 t b i;
#X obj 394 121 t b i;
#X obj 203 158 expr if ($i1 == $i2 && $i3 == $i4 \, $i5 \, 3);
#X floatatom 584 226 5 0 0 0 - - -;
#X obj 416 977 expr ($i1*16 + $i2*4 + $i3);
#X obj 462 937 t b i;
#X floatatom 416 1003 5 0 0 0 - - -;
#X obj 523 928 t b i;
#X text 340 1001 start after;
#X text 454 1005 16ths;
#X obj 416 1050 outlet loopStart16ths;
#X obj -167 460 counter;
#X msg -167 298 max \$1;
#X obj -284 298 r \$0-barUpSS;
#X obj -32 296 r \$0-barDownSS;
#X obj 91 292 r \$0-beatUpSS;
#X obj 317 299 r \$0-beatDownSS;
#X obj 520 270 r \$0-16thUpSS;
#X obj 649 271 r \$0-16thDownSS;
#X obj 409 822 s \$0-barUpSS;
#X obj 406 846 s \$0-barDownSS;
#X obj 502 818 s \$0-beatUpSS;
#X obj 506 842 s \$0-beatDownSS;
#X obj 611 819 s \$0-16thUpSS;
#X obj 612 844 s \$0-16thDownSS;
#X floatatom 379 771 5 0 0 3 bars - -;
#X floatatom 464 771 5 0 3 3 beats - -;
#X floatatom 551 771 5 0 0 3 16th - -;
#X obj 419 762 bng 15 250 50 0 empty empty + 20 7 0 10 -262144 -1 -1
;
#X obj 419 782 bng 15 250 50 0 empty empty - 20 7 0 10 -262144 -1 -1
;
#X obj 504 762 bng 15 250 50 0 empty empty + 20 7 0 10 -262144 -1 -1
;
#X obj 504 782 bng 15 250 50 0 empty empty - 20 7 0 10 -262144 -1 -1
;
#X obj 589 762 bng 15 250 50 0 empty empty + 20 7 0 10 -262144 -1 -1
;
#X obj 589 782 bng 15 250 50 0 empty empty - 20 7 0 10 -262144 -1 -1
;
#X obj 301 646 bng 15 250 50 0 empty empty underflow 17 7 0 10 -262144
-1 -1;
#X obj -79 651 bng 15 250 50 0 empty empty underflow 17 7 0 10 -262144
-1 -1;
#N canvas 784 164 749 622 sixteenthcounterSSS 0;
#X msg 420 268 dec;
#X msg 204 261 inc;
#X obj 373 511 bng 15 250 50 0 empty empty underflow 17 7 0 10 -262144
-1 -1;
#X obj 198 508 bng 15 250 50 0 empty empty overflow 17 7 0 10 -262144
-1 -1;
#X obj 204 198 bng 15 250 50 0 empty empty + 17 7 0 10 -262144 -1 -1
;
#X obj 420 202 bng 15 250 50 0 empty empty - 17 7 0 10 -262144 -1 -1
;
#X obj 198 436 spigot;
#X obj 373 436 spigot;
#X obj 198 473 sel 0;
#X obj 373 476 sel 3;
#X obj 285 319 counter 0 3;
#X floatatom 288 375 5 0 0 0 - - -;
#X obj 204 231 t b b;
#X msg 231 298 1;
#X msg 185 299 0;
#X msg 447 295 1;
#X msg 406 296 0;
#X obj 420 235 t b b;
#X floatatom 286 102 5 0 0 0 - - -;
#X msg 286 126 max \$1;
#X obj 286 55 inlet;
#X obj 288 576 outlet;
#X obj 198 577 outlet;
#X obj 373 574 outlet;
#X obj 204 158 inlet 16thUP;
#X obj 420 158 inlet 16thDOWN;
#X connect 0 0 10 0;
#X connect 1 0 10 0;
#X connect 2 0 23 0;
#X connect 3 0 22 0;
#X connect 4 0 12 0;
#X connect 5 0 17 0;
#X connect 6 0 8 0;
#X connect 7 0 9 0;
#X connect 8 0 3 0;
#X connect 9 0 2 0;
#X connect 10 0 11 0;
#X connect 11 0 6 0;
#X connect 11 0 7 0;
#X connect 11 0 21 0;
#X connect 12 0 1 0;
#X connect 12 1 16 0;
#X connect 12 1 13 0;
#X connect 13 0 6 1;
#X connect 14 0 6 1;
#X connect 15 0 7 1;
#X connect 16 0 7 1;
#X connect 17 0 0 0;
#X connect 17 1 14 0;
#X connect 17 1 15 0;
#X connect 18 0 19 0;
#X connect 19 0 10 0;
#X connect 20 0 18 0;
#X connect 24 0 4 0;
#X connect 25 0 5 0;
#X restore 520 340 pd sixteenthcounterSSS;
#N canvas 277 78 613 807 beatCounterSSS 0;
#X msg 402 239 dec;
#X msg 186 232 inc;
#X obj 180 479 bng 15 250 50 0 empty empty overflow 17 7 0 10 -262144
-1 -1;
#X obj 186 169 bng 15 250 50 0 empty empty + 17 7 0 10 -262144 -1 -1
;
#X obj 402 173 bng 15 250 50 0 empty empty - 17 7 0 10 -262144 -1 -1
;
#X obj 180 407 spigot;
#X obj 355 407 spigot;
#X obj 180 444 sel 0;
#X obj 355 447 sel 3;
#X floatatom 270 346 5 0 0 0 - - -;
#X obj 186 202 t b b;
#X msg 213 269 1;
#X msg 167 270 0;
#X msg 388 267 0;
#X obj 402 206 t b b;
#X obj 267 290 counter 0 3;
#X floatatom 267 57 5 0 0 0 - - -;
#X msg 267 81 max \$1;
#X obj 355 480 bng 15 250 50 0 empty empty underflow 17 7 0 10 -262144
-1 -1;
#X obj 267 23 inlet;
#X obj 145 126 inlet;
#X obj 371 133 inlet;
#X connect 0 0 15 0;
#X connect 1 0 15 0;
#X connect 3 0 10 0;
#X connect 4 0 14 0;
#X connect 5 0 7 0;
#X connect 6 0 8 0;
#X connect 7 0 2 0;
#X connect 8 0 18 0;
#X connect 9 0 5 0;
#X connect 9 0 6 0;
#X connect 10 0 1 0;
#X connect 10 1 13 0;
#X connect 10 1 11 0;
#X connect 11 0 5 1;
#X connect 12 0 5 1;
#X connect 13 0 6 1;
#X connect 14 0 0 0;
#X connect 14 1 12 0;
#X connect 15 0 9 0;
#X connect 16 0 17 0;
#X connect 17 0 15 0;
#X connect 19 0 16 0;
#X connect 20 0 3 0;
#X connect 21 0 4 0;
#X restore -72 805 pd beatCounterSSS;
#X connect 0 0 36 0;
#X connect 2 0 84 0;
#X connect 3 0 84 2;
#X connect 4 0 41 0;
#X connect 5 0 41 0;
#X connect 6 0 23 0;
#X connect 7 0 14 0;
#X connect 8 0 19 0;
#X connect 9 0 11 0;
#X connect 10 0 12 0;
#X connect 11 0 6 0;
#X connect 12 0 82 0;
#X connect 13 0 9 0;
#X connect 13 0 10 0;
#X connect 13 0 48 0;
#X connect 13 0 74 0;
#X connect 14 0 5 0;
#X connect 14 1 18 0;
#X connect 14 1 15 0;
#X connect 15 0 9 1;
#X connect 16 0 9 1;
#X connect 17 0 10 1;
#X connect 18 0 10 1;
#X connect 19 0 4 0;
#X connect 19 1 16 0;
#X connect 19 1 17 0;
#X connect 20 0 59 0;
#X connect 21 0 59 0;
#X connect 23 0 30 0;
#X connect 24 0 35 0;
#X connect 25 0 27 0;
#X connect 26 0 28 0;
#X connect 27 0 22 0;
#X connect 28 0 83 0;
#X connect 29 0 25 0;
#X connect 29 0 26 0;
#X connect 29 0 42 0;
#X connect 29 0 50 0;
#X connect 29 0 73 0;
#X connect 30 0 21 0;
#X connect 30 1 34 0;
#X connect 30 1 31 0;
#X connect 31 0 25 1;
#X connect 32 0 25 1;
#X connect 33 0 26 1;
#X connect 34 0 26 1;
#X connect 35 0 20 0;
#X connect 35 1 32 0;
#X connect 35 1 33 0;
#X connect 36 0 40 0;
#X connect 37 0 60 0;
#X connect 37 0 43 0;
#X connect 37 0 47 0;
#X connect 38 0 44 0;
#X connect 38 0 49 0;
#X connect 39 0 50 4;
#X connect 40 0 37 0;
#X connect 40 1 38 0;
#X connect 40 2 39 0;
#X connect 41 0 13 0;
#X connect 42 0 45 0;
#X connect 43 0 42 0;
#X connect 43 1 42 1;
#X connect 44 0 42 0;
#X connect 44 1 42 2;
#X connect 45 0 46 0;
#X connect 45 0 85 1;
#X connect 46 0 41 0;
#X connect 47 0 50 0;
#X connect 47 1 50 1;
#X connect 48 0 50 0;
#X connect 48 1 50 2;
#X connect 49 0 50 0;
#X connect 49 1 50 3;
#X connect 50 0 51 0;
#X connect 51 0 84 1;
#X connect 52 0 54 0;
#X connect 53 0 52 0;
#X connect 53 1 52 1;
#X connect 54 0 58 0;
#X connect 55 0 52 0;
#X connect 55 1 52 2;
#X connect 59 0 29 0;
#X connect 60 0 59 0;
#X connect 61 0 23 0;
#X connect 62 0 24 0;
#X connect 63 0 7 0;
#X connect 64 0 8 0;
#X connect 65 0 2 0;
#X connect 66 0 3 0;
#X connect 73 0 52 0;
#X connect 74 0 53 0;
#X connect 75 0 55 0;
#X connect 76 0 67 0;
#X connect 77 0 68 0;
#X connect 78 0 69 0;
#X connect 79 0 70 0;
#X connect 80 0 71 0;
#X connect 81 0 72 0;
#X connect 82 0 24 0;
#X connect 84 0 7 0;
#X connect 84 1 75 0;
#X connect 84 2 8 0;
#X coords 0 -1 1 1 250 60 1 368 745;
#X restore 511 0 pd sampletartSet;
#X obj 256 330 outlet startpointLoopSMP;
#X obj 511 332 outlet startPointSampleSMP;
#X obj 595 223 t b f;
#X obj 511 256 expr $f1 * $f2*44.1;
#X obj 595 186 r \$0-16thLengthMS;
#X floatatom -234 -281 15 0 0 1 length_of_sample_in_smp - -;
#X obj 848 132 -;
#X obj 848 101 t b i;
#X floatatom 848 164 7 0 0 0 length_of_intro_in_16ths - -;
#X obj 746 264 expr (15000/$f1) * $f2;
#X obj 848 226 t b i;
#X obj 746 333 outlet introLengthMS;
#X obj 928 241 *;
#X obj 928 198 t b f;
#X floatatom 928 293 15 0 0 3 introInSMP - -;
#X obj 928 267 * 44.1;
#X obj 907 167 r \$0-16thLengthMS;
#X obj 928 334 outlet introInSMP;
#N canvas 1943 67 595 460 bpmToMS 0;
#X floatatom -319 143 5 0 0 0 - - -;
#X obj -319 113 / 60000;
#X obj -319 234 /;
#X obj -319 171 t b f;
#X msg -319 203 1;
#X floatatom -319 261 15 0 0 0 - - -;
#X obj -150 308 * 4;
#X floatatom -150 346 15 0 0 0 - - -;
#X text -316 280 length of a beat in ms;
#X text -284 141 beats per ms;
#X text -145 367 length of a bar in ms;
#X floatatom -319 77 5 0 0 0 - - -;
#X obj -319 30 inlet origBpm;
#X obj -319 384 outlet oneBeatDurationMS;
#X obj -150 385 outlet oneBarDurationMS;
#X obj -493 384 outlet one16thDurationMS;
#X floatatom -493 344 15 0 0 0 - - -;
#X obj -493 311 / 4;
#X text -488 365 length of a 16th in ms;
#X connect 0 0 3 0;
#X connect 1 0 0 0;
#X connect 2 0 5 0;
#X connect 3 0 4 0;
#X connect 3 1 2 1;
#X connect 4 0 2 0;
#X connect 5 0 6 0;
#X connect 5 0 13 0;
#X connect 5 0 17 0;
#X connect 6 0 7 0;
#X connect 7 0 14 0;
#X connect 11 0 1 0;
#X connect 12 0 11 0;
#X connect 16 0 15 0;
#X connect 17 0 16 0;
#X restore -90 -163 pd bpmToMS;
#X obj -113 330 outlet looplengthInSMP;
#X obj -231 177 r \$0-16thLengthMS;
#X obj 0 -36 r \$0-numberOf16th;
#X obj -207 76 s \$0-numberOf16th;
#X obj 52 241 expr (15000/$f1) * $f2;
#X obj 154 202 t b i;
#X floatatom 52 280 15 0 0 3 loopLengthMS - -;
#X text 1 59 Maximum sample Length;
#X floatatom 243 -101 5 0 0 3 playbackBPM - -;
#X obj 256 -66 s \$0-playbackBPM;
#X obj 243 -126 inlet playbackBPM;
#X obj 746 193 r \$0-playbackBPM;
#X floatatom 256 281 15 0 0 3 startpointLoopSMP - -;
#X obj 52 202 r \$0-playbackBPM;
#X floatatom 511 284 15 0 0 3 startPointSampleSMP - -;
#X floatatom 746 290 15 0 0 3 introLengthMS - -;
#X connect 0 0 4 0;
#X connect 2 0 33 0;
#X connect 3 0 5 0;
#X connect 4 0 46 0;
#X connect 5 0 8 0;
#X connect 7 0 16 0;
#X connect 7 0 25 0;
#X connect 8 0 9 0;
#X connect 9 0 50 0;
#X connect 10 0 13 0;
#X connect 11 0 10 0;
#X connect 11 1 10 1;
#X connect 12 0 47 0;
#X connect 13 0 12 0;
#X connect 14 0 4 0;
#X connect 14 1 3 0;
#X connect 16 0 8 0;
#X connect 16 1 8 1;
#X connect 19 0 20 0;
#X connect 19 1 20 1;
#X connect 20 0 59 0;
#X connect 21 0 17 0;
#X connect 21 1 15 0;
#X connect 21 2 18 0;
#X connect 21 4 22 0;
#X connect 21 4 24 1;
#X connect 22 0 11 0;
#X connect 22 0 52 0;
#X connect 24 0 27 0;
#X connect 24 0 34 0;
#X connect 24 0 20 0;
#X connect 26 0 19 0;
#X connect 27 0 31 0;
#X connect 27 0 35 0;
#X connect 30 0 31 0;
#X connect 30 1 31 1;
#X connect 31 0 61 0;
#X connect 32 0 30 0;
#X connect 33 0 14 0;
#X connect 34 0 36 0;
#X connect 35 0 34 0;
#X connect 35 1 34 1;
#X connect 36 0 38 0;
#X connect 36 0 41 0;
#X connect 37 0 62 0;
#X connect 38 0 37 0;
#X connect 38 1 37 1;
#X connect 40 0 43 0;
#X connect 41 0 40 0;
#X connect 41 1 40 1;
#X connect 42 0 45 0;
#X connect 43 0 42 0;
#X connect 44 0 40 0;
#X connect 46 0 7 0;
#X connect 46 2 1 0;
#X connect 48 0 10 0;
#X connect 49 0 21 0;
#X connect 49 0 24 0;
#X connect 51 0 53 0;
#X connect 52 0 51 0;
#X connect 52 1 51 1;
#X connect 53 0 23 0;
#X connect 55 0 56 0;
#X connect 55 0 21 1;
#X connect 57 0 55 0;
#X connect 58 0 37 0;
#X connect 59 0 28 0;
#X connect 60 0 51 0;
#X connect 61 0 29 0;
#X connect 62 0 39 0;
#X coords -1 -1 1 1 761 100 2 0 0;
