#N canvas 222 7 1556 948 10;
#N canvas 2293 185 682 664 mixer 0;
#X obj -3 261 *~;
#X obj -2 330 +~;
#X obj 237 331 +~;
#X obj 123 392 +~;
#X obj 123 421 outlet~;
#X obj -2 212 r~ \$0-samplerNr1;
#X floatatom 12 233 5 0 0 0 - #0-volCh1 -;
#X obj 118 262 *~;
#X floatatom 133 234 5 0 0 0 - #0-volCh2 -;
#X obj 237 261 *~;
#X floatatom 252 233 5 0 0 0 - #0-volCh3 -;
#X obj 358 260 *~;
#X floatatom 373 232 5 0 0 0 - #0-volCh4 -;
#X obj 119 213 r~ \$0-samplerNr2;
#X obj 238 212 r~ \$0-samplerNr3;
#X obj 359 212 r~ \$0-samplerNr4;
#X obj 11 125 hsl 128 15 0.01 1 1 1 \$0-volCh1 empty CH1 -2 -8 0 10
-262144 -1 -1 10700 1;
#X obj 161 125 hsl 128 15 0.01 1 1 1 \$0-volCh2 empty CH2 -2 -8 0 10
-262144 -1 -1 2600 1;
#X obj 12 167 hsl 128 15 0.01 1 1 1 \$0-volCh3 empty CH3 -2 -8 0 10
-262144 -1 -1 11900 1;
#X obj 161 167 hsl 128 15 0.01 1 1 1 \$0-volCh4 empty CH4 -2 -8 0 10
-262144 -1 -1 8200 1;
#X connect 0 0 1 0;
#X connect 1 0 3 0;
#X connect 2 0 3 1;
#X connect 3 0 4 0;
#X connect 5 0 0 0;
#X connect 6 0 0 1;
#X connect 7 0 1 1;
#X connect 8 0 7 1;
#X connect 9 0 2 0;
#X connect 10 0 9 1;
#X connect 11 0 2 1;
#X connect 12 0 11 1;
#X connect 13 0 7 0;
#X connect 14 0 9 0;
#X connect 15 0 11 0;
#X coords 0 -1 1 1 300 100 2 0 100;
#X restore 178 806 pd mixer;
#X obj 580 840 output~;
#X obj 2 10 0_AsdReaderSampler_2 sam0;
#N canvas 2554 176 450 462 MasterClock 0;
#N canvas 185 78 807 717 bpmToCLKfreq 0;
#X obj 116 462 metro;
#X floatatom 143 141 15 0 0 0 - - -;
#X obj 143 111 / 60000;
#X obj 143 232 /;
#X obj 143 169 t b f;
#X msg 143 201 1;
#X floatatom 143 259 15 0 0 0 - - -;
#X text 146 278 length of a beat in ms;
#X text 240 142 beats per ms;
#X floatatom 143 75 5 0 0 0 - - -;
#X obj 143 313 / 24;
#X floatatom 143 358 15 0 0 0 - - -;
#X text 144 378 length of a tick in ms;
#X obj 143 32 inlet bpm;
#X obj 116 670 outlet clock;
#X obj 236 497 counter 95;
#X floatatom 236 525 5 0 0 0 - - -;
#X obj 18 343 bng 15 250 50 0 empty empty empty 17 7 0 10 -262144 -1
-1;
#X obj 18 284 inlet transport;
#X obj 18 315 route start stop;
#X msg 64 381 stop;
#X obj 64 344 bng 15 250 50 0 empty empty empty 17 7 0 10 -262144 -1
-1;
#X obj 236 670 outlet count;
#X msg 236 456 goto 0;
#X obj 496 606 route 0;
#X obj 496 639 bng 15 250 50 0 empty empty empty 17 7 0 10 -262144
-1 -1;
#X obj 496 576 mod 24;
#X obj 496 672 outlet quarter bang;
#X obj 342 607 route 0;
#X obj 342 640 bng 15 250 50 0 empty empty empty 17 7 0 10 -262144
-1 -1;
#X obj 342 673 outlet quarter bang;
#X connect 0 0 14 0;
#X connect 0 0 15 0;
#X connect 1 0 4 0;
#X connect 2 0 1 0;
#X connect 3 0 6 0;
#X connect 4 0 5 0;
#X connect 4 1 3 1;
#X connect 5 0 3 0;
#X connect 6 0 10 0;
#X connect 9 0 2 0;
#X connect 10 0 11 0;
#X connect 11 0 0 1;
#X connect 13 0 9 0;
#X connect 15 0 16 0;
#X connect 16 0 22 0;
#X connect 16 0 28 0;
#X connect 16 0 26 0;
#X connect 17 0 0 0;
#X connect 18 0 19 0;
#X connect 19 0 17 0;
#X connect 19 1 21 0;
#X connect 20 0 0 0;
#X connect 21 0 20 0;
#X connect 21 0 23 0;
#X connect 23 0 15 0;
#X connect 24 0 25 0;
#X connect 25 0 27 0;
#X connect 26 0 24 0;
#X connect 28 0 29 0;
#X connect 29 0 30 0;
#X restore 52 39 pd bpmToCLKfreq;
#X obj 52 67 bng 15 50 10 0 empty empty empty 17 7 0 10 -262144 -1
-1;
#X obj 172 109 bng 20 250 50 0 empty empty quarter 23 10 0 15 -261682
-1 -1;
#X obj 110 109 bng 20 250 50 0 empty empty beat 22 10 0 15 -260097
-1 -1;
#X msg 283 25 start;
#X msg 340 24 stop;
#X obj 283 71 s \$0-masterTransport;
#X obj 47 -11 r \$0-masterTransport;
#X obj 186 173 bng 20 250 50 0 \$0-masterStop empty Stop 25 10 0 15
-258113 -1 -1;
#X obj 110 173 bng 20 250 50 0 \$0-masterStart empty Start 22 10 0
15 -4034 -1 -1;
#X obj 283 -22 bng 20 250 50 0 empty \$0-masterStart Start 22 10 0
15 -4034 -1 -1;
#X obj 361 -21 bng 20 250 50 0 empty \$0-masterStop Stop 25 10 0 15
-258113 -1 -1;
#X floatatom 111 144 15 0 0 1 BPM - #0-masterTempo;
#X obj -15 52 loadbang;
#X msg -15 74 120;
#X obj 139 10 r \$0-masterTempo;
#X obj 52 241 s 96thClockTick;
#X connect 0 0 1 0;
#X connect 0 2 3 0;
#X connect 0 3 2 0;
#X connect 1 0 16 0;
#X connect 4 0 6 0;
#X connect 5 0 6 0;
#X connect 7 0 0 0;
#X connect 10 0 4 0;
#X connect 11 0 5 0;
#X connect 13 0 14 0;
#X connect 14 0 12 0;
#X connect 15 0 0 1;
#X coords 0 -1 1 1 170 100 2 100 100;
#X restore 3 806 pd MasterClock;
#X obj 2 -13 r \$0-masterTempo;
#X obj 770 -12 r \$0-masterTempo;
#X obj 639 -13 r \$0-masterTransport;
#X obj 1406 -9 r \$0-masterTransport;
#X obj 2 388 s~ \$0-samplerNr1;
#X obj 770 387 s~ \$0-samplerNr2;
#X obj 3 786 s~ \$0-samplerNr3;
#X obj 772 787 s~ \$0-samplerNr4;
#X obj 106 388 r \$0-masterTempo;
#X obj 771 390 r \$0-masterTempo;
#X obj 639 388 r \$0-masterTransport;
#X obj 1407 390 r \$0-masterTransport;
#X obj 770 10 0_AsdReaderSampler_2 sam1;
#X obj 4 412 0_AsdReaderSampler_2 sam0;
#X obj 771 412 0_AsdReaderSampler_2 sam1;
#X obj 179 912 s~ toMasterOutput;
#X obj 580 806 r~ toMasterOutput;
#N canvas 2031 363 450 300 loadmeter 0;
#X floatatom 113 125 10 0 0 3 %_CPU_load - -;
#X obj 236 163 cputime;
#X obj 236 23 loadbang;
#X obj 236 107 metro 1000;
#X msg 236 51 1;
#X floatatom 236 79 0 0 0 0 - - -;
#X obj 236 135 t b b;
#X obj 236 223 * 0.1;
#X obj 236 192 int;
#X text 281 79 <-- on/off;
#X text 190 246 CPU load in percent;
#X connect 1 0 8 0;
#X connect 2 0 4 0;
#X connect 3 0 6 0;
#X connect 4 0 5 0;
#X connect 5 0 3 0;
#X connect 6 0 1 0;
#X connect 6 1 1 1;
#X connect 7 0 0 0;
#X connect 8 0 7 0;
#X coords 0 -1 1 1 85 60 1 100 100;
#X restore 486 806 pd loadmeter;
#X connect 0 0 19 0;
#X connect 2 0 8 0;
#X connect 4 0 2 0;
#X connect 5 0 16 0;
#X connect 6 0 2 1;
#X connect 7 0 16 1;
#X connect 12 0 17 0;
#X connect 13 0 18 0;
#X connect 14 0 17 1;
#X connect 15 0 18 1;
#X connect 16 0 9 0;
#X connect 17 0 10 0;
#X connect 18 0 11 0;
#X connect 20 0 1 0;
#X connect 20 0 1 1;
