#N canvas 2143 248 450 300 10;
#X floatatom 101 106 7 0 0 0 - - -;
#X obj 193 213 i;
#X obj 193 190 bng 15 250 50 0 empty empty empty 17 7 0 10 -262144
-1 -1;
#X floatatom 226 159 5 0 0 0 - - -;
#X obj 154 156 moses 3;
#X obj 101 156 moses 0;
#X obj 101 208 i;
#X obj 101 185 bng 15 250 50 0 empty empty empty 17 7 0 10 -262144
-1 -1;
#X floatatom 59 156 5 0 0 0 - - -;
#X obj 54 52 inlet;
#X obj 225 58 inlet;
#X obj -32 58 inlet;
#X obj -20 166 outlet;
#X connect 0 0 4 0;
#X connect 0 0 5 0;
#X connect 0 0 12 0;
#X connect 1 0 0 0;
#X connect 2 0 1 0;
#X connect 3 0 1 1;
#X connect 3 0 4 1;
#X connect 4 1 2 0;
#X connect 5 0 7 0;
#X connect 6 0 8 0;
#X connect 7 0 6 0;
#X connect 8 0 0 0;
#X connect 9 0 8 0;
#X connect 10 0 3 0;
#X connect 11 0 0 0;
#X coords 0 -1 1 1 45 23 1 100 100;
