#N canvas 2070 42 1703 828 16;
#X floatatom -61 44 5 0 0 0 - - -;
#X obj -44 286 bng 15 250 50 0 empty empty empty 17 7 0 10 -262144
-1 -1;
#N canvas 0 0 450 300 (subpatch) 0;
#X array sample 341420 float 2;
#X coords 0 1 341420 -1 800 140 2 0 0;
#X restore -852 269 graph;
#X floatatom -44 356 20 0 0 0 - - -;
#X obj -44 388 s maxl;
#X obj -849 272 hsl 795 144 0 1 0 0 empty empty empty -2 -8 0 10 -262144
-4032 -1 55898 1;
#X text -25 285 Bang to select sample;
#X obj -613 1594 output~;
#X obj -605 1435 tabread4~ sample;
#X obj -850 441 hsl 795 16 0 1 0 0 empty empty empty -2 -8 0 10 -262144
-4034 -1 19850 1;
#X obj -850 463 hsl 795 16 0 1 0 0 empty empty empty -2 -8 0 10 -262144
-258113 -1 59550 1;
#X floatatom -459 50 5 0 0 0 - - -;
#X text -455 26 orig. bpm;
#X obj -853 45 r maxl;
#X text -893 22 length of sample;
#X text -598 581 Length in ms;
#X text -405 618 länge des loops in smp;
#X floatatom -862 1439 5 0 0 0 - - -;
#X obj -765 1361 r maxl;
#X obj -387 1034 - 3;
#X obj -606 1399 +~ 1;
#X text -58 13 playback bpm;
#X obj -853 87 0_length_ivo;
#X text -51 439 loop start;
#X text -51 460 loop end;
#X obj -604 1487 +~;
#X obj -387 1003 line;
#X msg -387 973 \$1 3;
#N canvas 2239 125 1031 496 drawGraphs 0;
#X obj 280 73 inlet lengthOfLoopSMP;
#X obj 12 77 inlet lengthOfSampleSMP;
#X obj 543 72 inlet loopStartpoint;
#X obj 179 435 outlet loopStart;
#X obj 360 436 outlet loopEnd;
#X obj 265 205 t b f;
#X obj 250 305 /;
#X obj 391 227 t b f;
#X obj 311 303 expr ($f1 + $f3) / $f2;
#X obj 761 73 inlet sampleStartPoint;
#X obj 564 204 t b f;
#X obj 556 308 /;
#X obj 548 427 outlet sampleStartPoint;
#X connect 0 0 8 0;
#X connect 1 0 5 0;
#X connect 1 0 10 0;
#X connect 2 0 7 0;
#X connect 2 0 6 0;
#X connect 5 0 6 0;
#X connect 5 0 8 0;
#X connect 5 1 6 1;
#X connect 5 1 8 1;
#X connect 6 0 3 0;
#X connect 7 0 8 0;
#X connect 7 1 8 2;
#X connect 8 0 4 0;
#X connect 9 0 11 0;
#X connect 10 0 11 0;
#X connect 10 1 11 1;
#X connect 11 0 12 0;
#X restore -1146 413 pd drawGraphs;
#N canvas 1082 401 317 388 bangToSelectSample 0;
#X obj -258 73 bng 15 250 50 0 empty empty empty 17 7 0 10 -262144
-1 -1;
#X obj -258 113 openpanel;
#X obj -258 204 soundfiler;
#X floatatom -258 254 20 0 0 0 - - -;
#X text -239 72 Bang to select sample;
#X msg -258 156 read -resize \$1 sample;
#X obj -258 286 outlet maxl;
#X obj -258 40 inlet bangToSelect;
#X connect 0 0 1 0;
#X connect 1 0 5 0;
#X connect 2 0 3 0;
#X connect 3 0 6 0;
#X connect 5 0 2 0;
#X connect 7 0 0 0;
#X restore -44 314 pd bangToSelectSample;
#X obj -850 421 hsl 795 16 0 1 0 0 empty empty empty -2 -8 0 10 -262144
-4160 -4160 0 1;
#X text -51 419 samp start;
#X obj -695 224 s loopLengthMS;
#X obj -604 604 r loopLengthMS;
#X obj -853 224 s loopLengthSMP;
#X obj -387 588 r loopLengthSMP;
#X obj -1132 311 r loopLengthSMP;
#X obj -536 226 s loopStartSMP;
#X obj -1068 339 r loopStartSMP;
#X obj -378 226 s sampleStartSMP;
#X obj -1034 369 r sampleStartSMP;
#X floatatom -1019 486 5 0 0 0 - - -;
#X msg -1109 989 0;
#X obj -605 1308 expr~ $v1 * ($f2) + ($f3);
#X obj -1063 773 s \$0-bangToStop;
#X obj -1063 739 bng 15 250 50 0 empty empty empty 17 7 0 10 -262144
-1 -1;
#X obj -1064 816 bng 15 250 50 0 empty empty empty 17 7 0 10 -262144
-1 -1;
#X obj -1064 849 s \$0-bangToStart;
#X obj -1109 955 r \$0-bangToStop;
#X obj -862 1476 s \$0-currentPosition;
#X obj -1168 215 r \$0-currentPosition;
#N canvas 665 204 815 620 calcPos 0;
#X obj -203 387 outlet;
#X obj -203 175 metro 0.1;
#X obj -203 310 snapshot~;
#X obj -203 130 loadbang;
#X floatatom -203 347 5 0 0 0 - - -;
#X obj -159 270 /~;
#X obj -159 216 inlet~;
#X obj -89 217 inlet maxl;
#X connect 1 0 2 0;
#X connect 2 0 4 0;
#X connect 3 0 1 0;
#X connect 4 0 0 0;
#X connect 5 0 2 0;
#X connect 6 0 5 0;
#X connect 7 0 5 1;
#X restore -862 1396 pd calcPos;
#X floatatom -388 663 15 0 0 0 - - -;
#X obj 345 629 r loopStartSMP;
#X msg 345 712 \$1;
#X floatatom 345 671 15 0 0 0 - - -;
#X floatatom 281 752 15 0 0 0 - - -;
#X msg 281 632 \$1;
#X floatatom 281 591 15 0 0 0 - - -;
#X obj 281 549 r sampleStartSMP;
#X obj 276 438 bng 15 250 50 0 empty empty empty 17 7 0 10 -262144
-1 -1;
#X text 303 437 start from loop;
#X obj 247 470 bng 15 250 50 0 empty empty empty 17 7 0 10 -262144
-1 -1;
#X text 283 467 start from sample;
#X floatatom -604 648 15 0 0 0 - - -;
#X floatatom -388 927 15 0 0 0 - - -;
#X obj -210 226 s introLengthMS;
#X obj -791 597 r introLengthMS;
#X floatatom -791 649 15 0 0 0 - - -;
#X obj -39 227 s introLengthSMP;
#X floatatom -158 636 15 0 0 0 - - -;
#X obj -158 584 r introLengthSMP;
#X obj -605 1245 vline~;
#X obj -790 1011 metro;
#X msg -605 1183 1 \$1;
#X obj -586 1084 t b b;
#X msg -539 1177 0 0;
#X obj -790 961 t b f;
#X floatatom -605 1141 5 0 0 0 - - -;
#X text 13 587;
#X obj -790 1098 bng 15 250 50 0 empty empty empty 17 7 0 10 -262144
-1 -1;
#N canvas 163 21 1110 907 player 1;
#X obj 705 911 inlet fromSMP;
#X obj 581 597 inlet LengthSMP;
#X obj 356 476 inlet LengthMS;
#X obj 91 425 inlet StartStop;
#X obj 91 500 route start stop;
#X obj 91 594 bng 15 250 50 0 empty empty empty 17 7 0 10 -262144 -1
-1;
#X obj 169 555 bng 15 250 50 0 empty empty empty 17 7 0 10 -262144
-1 -1;
#X obj 458 1223 outlet~;
#X obj 458 1103 tabread4~ sample;
#X floatatom 216 1182 5 0 0 0 - - -;
#X obj 313 1104 r maxl;
#X obj 581 866 - 3;
#X obj 457 1067 +~ 1;
#X obj 459 1155 +~;
#X obj 581 835 line;
#X msg 581 805 \$1 3;
#X msg 169 588 0;
#X obj 458 976 expr~ $v1 * ($f2) + ($f3);
#X obj 216 1219 s \$0-currentPosition;
#N canvas 665 204 815 620 calcPos 0;
#X obj -203 387 outlet;
#X obj -203 175 metro 0.1;
#X obj -203 310 snapshot~;
#X obj -203 130 loadbang;
#X floatatom -203 347 5 0 0 0 - - -;
#X obj -159 270 /~;
#X obj -159 216 inlet~;
#X obj -89 217 inlet maxl;
#X connect 1 0 2 0;
#X connect 2 0 4 0;
#X connect 3 0 1 0;
#X connect 4 0 0 0;
#X connect 5 0 2 0;
#X connect 6 0 5 0;
#X connect 7 0 5 1;
#X restore 216 1139 pd calcPos;
#X floatatom 581 759 15 0 0 0 - - -;
#X obj 458 913 vline~;
#X obj 273 679 metro;
#X msg 458 851 1 \$1;
#X obj 458 747 t b b;
#X msg 516 850 0 0;
#X obj 273 629 t b f;
#X floatatom 458 809 5 0 0 0 - - -;
#X obj 273 766 bng 15 250 50 0 empty empty empty 17 7 0 10 -262144
-1 -1;
#X connect 0 0 17 2;
#X connect 1 0 20 0;
#X connect 2 0 26 0;
#X connect 2 0 27 0;
#X connect 3 0 4 0;
#X connect 4 0 5 0;
#X connect 4 1 6 0;
#X connect 5 0 22 0;
#X connect 6 0 16 0;
#X connect 8 0 13 0;
#X connect 9 0 18 0;
#X connect 10 0 19 1;
#X connect 11 0 17 1;
#X connect 12 0 8 0;
#X connect 13 0 7 0;
#X connect 14 0 11 0;
#X connect 15 0 14 0;
#X connect 16 0 22 0;
#X connect 17 0 12 0;
#X connect 17 0 19 0;
#X connect 19 0 9 0;
#X connect 20 0 15 0;
#X connect 21 0 17 0;
#X connect 22 0 24 0;
#X connect 22 0 28 0;
#X connect 23 0 21 0;
#X connect 24 0 27 0;
#X connect 24 1 25 0;
#X connect 25 0 21 0;
#X connect 26 0 22 0;
#X connect 26 1 22 1;
#X connect 27 0 23 0;
#X restore -19 1363 pd player;
#X msg -19 1206 start;
#X msg -83 1209 stop;
#X connect 0 0 22 2;
#X connect 1 0 29 0;
#X connect 3 0 4 0;
#X connect 8 0 25 0;
#X connect 11 0 22 1;
#X connect 13 0 22 0;
#X connect 13 0 28 0;
#X connect 17 0 49 0;
#X connect 18 0 51 1;
#X connect 19 0 43 1;
#X connect 20 0 8 0;
#X connect 22 0 34 0;
#X connect 22 1 32 0;
#X connect 22 2 37 0;
#X connect 22 3 39 0;
#X connect 22 4 66 0;
#X connect 22 5 69 0;
#X connect 25 0 7 0;
#X connect 25 0 7 1;
#X connect 26 0 19 0;
#X connect 27 0 26 0;
#X connect 28 0 9 0;
#X connect 28 1 10 0;
#X connect 28 2 30 0;
#X connect 28 2 41 0;
#X connect 29 0 3 0;
#X connect 33 0 64 0;
#X connect 35 0 52 0;
#X connect 36 0 28 1;
#X connect 38 0 28 2;
#X connect 40 0 28 3;
#X connect 42 0 73 0;
#X connect 43 0 20 0;
#X connect 43 0 51 0;
#X connect 45 0 44 0;
#X connect 46 0 47 0;
#X connect 46 0 73 0;
#X connect 48 0 42 0;
#X connect 50 0 5 0;
#X connect 51 0 17 0;
#X connect 52 0 65 0;
#X connect 53 0 55 0;
#X connect 54 0 56 0;
#X connect 55 0 54 0;
#X connect 56 0 43 2;
#X connect 57 0 56 0;
#X connect 58 0 57 0;
#X connect 59 0 58 0;
#X connect 60 0 55 0;
#X connect 60 0 52 0;
#X connect 60 0 64 0;
#X connect 62 0 58 0;
#X connect 62 0 68 0;
#X connect 62 0 70 0;
#X connect 64 0 77 0;
#X connect 64 0 78 0;
#X connect 65 0 27 0;
#X connect 67 0 68 0;
#X connect 68 0 77 0;
#X connect 68 0 78 0;
#X connect 70 0 65 0;
#X connect 71 0 70 0;
#X connect 72 0 43 0;
#X connect 73 0 75 0;
#X connect 73 0 80 0;
#X connect 74 0 72 0;
#X connect 75 0 78 0;
#X connect 75 1 76 0;
#X connect 76 0 72 0;
#X connect 77 0 73 0;
#X connect 77 1 73 1;
#X connect 78 0 74 0;
#X connect 82 0 81 0;
#X connect 83 0 81 0;
#X coords 0 828 1 827 100 100 0;
