#N canvas 2220 90 1703 828 16;
#X floatatom -61 44 5 0 0 0 - - -;
#X obj -44 286 bng 15 250 50 0 empty empty empty 17 7 0 10 -262144
-1 -1;
#N canvas 0 0 450 300 (subpatch) 0;
#X array sample 155647 float 2;
#X coords 0 1 155647 -1 800 140 2 0 0;
#X restore -852 269 graph;
#X floatatom -44 356 20 0 0 0 - - -;
#X obj -44 388 s maxl;
#X obj -849 272 hsl 795 144 0 1 0 0 empty empty empty -2 -8 0 10 -262144
-4032 -1 32846 1;
#X text -25 285 Bang to select sample;
#X obj -613 1524 output~;
#X obj -605 1435 tabread4~ sample;
#X obj -606 936 phasor~;
#X floatatom -606 606 15 0 0 0 - - -;
#X obj -850 441 hsl 795 16 0 1 0 0 empty empty empty -2 -8 0 10 -262144
-4034 -1 29775 1;
#X obj -850 463 hsl 795 16 0 1 0 0 empty empty empty -2 -8 0 10 -262144
-258113 -1 49625 1;
#X floatatom -459 50 5 0 0 0 - - -;
#X text -455 26 orig. bpm;
#X obj -853 45 r maxl;
#X text -893 22 length of sample;
#X text -587 582 Length in ms;
#X text -405 598 länge des loops in smp;
#X floatatom -387 622 15 0 0 0 - - -;
#X floatatom -850 1469 5 0 0 0 - - -;
#X obj -606 670 expr 1000 / $f1;
#X obj -753 1391 r maxl;
#X obj -387 754 - 3;
#X obj -606 1399 +~ 1;
#X text -58 13 playback bpm;
#X obj -854 87 0_length_ivo;
#X text -51 439 loop start;
#X text -51 460 loop end;
#X obj -604 1487 +~;
#X obj -387 723 line;
#X msg -387 693 \$1 3;
#X obj -606 741 line;
#X msg -606 701 \$1 3;
#N canvas 2239 125 1031 496 drawGraphs 0;
#X obj 280 73 inlet lengthOfLoopSMP;
#X obj 12 77 inlet lengthOfSampleSMP;
#X obj 543 72 inlet loopStartpoint;
#X obj 179 435 outlet loopStart;
#X obj 360 436 outlet loopEnd;
#X obj 265 205 t b f;
#X obj 250 305 /;
#X obj 391 227 t b f;
#X obj 311 303 expr ($f1 + $f3) / $f2;
#X obj 761 73 inlet sampleStartPoint;
#X obj 564 204 t b f;
#X obj 556 308 /;
#X obj 548 427 outlet sampleStartPoint;
#X connect 0 0 8 0;
#X connect 1 0 5 0;
#X connect 1 0 10 0;
#X connect 2 0 7 0;
#X connect 2 0 6 0;
#X connect 5 0 6 0;
#X connect 5 0 8 0;
#X connect 5 1 6 1;
#X connect 5 1 8 1;
#X connect 6 0 3 0;
#X connect 7 0 8 0;
#X connect 7 1 8 2;
#X connect 8 0 4 0;
#X connect 9 0 11 0;
#X connect 10 0 11 0;
#X connect 10 1 11 1;
#X connect 11 0 12 0;
#X restore -1146 413 pd drawGraphs;
#N canvas 1082 401 317 388 bangToSelectSample 0;
#X obj -258 73 bng 15 250 50 0 empty empty empty 17 7 0 10 -262144
-1 -1;
#X obj -258 113 openpanel;
#X obj -258 204 soundfiler;
#X floatatom -258 254 20 0 0 0 - - -;
#X text -239 72 Bang to select sample;
#X msg -258 156 read -resize \$1 sample;
#X obj -258 286 outlet maxl;
#X obj -258 40 inlet bangToSelect;
#X connect 0 0 1 0;
#X connect 1 0 5 0;
#X connect 2 0 3 0;
#X connect 3 0 6 0;
#X connect 5 0 2 0;
#X connect 7 0 0 0;
#X restore -44 314 pd bangToSelectSample;
#X obj -850 421 hsl 795 16 0 1 0 0 empty empty empty -2 -8 0 10 -262144
-4160 -4160 14888 1;
#X text -51 419 samp start;
#X obj -590 224 s loopLengthMS;
#X obj -606 552 r loopLengthMS;
#X obj -853 224 s loopLengthSMP;
#X obj -387 568 r loopLengthSMP;
#X obj -1132 311 r loopLengthSMP;
#X obj -326 225 s loopStartSMP;
#X obj -197 960 r loopStartSMP;
#X obj -1068 339 r loopStartSMP;
#X obj -61 223 s sampleStartSMP;
#X obj -1034 369 r sampleStartSMP;
#X floatatom -1019 486 5 0 0 0 - - -;
#X msg -777 875 0;
#X msg -567 822 1;
#X msg -520 891 0;
#X obj -44 961 r sampleStartSMP;
#X obj -605 1308 expr~ $v1 * ($f2) + ($f3);
#X obj -49 886 bng 15 250 50 0 empty empty empty 17 7 0 10 -262144
-1 -1;
#X obj -207 897 bng 15 250 50 0 empty empty empty 17 7 0 10 -262144
-1 -1;
#X floatatom -49 999 15 0 0 0 - - -;
#X floatatom -207 995 15 0 0 0 - - -;
#X obj -207 930 t b b;
#X obj -49 924 t b b;
#X obj -203 1338 metro 0.1;
#X obj -203 1395 snapshot~;
#X obj -203 1293 loadbang;
#X floatatom -68 1539 15 0 0 0 - - -;
#X floatatom -203 1500 9 0 0 0 - - -;
#X obj -223 1272 tgl 15 0 empty empty empty 17 7 0 10 -262144 -1 -1
0 1;
#X msg -223 1234 0;
#X obj -223 848 bng 15 250 50 0 empty empty empty 17 7 0 10 -262144
-1 -1;
#X obj -115 1438 moses;
#X obj -567 857 t b b;
#X obj -1063 773 s \$0-bangToStop;
#X obj -1063 739 bng 15 250 50 0 empty empty empty 17 7 0 10 -262144
-1 -1;
#X obj -1064 816 bng 15 250 50 0 empty empty empty 17 7 0 10 -262144
-1 -1;
#X obj -1064 849 s \$0-bangToStart;
#X obj -777 841 r \$0-bangToStop;
#X obj -567 788 r \$0-bangToStart;
#X obj -850 1506 s \$0-currentPosition;
#X obj -1168 215 r \$0-currentPosition;
#N canvas 665 204 815 620 calcPos 0;
#X obj -203 387 outlet;
#X obj -203 175 metro 0.1;
#X obj -203 310 snapshot~;
#X obj -203 130 loadbang;
#X floatatom -203 347 5 0 0 0 - - -;
#X obj -159 270 /~;
#X obj -159 216 inlet~;
#X obj -89 217 inlet maxl;
#X connect 1 0 2 0;
#X connect 2 0 4 0;
#X connect 3 0 1 0;
#X connect 4 0 0 0;
#X connect 5 0 2 0;
#X connect 6 0 5 0;
#X connect 7 0 5 1;
#X restore -850 1426 pd calcPos;
#X obj -59 1507 s &0-bangWhenIntroDone;
#X obj -59 1485 bng 15 250 50 0 empty empty empty 17 7 0 10 -262144
-1 -1;
#X obj -223 807 r &0-bangWhenIntroDone;
#N canvas 1989 299 640 462 this 0;
#X obj 152 119 inlet;
#X obj 372 132 inlet;
#X obj 89 118 inlet;
#X obj 308 132 inlet;
#X obj 128 229 switch;
#X obj 128 271 outlet;
#X msg 125 182 2;
#X msg 82 183 1;
#X connect 0 0 7 0;
#X connect 1 0 6 0;
#X connect 2 0 4 1;
#X connect 3 0 4 2;
#X connect 4 0 5 0;
#X connect 6 0 4 0;
#X connect 7 0 4 0;
#X restore -207 1082 pd this is just a switch;
#X floatatom -207 1119 15 0 0 0 - - -;
#X obj -49 848 r \$0-bangToStop;
#X connect 0 0 26 2;
#X connect 1 0 35 0;
#X connect 3 0 4 0;
#X connect 8 0 29 0;
#X connect 9 0 53 0;
#X connect 10 0 21 0;
#X connect 13 0 26 1;
#X connect 15 0 26 0;
#X connect 15 0 34 0;
#X connect 19 0 31 0;
#X connect 20 0 76 0;
#X connect 21 0 33 0;
#X connect 22 0 78 1;
#X connect 23 0 53 1;
#X connect 24 0 8 0;
#X connect 26 0 40 0;
#X connect 26 1 38 0;
#X connect 26 2 43 0;
#X connect 26 3 46 0;
#X connect 29 0 7 0;
#X connect 29 0 7 1;
#X connect 30 0 23 0;
#X connect 31 0 30 0;
#X connect 32 0 9 0;
#X connect 33 0 32 0;
#X connect 34 0 11 0;
#X connect 34 1 12 0;
#X connect 34 2 36 0;
#X connect 34 2 48 0;
#X connect 35 0 3 0;
#X connect 39 0 10 0;
#X connect 41 0 19 0;
#X connect 42 0 34 1;
#X connect 44 0 57 0;
#X connect 45 0 34 2;
#X connect 47 0 34 3;
#X connect 49 0 9 0;
#X connect 50 0 69 0;
#X connect 51 0 9 1;
#X connect 52 0 56 0;
#X connect 53 0 24 0;
#X connect 53 0 61 0;
#X connect 53 0 78 0;
#X connect 54 0 59 0;
#X connect 55 0 58 0;
#X connect 56 0 82 2;
#X connect 57 0 68 1;
#X connect 57 0 82 0;
#X connect 58 0 57 0;
#X connect 58 1 82 1;
#X connect 59 0 56 0;
#X connect 59 1 82 3;
#X connect 60 0 61 0;
#X connect 61 0 64 0;
#X connect 61 0 68 0;
#X connect 62 0 60 0;
#X connect 65 0 60 0;
#X connect 66 0 65 0;
#X connect 67 0 66 0;
#X connect 67 0 55 0;
#X connect 68 1 63 0;
#X connect 68 1 80 0;
#X connect 69 0 10 0;
#X connect 69 1 51 0;
#X connect 71 0 70 0;
#X connect 72 0 73 0;
#X connect 74 0 49 0;
#X connect 75 0 50 0;
#X connect 77 0 5 0;
#X connect 78 0 20 0;
#X connect 80 0 79 0;
#X connect 81 0 67 0;
#X connect 82 0 83 0;
#X connect 83 0 53 2;
#X connect 84 0 54 0;
#X coords 0 828 1 827 100 100 0;
