#N canvas 2091 66 1703 828 16;
#X floatatom -61 44 5 0 0 0 - - -;
#X obj -44 286 bng 15 250 50 0 empty empty empty 17 7 0 10 -262144
-1 -1;
#N canvas 0 0 450 300 (subpatch) 0;
#X array sample 341420 float 2;
#X coords 0 1 341420 -1 800 140 2 0 0;
#X restore -852 269 graph;
#X floatatom -44 356 20 0 0 0 - - -;
#X obj -44 388 s maxl;
#X obj -849 272 hsl 795 144 0 1 0 0 empty empty empty -2 -8 0 10 -262144
-4032 -1 29595 1;
#X text -25 285 Bang to select sample;
#X obj -255 1210 output~;
#X obj -850 441 hsl 795 16 0 1 0 0 empty empty empty -2 -8 0 10 -262144
-4034 -1 19850 1;
#X obj -850 463 hsl 795 16 0 1 0 0 empty empty empty -2 -8 0 10 -262144
-258113 -1 39700 1;
#X floatatom -459 50 5 0 0 0 - - -;
#X text -455 26 orig. bpm;
#X obj -853 45 r maxl;
#X text -893 22 length of sample;
#X text -567 935 Length in ms;
#X obj -195 1026 - 3;
#X text -58 13 playback bpm;
#X obj -853 87 0_length_ivo;
#X text -51 439 loop start;
#X text -51 460 loop end;
#N canvas 451 348 1031 496 drawGraphs 0;
#X obj 173 411 outlet loopStart;
#X obj 360 412 outlet loopEnd;
#X obj 173 204 t b f;
#X obj 173 311 /;
#X obj 440 228 t b f;
#X obj 360 304 expr ($f1 + $f3) / $f2;
#X obj 605 247 t b f;
#X obj 605 304 /;
#X obj 605 411 outlet sampleStartPoint;
#X obj 360 55 r loopLengthSMP;
#X obj 440 105 r loopStartSMP;
#X obj 690 106 r sampleStartSMP;
#X obj 173 92 r maxl;
#X connect 2 0 3 0;
#X connect 2 0 5 0;
#X connect 2 1 3 1;
#X connect 2 1 5 1;
#X connect 3 0 0 0;
#X connect 4 0 5 0;
#X connect 4 1 5 2;
#X connect 5 0 1 0;
#X connect 6 0 7 0;
#X connect 6 1 7 1;
#X connect 7 0 8 0;
#X connect 9 0 5 0;
#X connect 10 0 3 0;
#X connect 10 0 4 0;
#X connect 11 0 7 0;
#X connect 12 0 2 0;
#X connect 12 0 6 0;
#X restore -1003 398 pd drawGraphs;
#N canvas 1082 401 317 388 bangToSelectSample 0;
#X obj -258 73 bng 15 250 50 0 empty empty empty 17 7 0 10 -262144
-1 -1;
#X obj -258 113 openpanel;
#X obj -258 204 soundfiler;
#X floatatom -258 254 20 0 0 0 - - -;
#X text -239 72 Bang to select sample;
#X msg -258 156 read -resize \$1 sample;
#X obj -258 286 outlet maxl;
#X obj -258 40 inlet bangToSelect;
#X connect 0 0 1 0;
#X connect 1 0 5 0;
#X connect 2 0 3 0;
#X connect 3 0 6 0;
#X connect 5 0 2 0;
#X connect 7 0 0 0;
#X restore -44 314 pd bangToSelectSample;
#X obj -850 421 hsl 795 16 0 1 0 0 empty empty empty -2 -8 0 10 -262144
-4160 -4160 9925 1;
#X text -51 419 samp start;
#X obj -695 224 s loopLengthMS;
#X obj -739 778 r loopLengthMS;
#X obj -853 224 s loopLengthSMP;
#X obj -381 776 r loopLengthSMP;
#X obj -536 226 s loopStartSMP;
#X obj -378 226 s sampleStartSMP;
#X obj -1077 224 r \$0-currentPosition;
#X floatatom -381 830 15 0 0 0 - - -;
#X obj 24 777 r loopStartSMP;
#X msg 24 866 \$1;
#X floatatom 24 819 15 0 0 0 - - -;
#X floatatom 191 921 15 0 0 0 - - -;
#X msg 191 860 \$1;
#X floatatom 191 817 15 0 0 0 - - -;
#X obj 191 775 r sampleStartSMP;
#X obj 22 683 bng 15 250 50 0 empty empty empty 17 7 0 10 -262144 -1
-1;
#X text 49 682 start from loop;
#X obj -569 672 bng 15 250 50 0 empty empty empty 17 7 0 10 -262144
-1 -1;
#X text -548 671 start from sample;
#X floatatom -739 822 15 0 0 0 - - -;
#X floatatom -195 916 15 0 0 0 - - -;
#X obj -210 226 s introLengthMS;
#X obj -569 777 r introLengthMS;
#X floatatom -569 823 15 0 0 0 - - -;
#X obj -39 227 s introLengthSMP;
#X floatatom -195 830 15 0 0 0 - - -;
#X obj -195 778 r introLengthSMP;
#X text 13 587;
#N canvas 163 21 1110 907 player 0;
#X obj 699 526 inlet fromSMP;
#X obj 575 212 inlet LengthSMP;
#X obj 350 91 inlet LengthMS;
#X obj 85 40 inlet StartStop;
#X obj 85 115 route start stop;
#X obj 163 170 bng 15 250 50 0 empty empty empty 17 7 0 10 -262144
-1 -1;
#X obj 452 838 outlet~;
#X obj 452 718 tabread4~ sample;
#X floatatom 210 797 5 0 0 0 - - -;
#X obj 307 719 r maxl;
#X obj 575 481 - 3;
#X obj 451 682 +~ 1;
#X obj 453 770 +~;
#X obj 575 450 line;
#X msg 575 420 \$1 3;
#X msg 163 203 0;
#X obj 452 591 expr~ $v1 * ($f2) + ($f3);
#X obj 210 834 s \$0-currentPosition;
#N canvas 665 204 815 620 calcPos 0;
#X obj -203 387 outlet;
#X obj -203 175 metro 0.1;
#X obj -203 310 snapshot~;
#X obj -203 130 loadbang;
#X floatatom -203 347 5 0 0 0 - - -;
#X obj -159 270 /~;
#X obj -159 216 inlet~;
#X obj -89 217 inlet maxl;
#X connect 1 0 2 0;
#X connect 2 0 4 0;
#X connect 3 0 1 0;
#X connect 4 0 0 0;
#X connect 5 0 2 0;
#X connect 6 0 5 0;
#X connect 7 0 5 1;
#X restore 210 754 pd calcPos;
#X floatatom 575 374 15 0 0 0 - - -;
#X obj 452 528 vline~;
#X obj 267 294 metro;
#X msg 452 466 1 \$1;
#X obj 452 362 t b b;
#X msg 510 465 0 0;
#X obj 267 244 t b f;
#X floatatom 452 424 5 0 0 0 - - -;
#X obj 267 351 bng 15 250 50 0 empty empty empty 17 7 0 10 -262144
-1 -1;
#X msg 163 401 stop;
#X obj 267 383 s cycleStartBang;
#X connect 0 0 16 2;
#X connect 1 0 19 0;
#X connect 2 0 25 0;
#X connect 2 0 26 0;
#X connect 3 0 4 0;
#X connect 4 1 5 0;
#X connect 5 0 15 0;
#X connect 5 0 28 0;
#X connect 7 0 12 0;
#X connect 8 0 17 0;
#X connect 9 0 18 1;
#X connect 10 0 16 1;
#X connect 11 0 7 0;
#X connect 12 0 6 0;
#X connect 13 0 10 0;
#X connect 14 0 13 0;
#X connect 15 0 21 0;
#X connect 16 0 11 0;
#X connect 16 0 18 0;
#X connect 18 0 8 0;
#X connect 19 0 14 0;
#X connect 20 0 16 0;
#X connect 21 0 23 0;
#X connect 21 0 27 0;
#X connect 22 0 20 0;
#X connect 23 0 26 0;
#X connect 23 1 24 0;
#X connect 24 0 20 0;
#X connect 25 0 21 0;
#X connect 25 1 21 1;
#X connect 26 0 22 0;
#X connect 27 0 29 0;
#X connect 28 0 20 0;
#X restore -254 1142 pd player;
#X msg 245 59 start;
#X msg 182 59 stop;
#X floatatom -569 912 15 0 0 0 - - -;
#X obj 196 156 s transport;
#X obj -431 1090 r transport;
#N canvas 544 254 1051 645 selectIntroOrLoop 0;
#X obj 307 413 bng 15 250 50 0 empty empty empty 17 7 0 10 -262144
-1 -1;
#X obj 274 416 bng 15 250 50 0 empty empty empty 17 7 0 10 -262144
-1 -1;
#X obj 542 211 bng 15 250 50 0 empty empty empty 17 7 0 10 -262144
-1 -1;
#X obj 542 162 r cycleStartBang;
#X obj 274 68 r transport;
#X msg 341 235 goto 0;
#X obj 307 280 counter;
#X floatatom 307 327 5 0 0 0 - - -;
#X obj 274 142 t b b b;
#X obj 307 361 select 2;
#X obj 274 108 route start stop;
#X obj 352 142 t b b;
#X obj 274 512 outlet startSample;
#X obj 307 481 outlet startLoop;
#X connect 0 0 13 0;
#X connect 1 0 12 0;
#X connect 2 0 6 0;
#X connect 3 0 2 0;
#X connect 4 0 10 0;
#X connect 5 0 6 0;
#X connect 6 0 7 0;
#X connect 7 0 9 0;
#X connect 8 0 1 0;
#X connect 8 1 6 0;
#X connect 8 2 5 0;
#X connect 9 0 0 0;
#X connect 10 0 8 0;
#X connect 10 1 11 0;
#X connect 11 0 6 0;
#X connect 11 1 5 0;
#X restore -356 562 pd selectIntroOrLoop;
#X text -179 941 Length in smp;
#X text -571 957 sets how fast to play;
#X text 191 963 sets from where to play;
#X text -208 962 sets where to stop;
#X text 195 944 startpoint in smp;
#X connect 0 0 17 2;
#X connect 1 0 21 0;
#X connect 3 0 4 0;
#X connect 10 0 17 1;
#X connect 12 0 17 0;
#X connect 15 0 52 2;
#X connect 17 0 26 0;
#X connect 17 1 24 0;
#X connect 17 2 28 0;
#X connect 17 3 29 0;
#X connect 17 4 45 0;
#X connect 17 5 48 0;
#X connect 20 0 8 0;
#X connect 20 1 9 0;
#X connect 20 2 22 0;
#X connect 21 0 3 0;
#X connect 25 0 43 0;
#X connect 27 0 31 0;
#X connect 30 0 5 0;
#X connect 31 0 44 0;
#X connect 32 0 34 0;
#X connect 33 0 35 0;
#X connect 34 0 33 0;
#X connect 35 0 52 3;
#X connect 36 0 35 0;
#X connect 37 0 36 0;
#X connect 38 0 37 0;
#X connect 39 0 34 0;
#X connect 39 0 31 0;
#X connect 39 0 43 0;
#X connect 41 0 37 0;
#X connect 41 0 47 0;
#X connect 41 0 49 0;
#X connect 43 0 55 0;
#X connect 44 0 15 0;
#X connect 46 0 47 0;
#X connect 47 0 55 0;
#X connect 49 0 44 0;
#X connect 50 0 49 0;
#X connect 52 0 7 0;
#X connect 52 0 7 1;
#X connect 53 0 56 0;
#X connect 54 0 56 0;
#X connect 55 0 52 1;
#X connect 57 0 52 0;
#X connect 58 0 41 0;
#X connect 58 1 39 0;
#X coords 0 828 1 827 100 100 0;
