#N canvas 882 243 659 534 10;
#X floatatom 372 31 5 0 0 0 - - -;
#X text 371 9 bpm;
#X floatatom 372 90 5 0 0 0 - - -;
#X obj 370 200 / 4;
#X obj 372 60 / 60000;
#X text 415 87 beats per millisecond;
#X obj 371 143 /;
#X obj 371 116 t b f;
#X msg 325 116 1;
#X floatatom 370 170 5 0 0 0 - - -;
#X text 420 171 length of a beat;
#X floatatom 368 229 5 0 0 0 - - -;
#X text 423 230 length of a 1/16;
#X obj 14 24 0_length;
#X obj 20 136 0_length;
#X obj 21 247 0_length;
#X connect 0 0 4 0;
#X connect 2 0 7 0;
#X connect 3 0 11 0;
#X connect 4 0 2 0;
#X connect 6 0 9 0;
#X connect 7 0 8 0;
#X connect 7 1 6 1;
#X connect 8 0 6 0;
#X connect 9 0 3 0;
#X connect 11 0 13 0;
