#N canvas 224 10 1295 885 16;
#X floatatom 40 -143 5 0 0 0 - - -;
#X text 39 -166 bpm;
#X obj 40 -59 0_length;
#X obj -206 214 bng 15 250 50 0 empty empty empty 17 7 0 10 -262144
-1 -1;
#X obj -206 254 openpanel;
#X obj -206 345 soundfiler;
#N canvas 0 0 450 300 (subpatch) 0;
#X array sample 282111 float 2;
#X coords 0 1 282111 -1 200 140 1;
#X restore -209 39 graph;
#X floatatom -206 395 20 0 0 0 - - -;
#X obj -206 427 s maxl;
#X obj -207 185 hsl 195 15 0 1 0 0 empty empty empty -2 -8 0 10 -262144
-1 -1 0 1;
#X text -187 209 Bang to select sample;
#X msg -206 297 read -resize \$1 sample;
#X obj 178 589 output~;
#N canvas 220 205 450 530 bpm 0;
#X obj 111 48 inlet;
#X floatatom 111 132 5 0 0 0 - - -;
#X obj 111 277 / 4;
#X obj 111 102 / 60000;
#X text 154 129 beats per millisecond;
#X obj 111 223 /;
#X obj 111 160 t b f;
#X msg 111 192 1;
#X floatatom 111 250 5 0 0 0 - - -;
#X text 161 251 length of a beat;
#X floatatom 111 304 5 0 0 0 - - -;
#X text 166 305 length of a 1/16;
#X obj 111 349 outlet;
#X connect 0 0 3 0;
#X connect 1 0 6 0;
#X connect 2 0 10 0;
#X connect 3 0 1 0;
#X connect 5 0 8 0;
#X connect 6 0 7 0;
#X connect 6 1 5 1;
#X connect 7 0 5 0;
#X connect 8 0 2 0;
#X connect 10 0 12 0;
#X restore 40 -105 pd bpm to ms 16th;
#X obj 668 38 hsl 128 15 0.15 15 1 0 empty empty LFO_Rate -2 -8 0 10
-262144 -1 -1 0 1;
#X obj 775 75 hsl 128 15 0 1 0 0 empty empty LFO_Depth -2 -8 0 10 -262144
-1 -1 0 1;
#X obj 841 -75 vradio 15 1 0 4 empty empty empty 0 -8 0 10 -262144
-1 -1 0;
#X text 858 -32 s+h;
#X text 859 -82 sin;
#X text 858 -66 SwUp;
#X text 856 -48 SwDwn;
#X floatatom 665 76 5 0 0 0 - - -;
#X floatatom 662 167 5 0 0 0 - - -;
#N canvas 17 130 896 737 LFO 0;
#X obj 197 61 inlet;
#X obj 76 150 noise~;
#X obj 76 187 samphold~;
#X obj 163 150 phasor~;
#X obj 297 551 snapshot~;
#X obj -41 150 loadbang;
#X obj -41 187 bng 15 250 50 0 empty empty empty 17 7 0 10 -262144
-1 -1;
#X obj 157 783 outlet;
#X obj 449 694 inlet;
#X obj 301 233 osc~;
#X obj 76 224 expr~ ($v1+1)/2;
#X obj 620 41 inlet;
#X obj 301 307 *~ 0;
#X obj 301 270 expr~ ($v1+1)/2;
#X obj 476 233 phasor~;
#X obj 475 322 *~ 0;
#X obj 21 503 line;
#X msg 21 466 \$1 \$2;
#X obj 21 429 pack f f;
#X obj 20 350 snapshot~;
#X obj 21 540 * 0;
#X obj 129 356 inlet;
#X text 126 332 grainsize;
#X obj 157 746 *;
#X obj 607 209 phasor~;
#X obj 607 283 *~ 0;
#X obj 607 246 expr~ abs($v1-1);
#X obj -41 216 metro 0.1;
#X obj 475 551 snapshot~;
#X obj 608 551 snapshot~;
#X obj 157 672 expr $f1+$f2+$f3+$f4;
#X text 198 37 LFO Freq;
#X text 621 16 LFO Select;
#X text 506 693 LFO Depth;
#X obj 130 701 vsl 25 50 0 1 0 0 empty empty empty 0 -9 0 10 -262144
-1 -1 4900 1;
#X obj 510 29 loadbang;
#X msg 531 70 0;
#X floatatom 617 96 5 0 0 0 - - -;
#X obj 451 133 == 3;
#X obj 676 143 == 2;
#X obj 613 143 == 1;
#X obj 534 140 == 0;
#X obj 131 393 / 2;
#X connect 0 0 9 0;
#X connect 0 0 14 0;
#X connect 0 0 3 0;
#X connect 0 0 24 0;
#X connect 1 0 2 0;
#X connect 2 0 10 0;
#X connect 3 0 2 1;
#X connect 4 0 30 1;
#X connect 5 0 6 0;
#X connect 6 0 27 0;
#X connect 8 0 23 1;
#X connect 9 0 13 0;
#X connect 10 0 19 0;
#X connect 11 0 37 0;
#X connect 12 0 4 0;
#X connect 13 0 12 0;
#X connect 14 0 15 0;
#X connect 15 0 28 0;
#X connect 16 0 20 0;
#X connect 17 0 16 0;
#X connect 18 0 17 0;
#X connect 19 0 18 0;
#X connect 20 0 30 0;
#X connect 21 0 42 0;
#X connect 23 0 7 0;
#X connect 24 0 26 0;
#X connect 25 0 29 0;
#X connect 26 0 25 0;
#X connect 27 0 4 0;
#X connect 27 0 19 0;
#X connect 27 0 28 0;
#X connect 27 0 29 0;
#X connect 28 0 30 2;
#X connect 29 0 30 3;
#X connect 30 0 23 0;
#X connect 30 0 34 0;
#X connect 35 0 36 0;
#X connect 36 0 37 0;
#X connect 37 0 38 0;
#X connect 37 0 39 0;
#X connect 37 0 40 0;
#X connect 37 0 41 0;
#X connect 38 0 20 1;
#X connect 39 0 25 1;
#X connect 40 0 15 1;
#X connect 41 0 12 1;
#X connect 42 0 18 1;
#X coords 0 737 1 736 85 60 0;
#X restore 629 123 pd LFO;
#X obj 223 460 tabread4~ sample;
#X obj 629 -13 r grainSize;
#X connect 0 0 13 0;
#X connect 3 0 4 0;
#X connect 4 0 11 0;
#X connect 5 0 7 0;
#X connect 7 0 8 0;
#X connect 11 0 5 0;
#X connect 13 0 2 0;
#X connect 14 0 21 0;
#X connect 15 0 23 2;
#X connect 16 0 23 3;
#X connect 21 0 23 1;
#X connect 23 0 22 0;
#X connect 24 0 12 0;
#X connect 24 0 12 1;
#X connect 25 0 23 0;
#X coords 0 885 1 884 100 100 0;
