#N canvas 2046 89 1703 819 16;
#X floatatom 427 -241 5 0 0 0 - - -;
#X obj -268 173 bng 15 250 50 0 empty empty empty 17 7 0 10 -262144
-1 -1;
#X obj -268 213 openpanel;
#X obj -268 304 soundfiler;
#N canvas 0 0 450 300 (subpatch) 0;
#X array sample 341420 float 2;
#X coords 0 1 341420 -1 800 140 1 0 0;
#X restore -862 -54 graph;
#X floatatom -268 354 20 0 0 0 - - -;
#X obj -268 386 s maxl;
#X obj -859 131 hsl 795 16 0 1 0 0 empty empty empty -2 -8 0 10 -262144
-1 -1 28894 1;
#X text -249 172 Bang to select sample;
#X msg -268 256 read -resize \$1 sample;
#X obj 294 621 output~;
#N canvas 1983 222 450 530 bpm 0;
#X obj 111 48 inlet;
#X floatatom 111 132 5 0 0 0 - - -;
#X obj 111 277 / 4;
#X obj 111 102 / 60000;
#X text 167 134 beats per millisecond;
#X obj 111 223 /;
#X obj 111 160 t b f;
#X msg 111 192 1;
#X floatatom 111 250 5 0 0 0 - - -;
#X text 161 251 length of a beat;
#X floatatom 111 304 5 0 0 0 - - -;
#X text 166 305 length of a 1/16;
#X obj 111 349 outlet;
#X connect 0 0 3 0;
#X connect 1 0 6 0;
#X connect 2 0 10 0;
#X connect 3 0 1 0;
#X connect 5 0 8 0;
#X connect 6 0 7 0;
#X connect 6 1 5 1;
#X connect 7 0 5 0;
#X connect 8 0 2 0;
#X connect 10 0 12 0;
#X restore 506 -224 pd bpm to ms 16th;
#X obj 298 519 tabread4~ sample;
#X obj 297 288 phasor~;
#X floatatom 297 133 15 0 0 0 - - -;
#X obj 297 334 *~;
#X obj 129 393 metro 0.1;
#X obj 129 528 snapshot~;
#X obj 129 348 loadbang;
#X obj -859 89 hsl 795 16 0 1 0 0 empty empty empty -2 -8 0 10 -262144
-4034 -1 0 1;
#X obj -859 111 hsl 795 16 0 1 0 0 empty empty empty -2 -8 0 10 -262144
-258113 -1 78140 1;
#X floatatom 250 -238 5 0 0 0 - - -;
#X text 249 -264 orig. bpm;
#X obj 32 -244 r maxl;
#X text -8 -267 length of sample;
#X text 316 110 Length in ms;
#X text 478 152 länge des loops in smp;
#X floatatom 516 128 15 0 0 0 - - -;
#X floatatom 130 578 5 0 0 0 - - -;
#X obj 297 174 expr 1000 / $f1;
#X obj 173 488 /~;
#X obj 200 435 r maxl;
#X obj 516 265 - 3;
#X obj 297 483 +~ 1;
#X text 425 -268 playback bpm;
#X obj 63 -178 0_length_ivo;
#X text -60 87 loop start;
#X text -60 108 loop end;
#X text -57 128 position;
#X obj 38 -53 t b f;
#X obj 299 571 +~;
#X obj 516 231 line;
#X msg 516 191 \$1 3;
#X obj 297 245 line;
#X msg 297 205 \$1 3;
#X obj 297 435 +~;
#X obj -23 30 /;
#X floatatom 324 395 5 0 0 0 - - -;
#X text 384 394 startpoint;
#X obj 181 -44 t b f;
#X obj 31 29 expr ($f1 + $f3) / $f2;
#X connect 0 0 35 2;
#X connect 1 0 2 0;
#X connect 2 0 9 0;
#X connect 3 0 5 0;
#X connect 5 0 6 0;
#X connect 9 0 3 0;
#X connect 12 0 40 0;
#X connect 13 0 15 0;
#X connect 14 0 29 0;
#X connect 15 0 45 0;
#X connect 16 0 17 0;
#X connect 17 0 28 0;
#X connect 18 0 16 0;
#X connect 21 0 35 1;
#X connect 23 0 35 0;
#X connect 23 0 39 0;
#X connect 27 0 42 0;
#X connect 28 0 7 0;
#X connect 29 0 44 0;
#X connect 30 0 17 0;
#X connect 31 0 30 1;
#X connect 32 0 15 1;
#X connect 33 0 12 0;
#X connect 35 0 27 0;
#X connect 35 0 50 0;
#X connect 35 1 14 0;
#X connect 35 2 46 0;
#X connect 35 2 47 0;
#X connect 35 2 49 0;
#X connect 39 0 46 0;
#X connect 39 0 50 0;
#X connect 39 1 46 1;
#X connect 39 1 50 1;
#X connect 40 0 10 0;
#X connect 40 0 10 1;
#X connect 41 0 32 0;
#X connect 42 0 41 0;
#X connect 43 0 13 0;
#X connect 44 0 43 0;
#X connect 45 0 33 0;
#X connect 45 0 30 0;
#X connect 46 0 19 0;
#X connect 47 0 45 1;
#X connect 49 0 50 0;
#X connect 49 1 50 2;
#X connect 50 0 20 0;
#X coords 0 819 1 818 100 100 0;
