#N canvas 79 84 1534 752 10;
#X obj 259 -120 inlet;
#X obj -440 -83 inlet;
#X text -458 -103 samples original bpm;
#X floatatom -297 42 15 0 0 0 - - -;
#X obj -584 -155 inlet;
#X text -636 -139 length of sample in smp;
#X text -292 59 length of a bar in ms;
#X obj -557 -35 / 44.1;
#X floatatom -440 -46 5 0 0 0 - - -;
#X floatatom -557 -6 15 0 0 0 - - -;
#X text -603 10 length of sample in ms;
#X floatatom -440 42 15 0 0 0 - - -;
#X text -454 60 length of a 16th in ms;
#X obj -557 170 /;
#X floatatom -557 199 5 0 0 0 - - -;
#X text -519 198 number of 16th in sample;
#X obj -133 260 *;
#X obj -133 215 t b f;
#X floatatom -133 312 15 0 0 0 - - -;
#X obj -133 286 * 44.1;
#X obj -584 -94 t b f;
#X obj 16 -52 r numberOf16th;
#X floatatom 110 109 5 0 0 0 - - -;
#X obj -569 129 t b f;
#X floatatom 28 109 5 0 0 0 - - -;
#X floatatom 198 109 5 0 0 0 - - -;
#X obj 355 314 t b f;
#X obj 271 347 expr $f1 * $f2*44.1;
#N canvas 244 17 1263 981 loopSet 0;
#X obj -588 -487 inlet #of16th;
#X obj -588 -146 counter;
#X obj -447 -304 bng 15 250 50 0 empty empty empty 17 7 0 10 -262144
-1 -1;
#X floatatom 410 127 5 0 0 0 - - -;
#X obj -374 -303 bng 15 250 50 0 empty empty empty 17 7 0 10 -262144
-1 -1;
#X msg -374 -279 dec;
#X msg -447 -279 inc;
#X obj -588 -450 / 16;
#X msg -588 -282 jam \$1;
#X obj -588 -418 i;
#X floatatom -588 -391 5 0 0 0 - - -;
#X obj -638 -204 i;
#X msg -638 -176 jam \$1;
#X text 12 -329 -;
#X obj -99 -156 counter;
#X obj -78 -330 bng 15 250 50 0 empty empty empty 17 7 0 10 -262144
-1 -1;
#X floatatom 495 127 5 0 3 0 - - -;
#X obj -5 -329 bng 15 250 50 0 empty empty empty 17 7 0 10 -262144
-1 -1;
#X msg -5 -249 dec;
#X msg -78 -249 inc;
#X msg -238 -228 jam \$1;
#X floatatom -238 -305 5 0 0 0 - - -;
#X obj -238 -385 / 4;
#X obj -238 -338 expr $i1 - $i2 * 4;
#X text -199 -305 beats;
#X obj -169 -258 t b;
#X msg -169 -228 max 3;
#X text -250 -14 overflow;
#X obj -271 -14 bng 15 250 50 0 empty empty empty 17 7 0 10 -262144
-1 -1;
#X obj -271 -99 spigot;
#X msg -238 -137 0;
#X msg -207 -136 1;
#X obj -271 -58 sel 0;
#X text -60 -121 beats;
#X text 21 -8 underflow;
#X obj -1 -11 bng 15 250 50 0 empty empty empty 17 7 0 10 -262144 -1
-1;
#X obj -1 -102 spigot;
#X msg 32 -141 0;
#X msg 63 -140 1;
#X obj -1 -48 sel 3;
#X floatatom 207 -372 5 0 0 0 - - -;
#X text 582 142 16th;
#X msg 529 -347 dec;
#X msg 454 -342 inc;
#X msg 207 -321 jam \$1;
#X floatatom 582 127 5 0 0 0 - - -;
#X text 248 -371 16th;
#X obj 207 -402 expr $i1 - ($i1/4)*4;
#X text 240 -137 overflow;
#X text 490 -134 underflow;
#X obj 468 -137 bng 15 250 50 0 empty empty empty 17 7 0 10 -262144
-1 -1;
#X obj 219 -137 bng 15 250 50 0 empty empty empty 17 7 0 10 -262144
-1 -1;
#X obj 454 -427 bng 15 250 50 0 empty empty empty 17 7 0 10 -262144
-1 -1;
#X obj 529 -427 bng 15 250 50 0 empty empty empty 17 7 0 10 -262144
-1 -1;
#X obj 219 -209 spigot;
#X msg 207 -237 0;
#X msg 252 -238 1;
#X obj 468 -212 spigot;
#X msg 513 -251 0;
#X msg 556 -252 1;
#X obj 219 -172 sel 0;
#X obj 468 -172 sel 3;
#X obj 331 -209 counter 0 3;
#X obj 450 118 bng 15 250 50 0 empty empty empty 17 7 0 10 -262144
-1 -1;
#X obj 450 138 bng 15 250 50 0 empty empty empty 17 7 0 10 -262144
-1 -1;
#X text 467 138 -;
#X text 468 117 +;
#X obj 535 118 bng 15 250 50 0 empty empty empty 17 7 0 10 -262144
-1 -1;
#X obj 535 138 bng 15 250 50 0 empty empty empty 17 7 0 10 -262144
-1 -1;
#X text 552 138 -;
#X text 553 117 +;
#X obj 620 118 bng 15 250 50 0 empty empty empty 17 7 0 10 -262144
-1 -1;
#X obj 620 138 bng 15 250 50 0 empty empty empty 17 7 0 10 -262144
-1 -1;
#X text 637 138 -;
#X text 638 117 +;
#X text 493 142 beats;
#X text 410 142 bars;
#X text -549 -391 bars;
#X floatatom 405 429 5 0 0 0 - - -;
#X obj 540 384 expr $i1*16 + $i2*4 + $i3;
#X floatatom 540 443 5 0 0 0 - - -;
#X text 575 445 # of 16th in loop;
#X floatatom 405 515 15 0 0 0 - - -;
#X obj 405 470 expr (15000 / $f1)* $f2;
#X text 414 533 loopdauer in ms bei angegebenen bpm;
#X obj 513 411 t b f;
#X text 340 389 bpm input;
#X obj 586 332 t b i;
#X obj 660 332 t b i;
#X obj 405 389 inlet playbackBpm;
#X obj 405 570 outlet loopLengthMS;
#X obj 576 466 outlet 16thInLoop;
#X obj -577 -362 outlet origBars;
#X obj -231 -280 outlet origBeats;
#X obj 222 -346 outlet orig16th;
#X obj 529 -398 t b b;
#X obj 529 -398 t b b;
#X obj 454 -398 t b b;
#X obj -5 -300 t b b;
#X obj -5 -300 t b b;
#X obj -78 -299 t b b;
#X msg -640 -281 max \$1;
#X obj -271 13 s \$0-barUp;
#X obj 404 189 s \$0-barUp;
#X obj -447 -330 r \$0-barUp;
#X obj 399 213 s \$0-barDown;
#X obj 493 180 s \$0-beatUp;
#X obj 496 205 s \$0-beatDown;
#X obj 598 179 s \$0-16thUp;
#X obj 600 207 s \$0-16thDown;
#X obj 468 -107 s \$0-beatDown;
#X obj 219 -109 s \$0-beatUp;
#X obj -1 21 s \$0-barDown;
#X obj 453 -451 r \$0-16thUp;
#X obj 530 -452 r \$0-16thDown;
#X obj -5 -357 r \$0-beatDown;
#X obj -78 -355 r \$0-beatUp;
#X obj -374 -331 r \$0-barDown;
#X connect 0 0 7 0;
#X connect 0 0 22 0;
#X connect 0 0 47 0;
#X connect 1 0 3 0;
#X connect 2 0 6 0;
#X connect 3 0 11 0;
#X connect 3 0 79 0;
#X connect 4 0 5 0;
#X connect 5 0 1 0;
#X connect 6 0 1 0;
#X connect 7 0 9 0;
#X connect 8 0 1 0;
#X connect 9 0 10 0;
#X connect 10 0 8 0;
#X connect 10 0 23 1;
#X connect 10 0 92 0;
#X connect 10 0 101 0;
#X connect 11 0 12 0;
#X connect 12 0 1 0;
#X connect 14 0 16 0;
#X connect 14 0 29 0;
#X connect 15 0 100 0;
#X connect 16 0 36 0;
#X connect 16 0 87 0;
#X connect 17 0 98 0;
#X connect 18 0 14 0;
#X connect 19 0 14 0;
#X connect 20 0 14 0;
#X connect 20 0 30 0;
#X connect 20 0 37 0;
#X connect 21 0 20 0;
#X connect 21 0 25 0;
#X connect 21 0 93 0;
#X connect 22 0 23 0;
#X connect 23 0 21 0;
#X connect 25 0 26 0;
#X connect 26 0 14 0;
#X connect 28 0 102 0;
#X connect 29 0 32 0;
#X connect 30 0 29 1;
#X connect 31 0 29 1;
#X connect 32 0 28 0;
#X connect 35 0 112 0;
#X connect 36 0 39 0;
#X connect 37 0 36 1;
#X connect 38 0 36 1;
#X connect 39 0 35 0;
#X connect 40 0 44 0;
#X connect 40 0 94 0;
#X connect 42 0 62 0;
#X connect 43 0 62 0;
#X connect 44 0 55 0;
#X connect 44 0 58 0;
#X connect 44 0 62 0;
#X connect 45 0 54 0;
#X connect 45 0 57 0;
#X connect 45 0 88 0;
#X connect 47 0 40 0;
#X connect 50 0 110 0;
#X connect 51 0 111 0;
#X connect 52 0 97 0;
#X connect 53 0 95 0;
#X connect 54 0 60 0;
#X connect 55 0 54 1;
#X connect 56 0 54 1;
#X connect 57 0 61 0;
#X connect 58 0 57 1;
#X connect 59 0 57 1;
#X connect 60 0 51 0;
#X connect 61 0 50 0;
#X connect 62 0 45 0;
#X connect 63 0 103 0;
#X connect 64 0 105 0;
#X connect 67 0 106 0;
#X connect 68 0 107 0;
#X connect 71 0 108 0;
#X connect 72 0 109 0;
#X connect 78 0 83 0;
#X connect 79 0 85 0;
#X connect 80 0 83 1;
#X connect 80 0 91 0;
#X connect 82 0 90 0;
#X connect 83 0 82 0;
#X connect 85 0 83 0;
#X connect 85 1 80 0;
#X connect 87 0 79 0;
#X connect 87 1 79 1;
#X connect 88 0 79 0;
#X connect 88 1 79 2;
#X connect 89 0 78 0;
#X connect 95 0 42 0;
#X connect 95 1 59 0;
#X connect 95 1 55 0;
#X connect 97 0 43 0;
#X connect 97 1 56 0;
#X connect 97 1 58 0;
#X connect 98 0 18 0;
#X connect 98 1 38 0;
#X connect 98 1 30 0;
#X connect 100 0 19 0;
#X connect 100 1 31 0;
#X connect 100 1 37 0;
#X connect 101 0 1 0;
#X connect 104 0 2 0;
#X connect 113 0 52 0;
#X connect 114 0 53 0;
#X connect 115 0 17 0;
#X connect 116 0 15 0;
#X connect 117 0 4 0;
#X coords 0 -1 1 1 250 60 1 400 100;
#X restore 16 31 pd loopSet;
#X text 249 -147 playback bpm input;
#X floatatom 259 148 5 0 0 0 - - -;
#X obj 52 367 outlet loopLengthMS;
#X text 16 93 sample Length;
#X text -123 352 loop in smp;
#N canvas 2272 73 1519 836 loopStartSet 0;
#X obj -263 -217 inlet #of16th;
#X floatatom 375 772 5 0 0 0 - - -;
#X floatatom 459 771 5 0 3 0 - - -;
#X text 552 789 16th;
#X floatatom 547 771 5 0 0 0 - - -;
#X obj 415 762 bng 15 250 50 0 empty empty empty 17 7 0 10 -262144
-1 -1;
#X obj 415 782 bng 15 250 50 0 empty empty empty 17 7 0 10 -262144
-1 -1;
#X text 432 782 -;
#X text 433 761 +;
#X obj 500 762 bng 15 250 50 0 empty empty empty 17 7 0 10 -262144
-1 -1;
#X obj 500 782 bng 15 250 50 0 empty empty empty 17 7 0 10 -262144
-1 -1;
#X text 517 782 -;
#X text 518 761 +;
#X obj 585 762 bng 15 250 50 0 empty empty empty 17 7 0 10 -262144
-1 -1;
#X obj 585 782 bng 15 250 50 0 empty empty empty 17 7 0 10 -262144
-1 -1;
#X text 602 782 -;
#X text 603 761 +;
#X text 457 786 beats;
#X text 375 786 bars;
#X text -439 -101 maximum of bars/beats/16ths;
#X floatatom -263 -102 5 0 0 0 - - -;
#X floatatom -124 -102 5 0 0 0 - - -;
#X floatatom 16 -102 5 0 0 0 - - -;
#X floatatom -263 -186 5 0 0 0 - - -;
#X obj -263 -160 expr $i1 / 16 \; $i1/4 - ($i1/16)*4 \; $i1 - ($i1/4
- ($i1/16)*4)*4 - ($i1 / 16) * 16 \;;
#X text -169 -217 sample länge in 16teln;
#X obj 102 -215 inlet #of16th;
#X floatatom 102 -100 5 0 0 0 - - -;
#X floatatom 241 -100 5 0 0 0 - - -;
#X floatatom 381 -100 5 0 0 0 - - -;
#X floatatom 102 -184 5 0 0 0 - - -;
#X obj 102 -158 expr $i1 / 16 \; $i1/4 - ($i1/16)*4 \; $i1 - ($i1/4
- ($i1/16)*4)*4 - ($i1 / 16) * 16 \;;
#X text 196 -215 loop länge in 16teln;
#X msg 683 406 dec;
#X msg 467 399 inc;
#X text 482 646 overflow;
#X text 658 652 underflow;
#X obj 636 649 bng 15 250 50 0 empty empty empty 17 7 0 10 -262144
-1 -1;
#X obj 461 646 bng 15 250 50 0 empty empty empty 17 7 0 10 -262144
-1 -1;
#X obj 467 336 bng 15 250 50 0 empty empty empty 17 7 0 10 -262144
-1 -1;
#X obj 683 340 bng 15 250 50 0 empty empty empty 17 7 0 10 -262144
-1 -1;
#X obj 461 574 spigot;
#X obj 636 574 spigot;
#X obj 461 611 sel 0;
#X obj 636 614 sel 3;
#X obj 548 457 counter 0 3;
#X floatatom 551 513 5 0 0 0 - - -;
#X obj 467 369 t b b;
#X msg 494 436 1;
#X msg 448 437 0;
#X msg 710 433 1;
#X msg 669 434 0;
#X obj 683 373 t b b;
#X msg 348 405 dec;
#X msg 132 398 inc;
#X text 147 645 overflow;
#X text 323 651 underflow;
#X obj 301 648 bng 15 250 50 0 empty empty empty 17 7 0 10 -262144
-1 -1;
#X obj 126 645 bng 15 250 50 0 empty empty empty 17 7 0 10 -262144
-1 -1;
#X obj 132 335 bng 15 250 50 0 empty empty empty 17 7 0 10 -262144
-1 -1;
#X obj 348 339 bng 15 250 50 0 empty empty empty 17 7 0 10 -262144
-1 -1;
#X obj 126 573 spigot;
#X obj 301 573 spigot;
#X obj 126 610 sel 0;
#X obj 301 613 sel 3;
#X floatatom 216 512 5 0 0 0 - - -;
#X obj 132 368 t b b;
#X msg 159 435 1;
#X msg 113 436 0;
#X msg 375 432 1;
#X msg 334 433 0;
#X obj 348 372 t b b;
#X msg -32 407 dec;
#X msg -248 400 inc;
#X text -233 647 overflow;
#X text -57 653 underflow;
#X obj -79 650 bng 15 250 50 0 empty empty empty 17 7 0 10 -262144
-1 -1;
#X obj -254 647 bng 15 250 50 0 empty empty empty 17 7 0 10 -262144
-1 -1;
#X obj -248 337 bng 15 250 50 0 empty empty empty 17 7 0 10 -262144
-1 -1;
#X obj -32 341 bng 15 250 50 0 empty empty empty 17 7 0 10 -262144
-1 -1;
#X obj -254 575 spigot;
#X obj -79 575 spigot;
#X obj -254 612 sel 0;
#X obj -79 615 sel 3;
#X floatatom -167 514 5 0 0 0 - - -;
#X obj -248 370 t b b;
#X msg -221 437 1;
#X msg -267 438 0;
#X msg -5 434 1;
#X msg -46 435 0;
#X obj -32 374 t b b;
#X obj -167 458 counter 0 1000;
#X floatatom -25 -19 5 0 0 0 - - -;
#X text 11 -21 anzahl der verfügbaren 16tel;
#X obj -24 -72 t b i;
#X obj -24 -45 -;
#X floatatom -25 69 5 0 0 0 - - -;
#X floatatom 114 69 5 0 0 0 - - -;
#X floatatom 254 69 5 0 0 0 - - -;
#X obj -25 8 expr $i1 / 16 \; $i1/4 - ($i1/16)*4 \; $i1 - ($i1/4 -
($i1/16)*4)*4 - ($i1 / 16) * 16 \;;
#X msg -167 298 max \$1;
#X text -246 319 +;
#X text -32 321 -;
#X text 135 318 +;
#X text 349 319 -;
#X text 469 317 +;
#X text 684 322 -;
#X obj 213 456 counter 0 3;
#X obj 53 163 expr if ($i1 == $i2 \, $i3 \, 3);
#X obj 102 134 t b i;
#X obj 177 132 t b i;
#X floatatom 213 223 5 0 0 0 - - -;
#X msg 213 247 max \$1;
#X obj 373 131 t b i;
#X obj 458 128 t b i;
#X obj 546 126 t b i;
#X obj 355 163 expr if ($i1 == $i2 && $i3 == $i4 \, $i5 \, 3);
#X floatatom 549 240 5 0 0 0 - - -;
#X msg 549 264 max \$1;
#X obj 416 977 expr ($i1*16 + $i2*4 + $i3);
#X obj 462 937 t b i;
#X floatatom 416 1003 5 0 0 0 - - -;
#X obj 523 928 t b i;
#X text 340 1001 start after;
#X text 454 1005 16ths;
#X obj 416 1050 outlet loopStart16ths;
#X obj -291 301 r \$1-barUp;
#X obj -56 296 r \$1-barDown;
#X obj 409 822 s \$1-barUp;
#X obj 411 846 s \$1-barDown;
#X obj 94 293 r \$1-beatUp;
#X obj 317 299 r \$1-beatDown;
#X obj 435 296 r \$1-16thUp;
#X obj 642 296 r \$1-16thDown;
#X obj 522 818 s \$1-beatUp;
#X obj 525 842 s \$1-beatDown;
#X obj 635 820 s \$1-16thUp;
#X obj 639 842 s \$1-16thDown;
#X connect 0 0 23 0;
#X connect 1 0 119 0;
#X connect 2 0 120 0;
#X connect 4 0 122 0;
#X connect 5 0 128 0;
#X connect 6 0 129 0;
#X connect 9 0 134 0;
#X connect 10 0 135 0;
#X connect 13 0 136 0;
#X connect 14 0 137 0;
#X connect 23 0 24 0;
#X connect 23 0 95 0;
#X connect 24 0 20 0;
#X connect 24 1 21 0;
#X connect 24 2 22 0;
#X connect 26 0 30 0;
#X connect 30 0 31 0;
#X connect 30 0 94 0;
#X connect 31 0 27 0;
#X connect 31 1 28 0;
#X connect 31 2 29 0;
#X connect 33 0 45 0;
#X connect 34 0 45 0;
#X connect 37 0 60 0;
#X connect 38 0 59 0;
#X connect 39 0 47 0;
#X connect 40 0 52 0;
#X connect 41 0 43 0;
#X connect 42 0 44 0;
#X connect 43 0 38 0;
#X connect 44 0 37 0;
#X connect 45 0 46 0;
#X connect 46 0 41 0;
#X connect 46 0 42 0;
#X connect 46 0 4 0;
#X connect 47 0 34 0;
#X connect 47 1 51 0;
#X connect 47 1 48 0;
#X connect 48 0 41 1;
#X connect 49 0 41 1;
#X connect 50 0 42 1;
#X connect 51 0 42 1;
#X connect 52 0 33 0;
#X connect 52 1 49 0;
#X connect 52 1 50 0;
#X connect 53 0 107 0;
#X connect 54 0 107 0;
#X connect 57 0 79 0;
#X connect 58 0 78 0;
#X connect 59 0 66 0;
#X connect 60 0 71 0;
#X connect 61 0 63 0;
#X connect 62 0 64 0;
#X connect 63 0 58 0;
#X connect 64 0 57 0;
#X connect 65 0 61 0;
#X connect 65 0 62 0;
#X connect 65 0 2 0;
#X connect 65 0 114 0;
#X connect 66 0 54 0;
#X connect 66 1 70 0;
#X connect 66 1 67 0;
#X connect 67 0 61 1;
#X connect 68 0 61 1;
#X connect 69 0 62 1;
#X connect 70 0 62 1;
#X connect 71 0 53 0;
#X connect 71 1 68 0;
#X connect 71 1 69 0;
#X connect 72 0 91 0;
#X connect 73 0 91 0;
#X connect 78 0 85 0;
#X connect 79 0 90 0;
#X connect 80 0 82 0;
#X connect 81 0 83 0;
#X connect 82 0 77 0;
#X connect 83 0 76 0;
#X connect 84 0 80 0;
#X connect 84 0 81 0;
#X connect 84 0 1 0;
#X connect 84 0 108 0;
#X connect 84 0 116 0;
#X connect 85 0 73 0;
#X connect 85 1 89 0;
#X connect 85 1 86 0;
#X connect 86 0 80 1;
#X connect 87 0 80 1;
#X connect 88 0 81 1;
#X connect 89 0 81 1;
#X connect 90 0 72 0;
#X connect 90 1 87 0;
#X connect 90 1 88 0;
#X connect 91 0 84 0;
#X connect 92 0 99 0;
#X connect 94 0 95 0;
#X connect 94 1 95 1;
#X connect 95 0 92 0;
#X connect 96 0 100 0;
#X connect 96 0 109 0;
#X connect 96 0 113 0;
#X connect 97 0 110 0;
#X connect 97 0 115 0;
#X connect 98 0 116 4;
#X connect 99 0 96 0;
#X connect 99 1 97 0;
#X connect 99 2 98 0;
#X connect 100 0 91 0;
#X connect 107 0 65 0;
#X connect 108 0 111 0;
#X connect 109 0 108 0;
#X connect 109 1 108 1;
#X connect 110 0 108 0;
#X connect 110 1 108 2;
#X connect 111 0 112 0;
#X connect 112 0 107 0;
#X connect 113 0 116 0;
#X connect 113 1 116 1;
#X connect 114 0 116 0;
#X connect 114 1 116 2;
#X connect 115 0 116 0;
#X connect 115 1 116 3;
#X connect 116 0 117 0;
#X connect 117 0 118 0;
#X connect 118 0 45 0;
#X connect 119 0 121 0;
#X connect 120 0 119 0;
#X connect 120 1 119 1;
#X connect 121 0 125 0;
#X connect 122 0 119 0;
#X connect 122 1 119 2;
#X connect 126 0 78 0;
#X connect 127 0 79 0;
#X connect 130 0 59 0;
#X connect 131 0 60 0;
#X connect 132 0 39 0;
#X connect 133 0 40 0;
#X coords 0 -1 1 1 250 60 1 368 745;
#X restore 271 31 pd loopStartSet;
#X obj -440 80 s \$0-16thLengthMS;
#X obj 355 275 r \$0-16thLengthMS;
#N canvas 2184 84 1519 836 sampletartSet 0;
#X obj -25 -70 inlet #of16th;
#X floatatom 375 772 5 0 0 0 - - -;
#X floatatom 459 771 5 0 3 0 - - -;
#X text 552 789 16th;
#X floatatom 547 771 5 0 0 0 - - -;
#X obj 415 762 bng 15 250 50 0 empty empty empty 17 7 0 10 -262144
-1 -1;
#X obj 415 782 bng 15 250 50 0 empty empty empty 17 7 0 10 -262144
-1 -1;
#X text 432 782 -;
#X text 433 761 +;
#X obj 500 762 bng 15 250 50 0 empty empty empty 17 7 0 10 -262144
-1 -1;
#X obj 500 782 bng 15 250 50 0 empty empty empty 17 7 0 10 -262144
-1 -1;
#X text 517 782 -;
#X text 518 761 +;
#X obj 585 762 bng 15 250 50 0 empty empty empty 17 7 0 10 -262144
-1 -1;
#X obj 585 782 bng 15 250 50 0 empty empty empty 17 7 0 10 -262144
-1 -1;
#X text 602 782 -;
#X text 603 761 +;
#X text 457 786 beats;
#X text 375 786 bars;
#X text 69 -70 sample länge in 16teln;
#X msg 683 406 dec;
#X msg 467 399 inc;
#X text 482 646 overflow;
#X text 658 652 underflow;
#X obj 636 649 bng 15 250 50 0 empty empty empty 17 7 0 10 -262144
-1 -1;
#X obj 461 646 bng 15 250 50 0 empty empty empty 17 7 0 10 -262144
-1 -1;
#X obj 467 336 bng 15 250 50 0 empty empty empty 17 7 0 10 -262144
-1 -1;
#X obj 683 340 bng 15 250 50 0 empty empty empty 17 7 0 10 -262144
-1 -1;
#X obj 461 574 spigot;
#X obj 636 574 spigot;
#X obj 461 611 sel 0;
#X obj 636 614 sel 3;
#X obj 548 457 counter 0 3;
#X floatatom 551 513 5 0 0 0 - - -;
#X obj 467 369 t b b;
#X msg 494 436 1;
#X msg 448 437 0;
#X msg 710 433 1;
#X msg 669 434 0;
#X obj 683 373 t b b;
#X msg 348 405 dec;
#X msg 132 398 inc;
#X text 147 645 overflow;
#X text 323 651 underflow;
#X obj 301 648 bng 15 250 50 0 empty empty empty 17 7 0 10 -262144
-1 -1;
#X obj 126 645 bng 15 250 50 0 empty empty empty 17 7 0 10 -262144
-1 -1;
#X obj 132 335 bng 15 250 50 0 empty empty empty 17 7 0 10 -262144
-1 -1;
#X obj 348 339 bng 15 250 50 0 empty empty empty 17 7 0 10 -262144
-1 -1;
#X obj 126 573 spigot;
#X obj 301 573 spigot;
#X obj 126 610 sel 0;
#X obj 301 613 sel 3;
#X floatatom 216 512 5 0 0 0 - - -;
#X obj 132 368 t b b;
#X msg 159 435 1;
#X msg 113 436 0;
#X msg 375 432 1;
#X msg 334 433 0;
#X obj 348 372 t b b;
#X msg -32 407 dec;
#X msg -248 400 inc;
#X text -233 647 overflow;
#X text -57 653 underflow;
#X obj -79 650 bng 15 250 50 0 empty empty empty 17 7 0 10 -262144
-1 -1;
#X obj -254 647 bng 15 250 50 0 empty empty empty 17 7 0 10 -262144
-1 -1;
#X obj -248 337 bng 15 250 50 0 empty empty empty 17 7 0 10 -262144
-1 -1;
#X obj -32 341 bng 15 250 50 0 empty empty empty 17 7 0 10 -262144
-1 -1;
#X obj -254 575 spigot;
#X obj -79 575 spigot;
#X obj -254 612 sel 0;
#X obj -79 615 sel 3;
#X floatatom -167 514 5 0 0 0 - - -;
#X obj -248 370 t b b;
#X msg -221 437 1;
#X msg -267 438 0;
#X msg -5 434 1;
#X msg -46 435 0;
#X obj -32 374 t b b;
#X floatatom -25 -19 5 0 0 0 - - -;
#X text 11 -21 anzahl der verfügbaren 16tel;
#X floatatom -25 69 5 0 0 0 - - -;
#X floatatom 114 69 5 0 0 0 - - -;
#X floatatom 254 69 5 0 0 0 - - -;
#X obj -25 8 expr $i1 / 16 \; $i1/4 - ($i1/16)*4 \; $i1 - ($i1/4 -
($i1/16)*4)*4 - ($i1 / 16) * 16 \;;
#X text -246 319 +;
#X text -32 321 -;
#X text 135 318 +;
#X text 349 319 -;
#X text 469 317 +;
#X text 684 322 -;
#X obj 213 456 counter 0 3;
#X obj 53 163 expr if ($i1 == $i2 \, $i3 \, 3);
#X obj 102 134 t b i;
#X obj 177 132 t b i;
#X floatatom 213 223 5 0 0 0 - - -;
#X msg 213 247 max \$1;
#X obj 373 131 t b i;
#X obj 458 128 t b i;
#X obj 546 126 t b i;
#X obj 355 163 expr if ($i1 == $i2 && $i3 == $i4 \, $i5 \, 3);
#X floatatom 549 240 5 0 0 0 - - -;
#X msg 549 264 max \$1;
#X obj 416 977 expr ($i1*16 + $i2*4 + $i3);
#X obj 462 937 t b i;
#X floatatom 416 1003 5 0 0 0 - - -;
#X obj 523 928 t b i;
#X text 340 1001 start after;
#X text 454 1005 16ths;
#X obj 416 1050 outlet loopStart16ths;
#X obj 409 822 s \$2-barUp;
#X obj 408 846 s \$2-barDown;
#X obj 522 818 s \$2-beatUp;
#X obj 525 842 s \$2-beatDown;
#X obj 635 819 s \$2-16thUp;
#X obj 636 844 s \$2-16thDown;
#X obj 642 296 r \$2-16thDown;
#X obj 435 296 r \$2-16thUp;
#X obj 317 299 r \$2-beatDown;
#X obj 91 292 r \$2-beatUp;
#X obj -56 296 r \$2-barDown;
#X obj -291 301 r \$2-barUp;
#X obj -167 460 counter;
#X msg -167 298 max \$1;
#X connect 0 0 78 0;
#X connect 1 0 102 0;
#X connect 2 0 103 0;
#X connect 4 0 105 0;
#X connect 5 0 109 0;
#X connect 6 0 110 0;
#X connect 9 0 111 0;
#X connect 10 0 112 0;
#X connect 13 0 113 0;
#X connect 14 0 114 0;
#X connect 20 0 32 0;
#X connect 21 0 32 0;
#X connect 24 0 47 0;
#X connect 25 0 46 0;
#X connect 26 0 34 0;
#X connect 27 0 39 0;
#X connect 28 0 30 0;
#X connect 29 0 31 0;
#X connect 30 0 25 0;
#X connect 31 0 24 0;
#X connect 32 0 33 0;
#X connect 33 0 28 0;
#X connect 33 0 29 0;
#X connect 33 0 4 0;
#X connect 34 0 21 0;
#X connect 34 1 38 0;
#X connect 34 1 35 0;
#X connect 35 0 28 1;
#X connect 36 0 28 1;
#X connect 37 0 29 1;
#X connect 38 0 29 1;
#X connect 39 0 20 0;
#X connect 39 1 36 0;
#X connect 39 1 37 0;
#X connect 40 0 90 0;
#X connect 41 0 90 0;
#X connect 44 0 66 0;
#X connect 45 0 65 0;
#X connect 46 0 53 0;
#X connect 47 0 58 0;
#X connect 48 0 50 0;
#X connect 49 0 51 0;
#X connect 50 0 45 0;
#X connect 51 0 44 0;
#X connect 52 0 48 0;
#X connect 52 0 49 0;
#X connect 52 0 2 0;
#X connect 52 0 97 0;
#X connect 53 0 41 0;
#X connect 53 1 57 0;
#X connect 53 1 54 0;
#X connect 54 0 48 1;
#X connect 55 0 48 1;
#X connect 56 0 49 1;
#X connect 57 0 49 1;
#X connect 58 0 40 0;
#X connect 58 1 55 0;
#X connect 58 1 56 0;
#X connect 59 0 121 0;
#X connect 60 0 121 0;
#X connect 65 0 72 0;
#X connect 66 0 77 0;
#X connect 67 0 69 0;
#X connect 68 0 70 0;
#X connect 69 0 64 0;
#X connect 70 0 63 0;
#X connect 71 0 67 0;
#X connect 71 0 68 0;
#X connect 71 0 1 0;
#X connect 71 0 91 0;
#X connect 71 0 99 0;
#X connect 72 0 60 0;
#X connect 72 1 76 0;
#X connect 72 1 73 0;
#X connect 73 0 67 1;
#X connect 74 0 67 1;
#X connect 75 0 68 1;
#X connect 76 0 68 1;
#X connect 77 0 59 0;
#X connect 77 1 74 0;
#X connect 77 1 75 0;
#X connect 78 0 83 0;
#X connect 80 0 122 0;
#X connect 80 0 92 0;
#X connect 80 0 96 0;
#X connect 81 0 93 0;
#X connect 81 0 98 0;
#X connect 82 0 99 4;
#X connect 83 0 80 0;
#X connect 83 1 81 0;
#X connect 83 2 82 0;
#X connect 90 0 52 0;
#X connect 91 0 94 0;
#X connect 92 0 91 0;
#X connect 92 1 91 1;
#X connect 93 0 91 0;
#X connect 93 1 91 2;
#X connect 94 0 95 0;
#X connect 95 0 90 0;
#X connect 96 0 99 0;
#X connect 96 1 99 1;
#X connect 97 0 99 0;
#X connect 97 1 99 2;
#X connect 98 0 99 0;
#X connect 98 1 99 3;
#X connect 99 0 100 0;
#X connect 100 0 101 0;
#X connect 101 0 32 0;
#X connect 102 0 104 0;
#X connect 103 0 102 0;
#X connect 103 1 102 1;
#X connect 104 0 108 0;
#X connect 105 0 102 0;
#X connect 105 1 102 2;
#X connect 115 0 27 0;
#X connect 116 0 26 0;
#X connect 117 0 47 0;
#X connect 118 0 46 0;
#X connect 119 0 66 0;
#X connect 120 0 65 0;
#X connect 121 0 71 0;
#X connect 122 0 121 0;
#X coords 0 -1 1 1 250 60 1 368 745;
#X restore 526 32 pd sampletartSet;
#X obj 271 393 outlet startpointLoopSMP;
#X obj 526 391 outlet startPointSampleSMP;
#X obj 610 314 t b f;
#X obj 526 347 expr $f1 * $f2*44.1;
#X obj 610 277 r \$0-16thLengthMS;
#X floatatom 271 315 5 0 0 0 - - -;
#X floatatom -584 -121 15 0 0 0 - - -;
#X obj -557 238 s numberOf16th;
#X text 22 381 loopdauer in ms bei angegebenen bpm;
#X obj 848 192 -;
#X obj 848 161 t b i;
#X floatatom 848 224 5 0 0 0 - - -;
#X text 797 240 length of intro in 16ths;
#X floatatom 747 -60 5 0 0 0 - - -;
#X obj 746 344 expr (15000/$f1) * $f2;
#X obj 848 306 t b i;
#X obj 746 392 outlet introLengthMS;
#X obj 979 239 *;
#X obj 979 196 t b f;
#X floatatom 979 291 15 0 0 0 - - -;
#X obj 979 265 * 44.1;
#X obj 958 165 r \$0-16thLengthMS;
#X text 982 379 intro in smp;
#X obj 979 401 outlet introInSMP;
#N canvas 1950 137 450 515 bpmToMS 0;
#X floatatom -72 101 5 0 0 0 - - -;
#X obj -72 71 / 60000;
#X obj -72 192 /;
#X obj -72 129 t b f;
#X msg -72 161 1;
#X floatatom -72 219 5 0 0 0 - - -;
#X obj -72 250 * 4;
#X floatatom -72 287 15 0 0 0 - - -;
#X text -39 213 length of a beat in ms;
#X text -37 99 beats per ms;
#X text -67 308 length of a bar in ms;
#X floatatom -72 35 5 0 0 0 - - -;
#X obj -72 -31 inlet origBpm;
#X obj -133 367;
#X connect 0 0 3 0;
#X connect 1 0 0 0;
#X connect 2 0 5 0;
#X connect 3 0 4 0;
#X connect 3 1 2 1;
#X connect 4 0 2 0;
#X connect 5 0 6 0;
#X connect 6 0 7 0;
#X connect 11 0 1 0;
#X connect 12 0 11 0;
#X restore -1067 -111 pd bpmToMS;
#N canvas 1943 67 595 460 bpmToMS 0;
#X floatatom -319 143 5 0 0 0 - - -;
#X obj -319 113 / 60000;
#X obj -319 234 /;
#X obj -319 171 t b f;
#X msg -319 203 1;
#X floatatom -319 261 15 0 0 0 - - -;
#X obj -150 308 * 4;
#X floatatom -150 346 15 0 0 0 - - -;
#X text -316 280 length of a beat in ms;
#X text -284 141 beats per ms;
#X text -145 367 length of a bar in ms;
#X floatatom -319 77 5 0 0 0 - - -;
#X obj -319 30 inlet origBpm;
#X obj -319 384 outlet oneBeatDurationMS;
#X obj -150 385 outlet oneBarDurationMS;
#X obj -493 384 outlet one16thDurationMS;
#X floatatom -493 344 15 0 0 0 - - -;
#X obj -493 311 / 4;
#X text -488 365 length of a 16th in ms;
#X connect 0 0 3 0;
#X connect 1 0 0 0;
#X connect 2 0 5 0;
#X connect 3 0 4 0;
#X connect 3 1 2 1;
#X connect 4 0 2 0;
#X connect 5 0 6 0;
#X connect 5 0 13 0;
#X connect 5 0 17 0;
#X connect 6 0 7 0;
#X connect 7 0 14 0;
#X connect 11 0 1 0;
#X connect 12 0 11 0;
#X connect 16 0 15 0;
#X connect 17 0 16 0;
#X restore -440 -3 pd bpmToMS;
#X obj -133 370 outlet looplengthInSMP;
#X obj -251 217 r \$0-16thLengthMS;
#X connect 0 0 28 1;
#X connect 0 0 51 0;
#X connect 1 0 8 0;
#X connect 4 0 44 0;
#X connect 7 0 9 0;
#X connect 8 0 63 0;
#X connect 9 0 13 0;
#X connect 11 0 23 0;
#X connect 11 0 35 0;
#X connect 13 0 14 0;
#X connect 14 0 45 0;
#X connect 16 0 19 0;
#X connect 17 0 16 0;
#X connect 17 1 16 1;
#X connect 18 0 64 0;
#X connect 19 0 18 0;
#X connect 20 0 8 0;
#X connect 20 1 7 0;
#X connect 21 0 28 0;
#X connect 21 0 34 0;
#X connect 23 0 13 0;
#X connect 23 1 13 1;
#X connect 26 0 27 0;
#X connect 26 1 27 1;
#X connect 27 0 38 0;
#X connect 28 0 24 0;
#X connect 28 1 22 0;
#X connect 28 2 25 0;
#X connect 28 3 31 0;
#X connect 28 4 30 0;
#X connect 28 4 34 1;
#X connect 30 0 17 0;
#X connect 34 0 37 0;
#X connect 34 0 43 0;
#X connect 34 0 47 0;
#X connect 36 0 26 0;
#X connect 37 0 41 0;
#X connect 37 0 48 0;
#X connect 40 0 41 0;
#X connect 40 1 41 1;
#X connect 41 0 39 0;
#X connect 42 0 40 0;
#X connect 43 0 27 0;
#X connect 44 0 20 0;
#X connect 47 0 49 0;
#X connect 48 0 47 0;
#X connect 48 1 47 1;
#X connect 49 0 53 0;
#X connect 49 0 56 0;
#X connect 51 0 52 0;
#X connect 52 0 54 0;
#X connect 53 0 52 0;
#X connect 53 1 52 1;
#X connect 55 0 58 0;
#X connect 56 0 55 0;
#X connect 56 1 55 1;
#X connect 57 0 61 0;
#X connect 58 0 57 0;
#X connect 59 0 55 0;
#X connect 63 0 11 0;
#X connect 63 2 3 0;
#X connect 65 0 16 0;
#X coords -1 -1 1 1 800 130 1 0 0;
