#N canvas 1917 428 1787 581 10;
#X text 130 6 1/4;
#X text 173 6 1/16;
#X obj 636 204 outlet;
#X obj -41 -201 inlet;
#X obj 124 114 * 4;
#X obj -41 -173 t f b b b;
#X obj 83 123 * 16;
#X obj 151 280 +;
#X obj 136 323 +;
#X floatatom 225 30 5 0 0 0 - - -;
#X text 236 14 length;
#X obj 265 -43 *;
#X floatatom 266 32 16 0 0 0 - - -;
#X obj -41 -145 f;
#X obj 224 -153 t b f;
#X obj 124 216 i;
#X obj 83 158 t b f;
#X obj 124 280 i;
#X obj 124 248 t b f;
#X text 79 8 takte;
#X text 2 27 looplength;
#X text 15 60 Startpunkt;
#X text 158 61 Endpunkt;
#X text -44 -225 bpm input;
#X floatatom 138 -49 5 0 0 0 - - -;
#X floatatom 157 -31 5 0 0 0 - - -;
#X obj 119 24 0_bbox;
#X floatatom 189 -48 5 0 0 0 - - -;
#X floatatom 208 -30 5 0 0 0 - - -;
#X obj 170 24 0_bbox;
#X obj 70 24 0_bbox;
#X floatatom 89 -26 5 0 0 0 - - -;
#X floatatom 109 -160 5 0 0 0 - - -;
#X obj 184 -259 loadbang;
#X msg 183 -232 0 200 3 15;
#X obj 182 -203 unpack f f f f;
#X obj -244 -200 inlet;
#X text -262 -220 samples original bpm;
#X floatatom -244 -101 5 0 0 0 - - -;
#X obj -244 -131 / 60000;
#X obj -244 -10 /;
#X obj -244 -73 t b f;
#X msg -244 -41 1;
#X floatatom -244 17 5 0 0 0 - - -;
#X obj -244 48 * 4;
#X floatatom -244 85 15 0 0 0 - - -;
#X obj -398 -267 inlet;
#X obj -306 194 /;
#X floatatom -306 220 15 0 0 0 - - -;
#X floatatom -306 264 5 0 0 0 - - -;
#X obj -306 241 i;
#X text -269 264 number of bars in sample;
#X text -450 -251 length of sample in smp;
#X text -211 11 length of a beat in ms;
#X text -209 -103 beats per ms;
#X text -239 106 length of a bar in ms;
#X obj -371 97 / 44.1;
#X obj -244 146 t b f;
#X obj 72 -215 t b f;
#X floatatom -244 -167 5 0 0 0 - - -;
#X text 314 51 ms dauer des loops bei angegebenen bpm;
#X floatatom -371 126 15 0 0 0 - - -;
#X text -417 142 length of sample in ms;
#X obj -558 69 / 4;
#X floatatom -558 97 15 0 0 0 - - -;
#X text -572 115 length of a 16th in ms;
#X obj -436 211 /;
#X floatatom -436 240 5 0 0 0 - - -;
#X text -480 264 number of 16th in sample;
#X obj -589 205 *;
#X obj -589 162 t b f;
#X floatatom -589 257 15 0 0 0 - - -;
#X text -598 273 orig loop in smp;
#X obj -589 307 outlet;
#X obj -589 231 * 44.1;
#X obj -398 -206 t b f;
#X text 657 -246 +;
#X floatatom 678 -66 5 0 0 0 - - -;
#X obj -436 299 s numberOf16th;
#X obj 603 -306 r numberOf16th;
#X floatatom 762 -188 5 0 0 0 - - -;
#X text 1097 -61 16th;
#X obj -448 170 t b f;
#X floatatom 603 -185 5 0 0 0 - - -;
#X text 1019 -252 +;
#X text 1075 -249 -;
#X obj 1002 -249 bng 15 250 50 0 empty empty empty 17 7 0 10 -262144
-1 -1;
#X obj 1058 -249 bng 15 250 50 0 empty empty empty 17 7 0 10 -262144
-1 -1;
#X floatatom 1058 -63 5 0 0 0 - - -;
#X obj 640 -246 bng 15 250 50 0 empty empty empty 17 7 0 10 -262144
-1 -1;
#X obj 678 -246 bng 15 250 50 0 empty empty empty 17 7 0 10 -262144
-1 -1;
#X text 695 -248 -;
#X text 834 -252 +;
#X obj 817 -252 bng 15 250 50 0 empty empty empty 17 7 0 10 -262144
-1 -1;
#X obj 844 -252 bng 15 250 50 0 empty empty empty 17 7 0 10 -262144
-1 -1;
#X text 861 -254 -;
#N canvas 2321 52 526 461 beatCounter 0;
#X obj 161 -244 inlet #of16th;
#X obj 285 97 outlet takteVariabel;
#X text 392 -56 -;
#X obj 285 23 counter;
#X obj 302 -57 bng 15 250 50 0 empty empty empty 17 7 0 10 -262144
-1 -1;
#X floatatom 285 58 5 0 0 0 - - -;
#X obj 375 -56 bng 15 250 50 0 empty empty empty 17 7 0 10 -262144
-1 -1;
#X msg 375 -16 dec;
#X msg 302 -16 inc;
#X text 324 58 takte;
#X msg 161 -39 jam \$1;
#X floatatom 161 -116 5 0 0 0 - - -;
#X obj 302 -102 inlet up;
#X obj 375 -103 inlet down;
#X obj 161 -216 / 4;
#X obj 161 -169 expr $i1 - $i2 * 4;
#X obj 40 -74 outlet beatsOrig;
#X text 200 -116 beats;
#X obj 48 -244 inlet #ofBars;
#X obj 222 -69 t b;
#X msg 222 -39 max 3;
#X connect 0 0 14 0;
#X connect 3 0 5 0;
#X connect 4 0 8 0;
#X connect 5 0 1 0;
#X connect 6 0 7 0;
#X connect 7 0 3 0;
#X connect 8 0 3 0;
#X connect 10 0 3 0;
#X connect 11 0 10 0;
#X connect 11 0 16 0;
#X connect 11 0 19 0;
#X connect 12 0 4 0;
#X connect 13 0 6 0;
#X connect 14 0 15 0;
#X connect 15 0 11 0;
#X connect 18 0 15 1;
#X connect 19 0 20 0;
#X connect 20 0 3 0;
#X restore 763 -218 pd beatCounter;
#N canvas 2321 52 526 461 barCounter 0;
#X obj 161 -244 inlet #of16th;
#X obj 40 -74 outlet takteOrig;
#X obj 285 97 outlet takteVariabel;
#X text 392 -56 -;
#X obj 285 23 counter;
#X obj 302 -57 bng 15 250 50 0 empty empty empty 17 7 0 10 -262144
-1 -1;
#X floatatom 285 58 5 0 0 0 - - -;
#X obj 375 -56 bng 15 250 50 0 empty empty empty 17 7 0 10 -262144
-1 -1;
#X msg 375 -16 dec;
#X msg 302 -16 inc;
#X text 324 58 takte;
#X obj 161 -195 / 16;
#X msg 161 -39 jam \$1;
#X msg 223 -39 max \$1;
#X obj 161 -163 i;
#X floatatom 161 -116 5 0 0 0 - - -;
#X text 200 -116 takte;
#X obj 302 -102 inlet up;
#X obj 375 -103 inlet down;
#X connect 0 0 11 0;
#X connect 4 0 6 0;
#X connect 5 0 9 0;
#X connect 6 0 2 0;
#X connect 7 0 8 0;
#X connect 8 0 4 0;
#X connect 9 0 4 0;
#X connect 11 0 14 0;
#X connect 12 0 4 0;
#X connect 13 0 4 0;
#X connect 14 0 15 0;
#X connect 15 0 12 0;
#X connect 15 0 13 0;
#X connect 15 0 1 0;
#X connect 17 0 5 0;
#X connect 18 0 7 0;
#X restore 603 -214 pd barCounter;
#X text 589 -163 bars orig;
#X text 717 -66 bars;
#X text 760 -168 beats orig;
#X floatatom 844 -68 5 0 0 0 - - -;
#X text 888 -67 beats;
#N canvas 3095 31 395 472 sixteenthCounter 0;
#X floatatom -4921 -581 5 0 0 0 - - -;
#X text -4765 -399 16th;
#X obj -4805 -458 counter;
#X msg -4708 -514 dec;
#X msg -4786 -514 inc;
#X msg -4951 -522 jam \$1;
#X obj -4876 -556 t b;
#X floatatom -4804 -401 5 0 0 0 - - -;
#X msg -4901 -521 max 15;
#X msg -4852 -522 min 0;
#X text -4880 -580 16th;
#X obj -4960 -685 inlet #ofSixteenth;
#X obj -4921 -634 expr $i1 - ($i1/4)*4;
#X obj -4786 -547 inlet up;
#X obj -4708 -548 inlet down;
#X obj -4804 -348 outlet sixteent;
#X obj -5039 -550 outlet orig16th;
#X connect 0 0 5 0;
#X connect 0 0 6 0;
#X connect 0 0 16 0;
#X connect 2 0 7 0;
#X connect 3 0 2 0;
#X connect 4 0 2 0;
#X connect 5 0 2 0;
#X connect 6 0 8 0;
#X connect 6 0 9 0;
#X connect 7 0 15 0;
#X connect 8 0 2 0;
#X connect 9 0 2 0;
#X connect 11 0 12 0;
#X connect 12 0 0 0;
#X connect 13 0 4 0;
#X connect 14 0 3 0;
#X restore 947 -210 pd sixteenthCounter;
#X floatatom 947 -177 5 0 0 0 - - -;
#X text 945 -157 16th orig;
#X floatatom 636 41 5 0 0 0 - - -;
#X obj 771 -4 expr $i1*16 + $i2*4 + $i3;
#X floatatom 771 55 5 0 0 0 - - -;
#X text 807 40 # of 16th in loop;
#X floatatom 636 134 15 0 0 0 - - -;
#X obj 636 82 expr (15000 / $f1)* $f2;
#X text 645 152 loopdauer in ms bei angegebenen bpm;
#X floatatom 402 31 5 0 0 0 - - -;
#X obj 744 23 t b f;
#X connect 3 0 5 0;
#X connect 3 0 106 0;
#X connect 4 0 15 0;
#X connect 5 0 13 0;
#X connect 5 1 29 0;
#X connect 5 2 26 0;
#X connect 5 3 30 0;
#X connect 6 0 16 0;
#X connect 7 0 8 1;
#X connect 8 0 9 0;
#X connect 9 0 14 0;
#X connect 9 0 70 0;
#X connect 11 0 12 0;
#X connect 11 0 113 0;
#X connect 13 0 11 0;
#X connect 14 0 13 0;
#X connect 14 1 11 1;
#X connect 15 0 18 0;
#X connect 16 0 15 0;
#X connect 16 1 7 1;
#X connect 17 0 8 0;
#X connect 18 0 17 0;
#X connect 18 1 7 0;
#X connect 24 0 26 1;
#X connect 25 0 26 2;
#X connect 26 0 4 0;
#X connect 27 0 29 1;
#X connect 28 0 29 2;
#X connect 29 0 17 0;
#X connect 30 0 6 0;
#X connect 31 0 30 1;
#X connect 32 0 30 2;
#X connect 33 0 34 0;
#X connect 34 0 35 0;
#X connect 35 0 31 0;
#X connect 35 0 24 0;
#X connect 35 0 27 0;
#X connect 35 1 32 0;
#X connect 35 2 25 0;
#X connect 35 3 28 0;
#X connect 36 0 59 0;
#X connect 38 0 41 0;
#X connect 39 0 38 0;
#X connect 40 0 43 0;
#X connect 41 0 42 0;
#X connect 41 1 40 1;
#X connect 42 0 40 0;
#X connect 43 0 44 0;
#X connect 43 0 63 0;
#X connect 44 0 45 0;
#X connect 45 0 57 0;
#X connect 46 0 75 0;
#X connect 47 0 48 0;
#X connect 48 0 50 0;
#X connect 49 0 58 0;
#X connect 50 0 49 0;
#X connect 56 0 61 0;
#X connect 57 0 47 0;
#X connect 57 1 47 1;
#X connect 58 0 30 0;
#X connect 58 1 32 0;
#X connect 58 1 30 0;
#X connect 59 0 39 0;
#X connect 61 0 47 0;
#X connect 61 0 66 0;
#X connect 63 0 64 0;
#X connect 64 0 69 0;
#X connect 64 0 82 0;
#X connect 66 0 67 0;
#X connect 67 0 78 0;
#X connect 69 0 74 0;
#X connect 70 0 69 0;
#X connect 70 1 69 1;
#X connect 71 0 73 0;
#X connect 74 0 71 0;
#X connect 75 0 59 0;
#X connect 75 1 56 0;
#X connect 77 0 107 0;
#X connect 79 0 97 0;
#X connect 79 0 96 1;
#X connect 79 0 103 0;
#X connect 82 0 66 0;
#X connect 82 1 66 1;
#X connect 83 0 96 0;
#X connect 86 0 103 1;
#X connect 87 0 103 2;
#X connect 88 0 107 2;
#X connect 89 0 97 1;
#X connect 90 0 97 2;
#X connect 93 0 96 2;
#X connect 94 0 96 3;
#X connect 96 0 80 0;
#X connect 96 1 101 0;
#X connect 97 0 83 0;
#X connect 97 1 77 0;
#X connect 101 0 107 1;
#X connect 103 0 104 0;
#X connect 103 1 88 0;
#X connect 106 0 111 0;
#X connect 107 0 114 0;
#X connect 108 0 111 1;
#X connect 110 0 2 0;
#X connect 111 0 110 0;
#X connect 114 0 111 0;
#X connect 114 1 108 0;
#X coords -1 -1 1 1 370 100 1 0 0;
