#N canvas 2108 38 1611 936 16;
#X floatatom -270 23 5 0 0 0 - - #0-playbackBPM;
#X obj 500 15 bng 30 250 50 0 \$0-bangToSelectSample empty Select 35
15 0 20 -4032 -1 -1;
#N canvas 0 0 450 300 (subpatch) 0;
#X array \$0-sample 169627 float 2;
#X coords 0 1 169627 -1 761 140 2 0 0;
#X restore -865 191 graph;
#X obj -862 191 hsl 756 144 0 1 0 0 empty empty empty -2 -8 0 10 -262144
-4032 -1 40130 1;
#X obj -862 386 hsl 756 16 0 1 0 0 empty empty loop_start -2 -8 0 10
-262144 -4034 -1 37687 1;
#X obj -862 420 hsl 756 16 0 1 0 0 empty empty loop_end -2 -8 0 10
-262144 -258113 -1 75374 1;
#X floatatom -596 134 5 0 0 1 original_BPM #0-sendOriginalBPM #0-sendOriginalBPM_2
;
#X text -878 28 length of sample;
#X obj -305 1001 - 3;
#N canvas 451 348 1031 496 drawGraphs 0;
#X obj 173 411 outlet loopStart;
#X obj 360 412 outlet loopEnd;
#X obj 173 204 t b f;
#X obj 173 311 /;
#X obj 440 228 t b f;
#X obj 360 304 expr ($f1 + $f3) / $f2;
#X obj 605 247 t b f;
#X obj 605 304 /;
#X obj 605 411 outlet sampleStartPoint;
#X obj 360 55 r \$0-loopLengthSMP;
#X obj 439 105 r \$0-loopStartSMP;
#X obj 173 92 r \$0-maxl;
#X obj 690 106 r \$0-introStartSMP;
#X connect 2 0 3 0;
#X connect 2 0 5 0;
#X connect 2 1 3 1;
#X connect 2 1 5 1;
#X connect 3 0 0 0;
#X connect 4 0 5 0;
#X connect 4 1 5 2;
#X connect 5 0 1 0;
#X connect 6 0 7 0;
#X connect 6 1 7 1;
#X connect 7 0 8 0;
#X connect 9 0 5 0;
#X connect 10 0 3 0;
#X connect 10 0 4 0;
#X connect 11 0 2 0;
#X connect 11 0 6 0;
#X connect 12 0 7 0;
#X restore -1019 373 pd drawGraphs;
#X obj -862 352 hsl 756 16 0 1 0 0 empty empty sample_start -2 -8 0
10 -262144 -4160 -4160 4711 1;
#X obj -1086 268 r \$0-currentPosition;
#X floatatom -371 682 15 0 0 0 - - -;
#X floatatom 45 674 15 0 0 0 - - -;
#X floatatom -67 920 15 0 0 3 startpoint_in_smp - -;
#X floatatom -161 675 15 0 0 0 - - -;
#X obj 106 123 bng 15 250 50 0 empty empty start_from_sample 5 20 0
10 -262144 -1 -1;
#X floatatom -810 809 15 0 0 0 - - -;
#X floatatom -305 921 15 0 0 3 Length_in_smp - -;
#X floatatom -901 702 15 0 0 0 - - -;
#X floatatom -580 679 15 0 0 0 - - -;
#N canvas 470 33 1110 907 player 1;
#X obj 814 670 inlet fromSMP;
#X obj 690 526 inlet LengthSMP;
#X obj 567 982 outlet~;
#X floatatom 318 941 5 0 0 0 - - -;
#X obj 690 685 - 3;
#X obj 566 826 +~ 1;
#X obj 568 914 +~;
#X obj 690 654 line;
#X msg 690 624 \$1 3;
#X obj 567 735 expr~ $v1 * ($f2) + ($f3);
#X obj 318 978 s \$0-currentPosition;
#N canvas 665 204 302 507 calcPos 0;
#X obj -203 387 outlet;
#X obj -203 310 snapshot~;
#X floatatom -203 347 5 0 0 0 - - -;
#X obj -159 270 /~;
#X obj -159 216 inlet~;
#X obj -89 217 inlet maxl;
#X obj -95 187 bng 15 250 50 0 empty empty empty 17 7 0 10 -262144
-1 -1;
#X obj -203 143 r 96thClockTick;
#X connect 1 0 2 0;
#X connect 2 0 0 0;
#X connect 3 0 1 0;
#X connect 4 0 3 0;
#X connect 5 0 3 1;
#X connect 7 0 1 0;
#X connect 7 0 6 0;
#X restore 318 898 pd calcPos;
#X floatatom 690 578 15 0 0 0 - - -;
#X obj 415 863 r \$0-maxl;
#X obj 568 102 inlet LengthMS;
#X obj 363 -59 inlet StartStop;
#X obj 568 206 phasor~;
#X obj 568 154 expr 1000/$f1;
#X obj 691 412 edge~;
#X obj 691 447 bng 15 250 50 0 empty empty empty 17 7 0 10 -262144
-1 -1;
#X obj 690 372 expr~ $v1<0.5;
#X obj 691 476 s \$0-cycleStartBang;
#X obj 363 28 bng 15 250 50 0 empty empty empty 17 7 0 10 -262144 -1
-1;
#X obj 441 28 bng 15 250 50 0 empty empty empty 17 7 0 10 -262144 -1
-1;
#X obj 363 57 t b b;
#X obj 568 288 spigot~;
#X msg 410 111 0;
#X obj 441 247 tgl 15 0 empty empty empty 17 7 0 10 -262144 -1 -1 0
1;
#X msg 363 210 0;
#X msg 441 56 1;
#X obj 821 -26 inlet sampleToPlay;
#X obj 920 34 bng 15 250 50 0 empty empty empty 17 7 0 10 -4034 -1
-1;
#X obj 920 55 f \$0;
#X obj 920 5 loadbang;
#X obj 883 91 pack;
#X obj 778 61 change;
#X msg 778 108 0;
#X obj 363 -9 route start stop reset;
#X obj 567 862 tabread4~ \$0-sample;
#X obj 883 211 arraycopy \$0-sample;
#X msg 883 123 copy \$2-sample\$1;
#X connect 0 0 9 2;
#X connect 1 0 12 0;
#X connect 3 0 10 0;
#X connect 4 0 9 1;
#X connect 5 0 38 0;
#X connect 6 0 2 0;
#X connect 7 0 4 0;
#X connect 8 0 7 0;
#X connect 9 0 5 0;
#X connect 9 0 11 0;
#X connect 11 0 3 0;
#X connect 12 0 8 0;
#X connect 13 0 11 1;
#X connect 14 0 17 0;
#X connect 15 0 37 0;
#X connect 16 0 25 0;
#X connect 17 0 16 0;
#X connect 18 0 19 0;
#X connect 19 0 21 0;
#X connect 20 0 18 0;
#X connect 22 0 24 0;
#X connect 23 0 29 0;
#X connect 24 0 28 0;
#X connect 24 1 26 0;
#X connect 25 0 9 0;
#X connect 25 0 20 0;
#X connect 26 0 16 1;
#X connect 27 0 25 1;
#X connect 28 0 27 0;
#X connect 29 0 27 0;
#X connect 30 0 34 0;
#X connect 30 0 35 0;
#X connect 31 0 32 0;
#X connect 32 0 34 1;
#X connect 33 0 31 0;
#X connect 34 0 40 0;
#X connect 35 0 36 0;
#X connect 36 0 16 1;
#X connect 37 0 22 0;
#X connect 37 1 23 0;
#X connect 38 0 6 0;
#X connect 40 0 39 0;
#X restore -363 1057 pd player;
#X msg -50 160 start;
#X msg 28 160 stop;
#X floatatom -575 920 15 0 0 3 Length_in_ms - -;
#N canvas 713 133 781 642 selectIntroOrLoop 1;
#X obj 406 510 bng 15 250 50 0 empty empty empty 17 7 0 10 -262144
-1 -1;
#X obj 136 161 bng 15 250 50 0 empty empty empty 17 7 0 10 -262144
-1 -1;
#X obj 554 187 bng 15 250 50 0 empty empty empty 17 7 0 10 -262144
-1 -1;
#X msg 453 173 goto 0;
#X obj 406 235 counter;
#X floatatom 406 272 5 0 0 0 - - -;
#X obj 136 107 t b b b;
#X obj 136 73 route start stop;
#X obj 406 111 t b b;
#X obj 100 552 outlet startSample;
#X obj 406 556 outlet startLoop;
#X obj 136 33 r \$0-transport;
#X obj 554 138 r \$0-cycleStartBang;
#X obj 406 299 select 1;
#X obj 157 275 r \$0-noIntro;
#X obj 100 480 spigot;
#X floatatom 157 314 5 0 0 0 - - -;
#X obj 100 511 bng 15 250 50 0 empty empty empty 17 7 0 10 -262144
-1 -1;
#X floatatom 193 383 5 0 0 0 - - -;
#X obj 193 351 expr abs(($f1-1)*-1);
#X obj 136 432 spigot;
#X text 5 406 if no intro \, start loop immediately;
#X connect 0 0 10 0;
#X connect 1 0 15 0;
#X connect 1 0 20 0;
#X connect 2 0 4 0;
#X connect 3 0 4 0;
#X connect 4 0 5 0;
#X connect 5 0 13 0;
#X connect 6 0 1 0;
#X connect 6 1 4 0;
#X connect 6 2 3 0;
#X connect 7 0 6 0;
#X connect 7 1 8 0;
#X connect 8 0 4 0;
#X connect 8 1 3 0;
#X connect 11 0 7 0;
#X connect 12 0 2 0;
#X connect 13 0 0 0;
#X connect 14 0 16 0;
#X connect 15 0 17 0;
#X connect 16 0 15 1;
#X connect 16 0 19 0;
#X connect 17 0 9 0;
#X connect 18 0 20 1;
#X connect 19 0 18 0;
#X connect 20 0 0 0;
#X restore 106 91 pd selectIntroOrLoop;
#X text -600 962 sets how fast to play;
#X text -70 961 sets from where to play;
#X text -306 962 sets where to stop;
#X obj -64 90 inlet transport;
#X obj -364 1104 outlet~;
#X obj -270 -15 inlet bpm;
#X obj -923 499 s \$0-loopLengthSMP;
#X obj -802 768 r \$0-loopLengthMS;
#X obj -727 499 s \$0-loopLengthMS;
#X obj -371 628 r \$0-loopLengthSMP;
#X obj -894 656 r \$0-introLengthMS;
#X obj -580 628 r \$0-introLengthSMP;
#X obj 45 630 r \$0-loopStartSMP;
#X obj 46 497 s \$0-introLengthSMP;
#X obj -156 497 s \$0-introLengthMS;
#X obj -545 499 s \$0-loopStartSMP;
#X obj -55 452 s \$0-maxl;
#X obj -64 195 s \$0-transport;
#X obj -865 7 r \$0-maxl;
#X obj -832 941 r \$0-transport;
#X obj -865 65 0_length_ivo;
#X obj 106 196 s \$0-startFromWhere;
#X msg 106 157 1;
#X msg 303 155 2;
#X floatatom -614 -2 5 0 0 0 - #0-sendOriginalBPM_2 -;
#X text -613 20 orig. bpm;
#X floatatom -401 134 5 0 0 1 Playback_BPM #0-playbackBPM -;
#X obj -360 498 s \$0-introStartSMP;
#X obj -161 629 r \$0-introStartSMP;
#X obj 303 125 bng 15 250 50 0 empty empty start_from_loop 5 20 0 10
-262144 -1 -1;
#N canvas 691 269 700 547 selectStart 0;
#X obj -453 15 r \$0-startFromWhere;
#X obj -453 75 route 1 2;
#X obj -453 113 bng 15 250 50 0 empty empty empty 17 7 0 10 -262144
-1 -1;
#X obj -410 112 bng 15 250 50 0 empty empty empty 17 7 0 10 -262144
-1 -1;
#X obj -511 217 outlet fromIntro;
#X obj -324 213 outlet fromLoop;
#X connect 0 0 1 0;
#X connect 1 0 2 0;
#X connect 1 1 3 0;
#X connect 2 0 4 0;
#X connect 3 0 5 0;
#X restore -901 579 pd selectStart;
#N canvas 691 269 700 547 selectStart 0;
#X obj -453 15 r \$0-startFromWhere;
#X obj -453 75 route 1 2;
#X obj -453 113 bng 15 250 50 0 empty empty empty 17 7 0 10 -262144
-1 -1;
#X obj -410 112 bng 15 250 50 0 empty empty empty 17 7 0 10 -262144
-1 -1;
#X obj -511 217 outlet fromIntro;
#X obj -324 213 outlet fromLoop;
#X connect 0 0 1 0;
#X connect 1 0 2 0;
#X connect 1 1 3 0;
#X connect 2 0 4 0;
#X connect 3 0 5 0;
#X restore -543 581 pd selectStart;
#N canvas 691 269 700 547 selectStart 0;
#X obj -453 15 r \$0-startFromWhere;
#X obj -453 75 route 1 2;
#X obj -453 113 bng 15 250 50 0 empty empty empty 17 7 0 10 -262144
-1 -1;
#X obj -410 112 bng 15 250 50 0 empty empty empty 17 7 0 10 -262144
-1 -1;
#X obj -511 217 outlet fromIntro;
#X obj -324 213 outlet fromLoop;
#X connect 0 0 1 0;
#X connect 1 0 2 0;
#X connect 1 1 3 0;
#X connect 2 0 4 0;
#X connect 3 0 5 0;
#X restore -133 591 pd selectStart;
#X obj -901 617 t b b;
#X obj -810 736 t b b;
#N canvas 927 328 576 470 superSwitch 0;
#X obj 53 59 inlet;
#X obj 134 59 inlet;
#X obj 222 58 inlet;
#X obj 324 59 inlet;
#X floatatom 224 300 5 0 0 0 - - -;
#X obj 35 165 loadbang;
#X msg 134 219 1;
#X msg 324 217 2;
#X obj 224 347 switch;
#X obj 224 411 outlet;
#X connect 0 0 8 1;
#X connect 1 0 6 0;
#X connect 2 0 8 2;
#X connect 3 0 7 0;
#X connect 4 0 8 0;
#X connect 5 0 6 0;
#X connect 6 0 4 0;
#X connect 7 0 4 0;
#X connect 8 0 9 0;
#X restore -901 858 pd superSwitch;
#N canvas 1168 449 450 300 setNoIntro 0;
#X obj 81 54 inlet;
#X obj 153 56 inlet;
#X floatatom 153 195 5 0 0 0 - - -;
#X obj 153 122 t b f;
#X obj 153 234 s \$0-noIntro;
#X obj 153 157 !=;
#X connect 0 0 5 0;
#X connect 1 0 3 0;
#X connect 2 0 4 0;
#X connect 3 0 5 0;
#X connect 3 1 5 1;
#X connect 5 0 2 0;
#X restore -82 734 pd setNoIntro;
#X obj 28 124 bng 20 250 50 0 empty empty Stop 25 10 0 15 -258113 -1
-1;
#X obj -50 125 bng 20 250 50 0 empty empty Start 22 10 0 15 -4034 -1
-1;
#X obj 116 372 s \$0-sampleMetaData;
#X obj -111 7 r \$0-sampleMetaData;
#X floatatom 26 400 5 0 0 3 original_BPM_from_metadata - #0-sendOriginalBPM
;
#N canvas 331 40 1471 973 fileSelector 0;
#X obj 60 92 openpanel;
#X obj 23 397 soundfiler;
#X floatatom 23 463 20 0 0 0 - - -;
#X obj 24 1054 outlet maxl;
#X obj 168 94 loadbang;
#X obj 264 103 bng 15 250 50 0 empty empty empty 17 7 0 10 -262144
-1 -1;
#X obj 168 137 f \$0;
#X obj 895 890 outlet metadata;
#X obj 60 180 pack s f i;
#X msg 23 334 read -resize \$1 \$2-sample\$3;
#X obj 340 -2 hradio 30 1 0 4 empty \$0-selectSampleToLoad Load 0 -8
0 20 -262144 -1 -1 0;
#X obj 1069 174 hradio 30 1 0 4 empty empty Play 0 -12 0 20 -262144
-1 -1 1;
#X floatatom 24 735 20 0 0 2 Sample0_Max_Length - -;
#X floatatom 54 796 20 0 0 2 Sample1_Max_Length - -;
#X floatatom 87 855 20 0 0 2 Sample2_Max_Length - -;
#X floatatom 118 915 20 0 0 2 Sample3_Max_Length - -;
#X obj 23 689 route 0 1 2 3;
#X obj 446 298 route 0 1 2 3;
#X obj 23 647 pack i f;
#X floatatom 340 88 5 0 0 0 - - -;
#X msg 446 260 \$3 \$1;
#X obj 23 263 bng 15 250 50 0 empty \$0-doneReadingMetadata Metadata_done
17 7 0 10 -262144 -1 -1;
#X obj 23 295 list;
#X obj 23 563 i;
#X obj 23 505 t b f;
#X obj 446 811 bng 15 250 50 0 \$0-doneReadingMetadata empty Metadata_done
17 7 0 10 -262144 -1 -1;
#X msg 23 605 \$1;
#X obj 60 214 t l l;
#X obj 446 362 1_readMetadata;
#X obj 1124 980 cnv 15 180 47 empty empty LoopLength 5 57 0 14 -228856
-1 0;
#X floatatom 1248 986 5 0 0 3 16th - -;
#X floatatom 1189 986 5 0 0 3 bars - -;
#X floatatom 1131 985 5 0 0 3 beats - -;
#X obj 1313 980 cnv 15 180 47 empty empty LoopStart 5 57 0 14 -228856
-1 0;
#X floatatom 1436 986 5 0 0 3 16th - -;
#X floatatom 1377 986 5 0 0 3 bars - -;
#X floatatom 1319 985 5 0 0 3 beats - -;
#X obj 1502 980 cnv 15 180 47 empty empty SampleStart 5 57 0 14 -228856
-1 0;
#X floatatom 1626 985 5 0 0 3 16th - -;
#X floatatom 1567 985 5 0 0 3 bars - -;
#X floatatom 1509 984 5 0 0 3 beats - -;
#X obj 1053 980 cnv 15 65 47 empty empty BPM 5 57 0 14 -228856 -1 0
;
#X floatatom 1060 985 5 0 0 3 bpm - -;
#X obj 1069 276 route 0 1 2 3;
#X obj 1069 331 bng 15 250 50 0 \$0-flushMetadata1 empty empty 17 7
0 10 -262144 -1 -1;
#X obj 1100 452 bng 15 250 50 0 \$0-flushMetadata2 empty empty 17 7
0 10 -262144 -1 -1;
#X obj 1132 568 bng 15 250 50 0 \$0-flushMetadata3 empty empty 17 7
0 10 -262144 -1 -1;
#X obj 1164 685 bng 15 250 50 0 \$0-flushMetadata4 empty empty 17 7
0 10 -262144 -1 -1;
#X obj 1070 887 unpack i i i i i i i i i i;
#X obj 477 480 1_readMetadata;
#X obj 509 597 1_readMetadata;
#X obj 541 715 1_readMetadata;
#X obj 1070 847 list;
#X obj 5 739 bng 15 250 50 0 empty \$0-flushMetadata1 empty 17 7 0
10 -262144 -1 -1;
#X obj 36 799 bng 15 250 50 0 empty \$0-flushMetadata2 empty 17 7 0
10 -262144 -1 -1;
#X obj 69 858 bng 15 250 50 0 empty \$0-flushMetadata3 empty 17 7 0
10 -262144 -1 -1;
#X obj 99 919 bng 15 250 50 0 empty \$0-flushMetadata4 empty 17 7 0
10 -262144 -1 -1;
#X floatatom 24 1004 20 0 0 2 Max_Length - -;
#X obj 854 172 cnv 15 100 30 empty CanvasColor1 empty 20 12 0 14 -262144
-262144 0;
#N canvas 0 0 450 300 (subpatch) 0;
#X array \$0-sample0 268279 float 2;
#X coords 0 1 268279 -1 100 30 1 0 0;
#X restore 854 173 graph;
#X obj 962 173 cnv 15 100 30 empty CanvasColor2 empty 20 12 0 14 -44926
-262144 0;
#X obj 854 228 cnv 15 100 30 empty CanvasColor3 empty 20 12 0 14 -262144
-262144 0;
#X obj 961 228 cnv 15 100 30 empty CanvasColor4 empty 20 12 0 14 -262144
-262144 0;
#N canvas 0 0 450 300 (subpatch) 0;
#X array \$0-sample3 214763 float 2;
#X coords 0 1 214763 -1 100 30 1 0 0;
#X restore 961 228 graph;
#N canvas 0 0 450 300 (subpatch) 0;
#X array \$0-sample2 209967 float 2;
#X coords 0 1 209967 -1 100 30 1 0 0;
#X restore 854 228 graph;
#N canvas 0 0 450 300 (subpatch) 0;
#X array \$0-sample1 169627 float 2;
#X coords 0 1 169627 -1 100 30 1 0 0;
#X restore 961 172 graph;
#N canvas 2718 218 527 268 canvasColorChanger 0;
#X msg -16638 -55 17;
#X msg -16706 -56 0;
#X msg -16389 -53 17;
#X msg -16457 -54 0;
#X msg -16713 -20 \; CanvasColor1 color \$1;
#X msg -16463 -18 \; CanvasColor2 color \$1;
#X msg -16641 37 17;
#X msg -16709 36 0;
#X msg -16715 72 \; CanvasColor3 color \$1;
#X msg -16389 41 17;
#X msg -16457 40 0;
#X msg -16463 76 \; CanvasColor4 color \$1;
#X obj -16636 -83 bng 15 250 50 0 empty \$0-flushMetadata1 empty 17
7 0 10 -262144 -1 -1;
#X obj -16387 -84 bng 15 250 50 0 empty \$0-flushMetadata2 empty 17
7 0 10 -262144 -1 -1;
#X obj -16574 34 bng 15 250 50 0 empty \$0-flushMetadata3 empty 17
7 0 10 -262144 -1 -1;
#X obj -16325 32 bng 15 250 50 0 empty \$0-flushMetadata4 empty 17
7 0 10 -262144 -1 -1;
#X connect 0 0 4 0;
#X connect 1 0 4 0;
#X connect 2 0 5 0;
#X connect 3 0 5 0;
#X connect 6 0 8 0;
#X connect 7 0 8 0;
#X connect 9 0 11 0;
#X connect 10 0 11 0;
#X connect 12 0 0 0;
#X connect 12 0 3 0;
#X connect 12 0 7 0;
#X connect 12 0 10 0;
#X connect 13 0 2 0;
#X connect 13 0 10 0;
#X connect 13 0 1 0;
#X connect 13 0 7 0;
#X connect 14 0 6 0;
#X connect 14 0 10 0;
#X connect 14 0 3 0;
#X connect 14 0 1 0;
#X connect 15 0 9 0;
#X connect 15 0 3 0;
#X connect 15 0 7 0;
#X connect 15 0 1 0;
#X restore 863 47 pd canvasColorChanger;
#X obj 60 56 t b i;
#X obj 1070 224 hradio 30 1 0 4 \$0-selectSampleToLoad empty Load 0
-8 0 20 -262144 -1 -1 0;
#X obj 615 908 until;
#X obj 1252 329 outlet sampleNr;
#X connect 0 0 8 0;
#X connect 1 0 2 0;
#X connect 2 0 24 0;
#X connect 4 0 6 0;
#X connect 5 0 6 0;
#X connect 6 0 8 1;
#X connect 8 0 27 0;
#X connect 9 0 1 0;
#X connect 10 0 19 0;
#X connect 10 0 67 0;
#X connect 11 0 43 0;
#X connect 11 0 70 0;
#X connect 12 0 57 0;
#X connect 13 0 57 0;
#X connect 14 0 57 0;
#X connect 15 0 57 0;
#X connect 16 0 12 0;
#X connect 16 1 13 0;
#X connect 16 2 14 0;
#X connect 16 3 15 0;
#X connect 17 0 28 0;
#X connect 17 1 49 0;
#X connect 17 2 50 0;
#X connect 17 3 51 0;
#X connect 18 0 16 0;
#X connect 19 0 8 2;
#X connect 19 0 23 1;
#X connect 20 0 17 0;
#X connect 21 0 22 0;
#X connect 22 0 9 0;
#X connect 23 0 26 0;
#X connect 24 0 23 0;
#X connect 24 1 18 1;
#X connect 26 0 18 0;
#X connect 27 0 20 0;
#X connect 27 1 22 1;
#X connect 28 0 25 0;
#X connect 28 2 52 0;
#X connect 43 0 44 0;
#X connect 43 1 45 0;
#X connect 43 2 46 0;
#X connect 43 3 47 0;
#X connect 44 0 28 1;
#X connect 45 0 49 1;
#X connect 46 0 50 1;
#X connect 47 0 51 1;
#X connect 48 0 42 0;
#X connect 48 1 32 0;
#X connect 48 2 31 0;
#X connect 48 3 30 0;
#X connect 48 4 36 0;
#X connect 48 5 35 0;
#X connect 48 6 34 0;
#X connect 48 7 40 0;
#X connect 48 8 39 0;
#X connect 48 9 38 0;
#X connect 49 0 25 0;
#X connect 49 2 52 0;
#X connect 50 0 25 0;
#X connect 50 2 52 0;
#X connect 51 0 25 0;
#X connect 51 2 52 0;
#X connect 52 0 48 0;
#X connect 52 0 7 0;
#X connect 53 0 12 0;
#X connect 54 0 13 0;
#X connect 55 0 14 0;
#X connect 56 0 15 0;
#X connect 57 0 3 0;
#X connect 67 0 0 0;
#X connect 67 1 19 0;
#X coords 0 -1 1 1 350 112 2 850 150;
#X restore -59 231 pd fileSelector;
#X floatatom 497 166 12 0 0 0 - - -;
#N canvas 2172 82 1110 757 bangToSelectSample 0;
#X obj -258 73 bng 15 250 50 0 empty empty empty 17 7 0 10 -262144
-1 -1;
#X obj -258 113 openpanel;
#X obj -258 353 soundfiler;
#X floatatom -285 444 20 0 0 0 - - -;
#X text -239 72 Bang to select sample;
#X obj -285 492 outlet maxl;
#X obj -258 40 inlet bangToSelect;
#X msg -258 298 read -resize \$1 \$2-sample;
#X obj -181 145 loadbang;
#X obj -258 221 pack s f;
#X obj -85 154 bng 15 250 50 0 empty empty empty 17 7 0 10 -262144
-1 -1;
#X obj -181 188 f \$0;
#X obj -285 394 i;
#N canvas 2094 344 715 475 readMetadata 0;
#X msg 159 -260 read \$1.txt;
#X obj 27 -159 textfile;
#X obj 27 -218 bng 15 250 50 0 empty empty empty 17 7 0 10 -262144
-1 -1;
#X msg 133 -208 rewind;
#X obj 27 -90 route bpm looplength loopstart samplestart;
#X obj 91 0 cnv 15 180 47 empty empty LoopLength 5 57 0 14 -228856
-1 0;
#X obj 98 -44 unpack i i i;
#X floatatom 215 6 5 0 0 3 16th - -;
#X floatatom 156 6 5 0 0 3 bars - -;
#X floatatom 98 5 5 0 0 3 beats - -;
#X obj 280 0 cnv 15 180 47 empty empty LoopStart 5 57 0 14 -228856
-1 0;
#X obj 286 -44 unpack i i i;
#X floatatom 403 6 5 0 0 3 16th - -;
#X floatatom 344 6 5 0 0 3 bars - -;
#X floatatom 286 5 5 0 0 3 beats - -;
#X obj 469 0 cnv 15 180 47 empty empty SampleStart 5 57 0 14 -228856
-1 0;
#X obj 476 -45 unpack i i i;
#X floatatom 593 5 5 0 0 3 16th - -;
#X floatatom 534 5 5 0 0 3 bars - -;
#X floatatom 476 4 5 0 0 3 beats - -;
#X obj 20 0 cnv 15 65 47 empty empty BPM 5 57 0 14 -228856 -1 0;
#X floatatom 27 5 5 0 0 3 bpm - -;
#X obj 32 -294 t b b b b b b s;
#X obj 32 -325 inlet;
#X obj -30 -259 outlet doneBang;
#X obj 77 -120 outlet;
#X obj 27 91 outlet bpm;
#X connect 0 0 1 0;
#X connect 1 0 4 0;
#X connect 1 0 25 0;
#X connect 2 0 1 0;
#X connect 3 0 1 0;
#X connect 4 0 21 0;
#X connect 4 1 6 0;
#X connect 4 2 11 0;
#X connect 4 3 16 0;
#X connect 6 0 9 0;
#X connect 6 1 8 0;
#X connect 6 2 7 0;
#X connect 11 0 14 0;
#X connect 11 1 13 0;
#X connect 11 2 12 0;
#X connect 16 0 19 0;
#X connect 16 1 18 0;
#X connect 16 2 17 0;
#X connect 21 0 26 0;
#X connect 22 0 24 0;
#X connect 22 1 2 0;
#X connect 22 2 2 0;
#X connect 22 3 2 0;
#X connect 22 4 2 0;
#X connect 22 5 3 0;
#X connect 22 6 0 0;
#X connect 23 0 22 0;
#X coords 0 -1 1 1 630 70 2 20 0;
#X restore 46 289 pd readMetadata;
#X obj 484 414 outlet metadata;
#X obj 298 411 outlet bpm;
#X obj 363 68 inlet selectNo;
#X obj 535 66 inlet bangToSwitchSample;
#X floatatom 363 171 5 0 0 0 - - -;
#X connect 0 0 1 0;
#X connect 1 0 9 0;
#X connect 2 0 12 1;
#X connect 3 0 5 0;
#X connect 6 0 0 0;
#X connect 7 0 2 0;
#X connect 8 0 11 0;
#X connect 9 0 7 0;
#X connect 9 0 13 0;
#X connect 10 0 11 0;
#X connect 11 0 9 1;
#X connect 12 0 3 0;
#X connect 13 0 12 0;
#X connect 13 1 15 0;
#X connect 13 2 14 0;
#X connect 16 0 18 0;
#X restore 497 124 pd bangToSelectSample;
#X obj 497 58 bng 30 250 50 0 empty \$0-bangToSelectSample Select_Folder
0 45 0 20 -4032 -1 -1;
#X obj 600 59 hradio 30 1 0 4 empty empty empty 0 -8 0 10 -262144 -1
-1 2;
#X obj 26 371 unpack i;
#X obj 289 406 s \$0-sampleToPlay;
#X obj -190 1018 r \$0-sampleToPlay;
#X connect 8 0 21 2;
#X connect 9 0 4 0;
#X connect 9 1 5 0;
#X connect 9 2 10 0;
#X connect 11 0 3 0;
#X connect 12 0 18 0;
#X connect 13 0 14 0;
#X connect 13 0 62 1;
#X connect 14 0 21 3;
#X connect 15 0 14 0;
#X connect 15 0 62 0;
#X connect 16 0 48 0;
#X connect 17 0 61 2;
#X connect 18 0 8 0;
#X connect 19 0 61 0;
#X connect 20 0 18 0;
#X connect 21 0 30 0;
#X connect 22 0 43 0;
#X connect 23 0 43 0;
#X connect 24 0 21 1;
#X connect 25 0 16 0;
#X connect 25 1 55 0;
#X connect 29 0 43 0;
#X connect 31 0 0 0;
#X connect 33 0 17 0;
#X connect 35 0 12 0;
#X connect 36 0 19 0;
#X connect 37 0 20 0;
#X connect 38 0 13 0;
#X connect 44 0 46 0;
#X connect 45 0 21 0;
#X connect 46 0 32 0;
#X connect 46 1 34 0;
#X connect 46 2 41 0;
#X connect 46 3 53 0;
#X connect 46 4 40 0;
#X connect 46 5 39 0;
#X connect 48 0 47 0;
#X connect 49 0 47 0;
#X connect 50 0 46 1;
#X connect 52 0 46 2;
#X connect 54 0 15 0;
#X connect 55 0 49 0;
#X connect 56 0 59 0;
#X connect 56 1 60 0;
#X connect 57 0 20 0;
#X connect 57 1 12 0;
#X connect 58 0 15 0;
#X connect 58 1 13 0;
#X connect 59 0 19 0;
#X connect 59 1 61 1;
#X connect 60 0 17 0;
#X connect 60 1 61 3;
#X connect 61 0 24 0;
#X connect 63 0 23 0;
#X connect 64 0 22 0;
#X connect 66 0 46 3;
#X connect 68 0 42 0;
#X connect 68 1 73 0;
#X connect 68 1 65 0;
#X connect 68 2 74 0;
#X connect 70 0 69 0;
#X connect 71 0 70 0;
#X connect 72 0 70 1;
#X connect 73 0 67 0;
#X connect 75 0 21 4;
#X coords 0 -1 1 1 761 371 2 -865 65;
