#N canvas 827 231 737 502 16;
#X msg 189 -230 read \$1.txt;
#X obj 37 -149 textfile;
#X obj 37 -218 bng 15 250 50 0 empty empty empty 17 7 0 10 -262144
-1 -1;
#X msg 143 -185 rewind;
#X obj 37 -80 route bpm looplength loopstart samplestart;
#X obj 91 13 cnv 15 180 47 empty empty LoopLength 5 57 0 14 -228856
-1 0;
#X obj 98 -34 unpack i i i;
#X floatatom 215 19 5 0 0 3 16th - -;
#X floatatom 156 19 5 0 0 3 bars - -;
#X floatatom 98 18 5 0 0 3 beats - -;
#X obj 280 13 cnv 15 180 47 empty empty LoopStart 5 57 0 14 -228856
-1 0;
#X obj 286 -34 unpack i i i;
#X floatatom 403 19 5 0 0 3 16th - -;
#X floatatom 344 19 5 0 0 3 bars - -;
#X floatatom 286 18 5 0 0 3 beats - -;
#X obj 469 13 cnv 15 180 47 empty empty SampleStart 5 57 0 14 -228856
-1 0;
#X obj 476 -35 unpack i i i;
#X floatatom 593 18 5 0 0 3 16th - -;
#X floatatom 534 18 5 0 0 3 bars - -;
#X floatatom 476 17 5 0 0 3 beats - -;
#X obj 20 13 cnv 15 65 47 empty empty BPM 5 57 0 14 -228856 -1 0;
#X floatatom 27 18 5 0 0 3 bpm - -;
#X obj 43 -325 inlet;
#X obj -20 -259 outlet doneBang;
#X obj 37 101 outlet bpm;
#X obj 189 -257 symbol;
#X obj 349 259 outlet;
#X obj 349 223 pack i i i i i i i i i i;
#X obj 280 126 inlet flush;
#X obj 280 192 i;
#X obj 280 161 bng 15 250 50 0 empty empty empty 17 7 0 10 -262144
-1 -1;
#X obj 42 -295 t b b b b b b b a;
#X connect 0 0 1 0;
#X connect 1 0 4 0;
#X connect 2 0 1 0;
#X connect 3 0 1 0;
#X connect 4 0 21 0;
#X connect 4 1 6 0;
#X connect 4 2 11 0;
#X connect 4 3 16 0;
#X connect 6 0 9 0;
#X connect 6 1 8 0;
#X connect 6 2 7 0;
#X connect 7 0 27 3;
#X connect 8 0 27 2;
#X connect 9 0 27 1;
#X connect 11 0 14 0;
#X connect 11 1 13 0;
#X connect 11 2 12 0;
#X connect 12 0 27 6;
#X connect 13 0 27 5;
#X connect 14 0 27 4;
#X connect 16 0 19 0;
#X connect 16 1 18 0;
#X connect 16 2 17 0;
#X connect 17 0 27 9;
#X connect 18 0 27 8;
#X connect 19 0 27 7;
#X connect 21 0 24 0;
#X connect 21 0 29 1;
#X connect 22 0 31 0;
#X connect 25 0 0 0;
#X connect 27 0 26 0;
#X connect 28 0 30 0;
#X connect 29 0 27 0;
#X connect 30 0 29 0;
#X connect 31 1 23 0;
#X connect 31 2 2 0;
#X connect 31 3 2 0;
#X connect 31 4 2 0;
#X connect 31 5 2 0;
#X connect 31 6 3 0;
#X connect 31 7 25 0;
#X coords 0 -1 1 1 630 90 1 20 -10;
